<?xml version="1.0" encoding="UTF-8"?>
<svg id="Layer_1" xmlns="http://www.w3.org/2000/svg" version="1.1" xmlns:xlink="http://www.w3.org/1999/xlink" viewBox="0 0 383 383">
  <!-- Generator: Adobe Illustrator 29.1.0, SVG Export Plug-In . SVG Version: 2.1.0 Build 142)  -->
  <defs>
    <style>
      .st0 {
        fill: url(#linear-gradient2);
      }

      .st1 {
        fill: #8b6c5c;
      }

      .st2 {
        fill: url(#linear-gradient1);
      }

      .st3 {
        fill: #938478;
      }

      .st4 {
        fill: #585048;
      }

      .st5 {
        fill: #fefefe;
      }

      .st6 {
        fill: #685d52;
      }

      .st7 {
        fill: url(#linear-gradient);
      }

      .st8 {
        fill: #b3aa9d;
      }
    </style>
    <linearGradient id="linear-gradient" x1="1760.3" y1="-982.2" x2="1813.5" y2="-949.6" gradientTransform="translate(-480.8 -74.2) scale(.4 -.4)" gradientUnits="userSpaceOnUse">
      <stop offset="0" stop-color="#5b5146"/>
      <stop offset="1" stop-color="#928579"/>
    </linearGradient>
    <linearGradient id="linear-gradient1" x1="1878.1" y1="-554.3" x2="1645.1" y2="-458.8" gradientTransform="translate(-480.8 -74.2) scale(.4 -.4)" gradientUnits="userSpaceOnUse">
      <stop offset="0" stop-color="#8f8074"/>
      <stop offset="1" stop-color="#bdb6aa"/>
    </linearGradient>
    <linearGradient id="linear-gradient2" x1="1918.7" y1="-558.6" x2="1839.5" y2="-575.8" gradientTransform="translate(-480.8 -74.2) scale(.4 -.4)" gradientUnits="userSpaceOnUse">
      <stop offset="0" stop-color="#9f9287"/>
      <stop offset="1" stop-color="#beb7aa"/>
    </linearGradient>
  </defs>
  <path d="M249,318c-6-4.7-14-6.5-21.5-6-7.3.5-15.1,3.3-20,9-3.5,4-4.7,9.7-4.2,14.9.4,4.9,3.2,9.1,6.9,12.2,5.9,4.9,14.3,6.7,21.9,6.2,0,0,.2,0,.2,0,7.7-.9,15.2-3.3,20.2-9.5,3.1-3.9,4.4-8.8,3.8-13.8-.6-5.2-3.1-9.8-7.3-13ZM209.2,322c4.3-5.2,11.4-7.6,17.9-8.1,7.2-.6,14.3.8,20.2,5,3.1,2.2,5.5,5.3,6.2,9.1.5,3.3-.4,6.6-2.3,9.2-4.1,5.6-11.3,7.9-17.9,8.9-7.9.8-15.1-.5-21.4-5.6-2.9-2.4-5.2-5.6-5.6-9.4-.3-3.3.8-6.6,2.9-9.1ZM211,346.5c-4.4-4.1-5.7-7.8-6-13.7.1.3.2.6.3,1,.2.9.5,1.6.9,2.4,2.6,5.3,7.6,8.4,13,10.2v.2s-.6.2-.6.2c-2.1.3-4.1.6-6.2,1-.5-.4-1-.8-1.5-1.3ZM253.9,338.6c-1.9,5.1-5.9,8.9-10.8,11.1-8.4,3.8-18,3.7-26.5.4-.7-.3-1.4-.6-2.1-1h1.3c2.5-.3,4.9-1.2,7.4-1.4,1.9-.1,3.9.3,5.9.3,5.7,0,11.8-1.5,16.7-4.2,4.5-2.4,7.5-5.7,9-10.6.3,1.7-.3,3.9-.9,5.4Z"/>
  <path class="st3" d="M219.3,346.6v-.2c-5.5-1.8-10.4-4.9-13-10.2-.4-.8-.7-1.5-.9-2.4,0-.3-.2-.7-.3-1,.2,5.9,1.6,9.6,6,13.7.5.4,1,.9,1.5,1.3,2.1-.4,4.1-.7,6.2-1l.6-.2Z"/>
  <path class="st3" d="M245.8,343.8c-5,2.7-11.1,4.3-16.7,4.2-1.9,0-3.9-.4-5.9-.3-2.5.2-4.9,1.1-7.4,1.3h-1.3c.7.5,1.4.8,2.1,1.1,8.6,3.3,18.1,3.4,26.5-.4,4.9-2.2,8.9-6,10.8-11.1.6-1.6,1.2-3.8.9-5.4-1.5,4.9-4.5,8.2-9,10.6Z"/>
  <path class="st8" d="M211.9,340.6c6.3,5,13.5,6.4,21.4,5.6,6.6-1,13.8-3.3,17.9-8.9,2-2.7,2.9-5.9,2.3-9.2-.6-3.9-3.1-6.9-6.2-9.1-6-4.2-13-5.6-20.2-5-6.5.6-13.6,3-17.9,8.1-2.1,2.6-3.2,5.8-2.9,9.1.4,3.8,2.6,7.1,5.6,9.4ZM215.7,324.9c2.8-3.9,7-5.1,11.5-5.7,4.8-.5,10.1.2,14.2,3.1,2.1,1.5,3.8,3.8,4.2,6.4.3,2.4-.5,4.6-2,6.5-2.7,3.5-7,4.9-11.2,5.5-4.7.4-9.1,0-13.2-2.7-2.4-1.5-4.4-3.7-5-6.5-.5-2.3.2-4.6,1.6-6.5Z"/>
  <path d="M219.1,337.9c4.1,2.6,8.5,3,13.2,2.7,4.3-.5,8.5-2,11.2-5.5,1.5-1.9,2.3-4.1,2-6.5-.4-2.6-2.1-4.9-4.2-6.4-4.1-2.8-9.3-3.6-14.2-3.1-4.5.7-8.7,1.9-11.5,5.7-1.3,1.9-2,4.2-1.6,6.5.6,2.9,2.6,5,5,6.5ZM241.7,334.8c-2,2.4-6.6,3.7-9.6,4-1.1.1-2.1.2-3.2.1,0,0,0,0,0,0,0,0,0,0,0,0-4.5,0-8.6-1.9-11.7-5.1.2-.2.3-.5.5-.7,2.4-3.1,6.2-4.6,9.9-5.1,1-.2,2.1-.2,3.2-.2,3.3.2,6.6,1.3,9.3,3.1.9.6,2,1.5,2.1,2.6,0,.5-.2.9-.4,1.2ZM217.8,324.8c2.8-3,7.1-4.1,11-4.2,1.1,0,2.3,0,3.4.1,3.1.3,7.1,1.5,9.1,4.1,1.5,1.9,1.3,3.9,1.1,6.1-.1-.1-.2-.2-.3-.3-4-3.5-8.8-4.5-14-4.3,0,0,0,0,0,0-5,.4-8.5,2.3-11.9,5.9-.2-.6-.5-1.3-.5-2,0-2,.7-3.9,2.1-5.4Z"/>
  <path class="st3" d="M228,326.4s0,0,0,0c5.2-.3,10,.7,14,4.3.1.1.2.2.3.3.3-2.2.4-4.2-1.1-6.1-2-2.6-6-3.7-9.1-4.1-1.1-.1-2.3-.1-3.4-.1-3.9.2-8.3,1.2-11,4.2-1.4,1.5-2.2,3.4-2.1,5.4,0,.7.3,1.3.5,2,3.4-3.6,6.9-5.5,11.9-5.9Z"/>
  <path class="st5" d="M217.7,333.2c2.4-3.1,6.2-4.6,9.9-5.1,1-.2,2.1-.2,3.1-.2-1.1,0-2.2,0-3.2.2-3.7.5-7.6,2-9.9,5.1-.2.2-.3.4-.5.7,3.1,3.2,7.2,5,11.7,5.1,0,0,0,0,0,0-4.5-.1-8.6-1.9-11.6-5.1.2-.2.3-.5.5-.7Z"/>
  <path d="M367.9,258.8c-.2-4.3-1.3-7.7-4.6-10.6-2.7-2.4-6.6-4.1-10.2-4-3.1,2.7-5.8,5.8-8.8,8.7-4.2-.7-8.2-.5-11.8,2-2.5,1.8-4.8,4.3-7.1,6.4-4.1,3.6-8.2,7.2-12.4,10.8-2.1,1.8-4.2,4-6.7,5.3-7.8-2.5-17.5-2.8-24.9,1-6.5,3.3-10.9,8.6-13.1,15.6-3.1,9.6-.6,20.5,4,29.3,3.5,6.7,9.7,13.7,16.2,17.6,8.8,5.6,18.8,8.8,29.3,6.4.4,0,.9-.2,1.3-.3.4-.1.9-.2,1.3-.4.4-.1.8-.3,1.3-.4.4-.2.8-.3,1.2-.5.4-.2.8-.4,1.2-.6.4-.2.8-.4,1.2-.6.4-.2.8-.4,1.1-.7.4-.2.7-.5,1.1-.7.4-.3.7-.5,1.1-.8s.7-.6,1-.8c.3-.3.7-.6,1-.9.3-.3.6-.6.9-.9.3-.3.6-.7.9-1,.3-.3.6-.7.8-1,.3-.4.5-.7.8-1.1.3-.4.5-.7.7-1.1,4.3-6.8,4.9-15.3,3.2-23l-.8-3.5c2.1-1.5,19.5-23.1,21.6-26.1.8-1.2,1.5-2.4,1.8-3.9.3-2.1.4-4.5.5-6.7,0-.8,0-1.7,0-2.5.5-2.7,5.4-8.2,6.9-10.9ZM353.8,245.5c1.1.2,2.2.5,3.2.8,3.5,1.3,6.6,3.6,8.1,7,.3.7,1,1.9.7,2.7l-.2-.4c-.2-.4-.4-.7-.6-1-3.1-4.6-7.2-6.7-12.6-7.7l1.4-1.5ZM331.1,337.1c-4.8,5.9-11.3,8.3-18.7,9-9.5.1-18.2-3-25.8-8.8-9.3-7-15.9-17.6-17.5-29.3-1-7.2.1-15.5,4.7-21.4,2.4-3.2,5.4-5.2,8.9-7.1.7-.4,1.5-.9,2.2-1,2.9-.3,5.7-1,8.5-1.3.2,0,.2,0,.5,0,1.1,0,2.5,0,3.6.2,8.1.7,15.5,4,21.8,9,9.4,7.6,16,17.5,17.3,29.8.8,7.6-.7,14.8-5.6,20.8ZM312.9,280.1c4.6.5,11.1,5.3,14.3,8.6,3.5,3.6,7.8,9.4,7.7,14.7-1-.8-2.2-4.2-3-5.5-4.4-7.2-11.4-13.9-19-17.8ZM336.5,305.9h-.3c-.3-.6-.2-1.4-.2-2.2,0-3.4-1.1-6.4-2.8-9.3-3.9-6.6-11-13.1-18.4-15.3-2-.6-4-.4-5.9-.9,0,0-.1,0-.2,0,1.5-.3,2.9-.5,4.4-.7,2.7-.5,6,.2,8.5,1.1,5.6,2.2,10.9,7.2,13.3,12.8,1.9,4.2,3.3,10.1,1.5,14.6ZM338.8,304.6l.2-3.1c0-1.3-.2-2.6-.4-4-1.2-7.2-5.4-13.3-11.3-17.5-4.7-3.3-9.9-4.8-15.6-3.9,1.8-1.4,3.4-2.5,5.7-3,4.9-.2,9,.7,13.2,3.4.3.2.6.4,1,.6.3.2.6.4.9.7.3.2.6.5.9.7.3.2.6.5.9.8.3.3.5.5.8.8.3.3.5.6.8.8.3.3.5.6.7.9.2.3.5.6.7.9.2.3.4.6.6,1,.2.3.4.7.6,1,.2.3.4.7.5,1,.2.3.3.7.5,1,.2.3.3.7.4,1.1.1.4.3.7.4,1.1.1.4.2.7.3,1.1,0,.4.2.7.3,1.1,1.1,5,.7,9.1-2.1,13.4ZM342.7,299.9c.1-1,.2-1.9.3-2.9,0-.6,0-1.2,0-1.8-.2-6.2-3-12.8-7.5-17.1-5.6-5.3-11.4-6.6-18.9-6.3.9-.6,1.8-1.4,2.9-1.8,0,0,.2,0,.3,0,1.2-.4,2.6-.4,3.8-.5,5.2-.2,10.2,1.8,14.3,4.9,4.4,3.3,7.7,8.8,8.4,14.3.6,4.5-.9,7.6-3.6,11.1ZM350.2,287.4c-.2,1.8-.5,4.1-1.9,5.3-.3-1.5-.2-3.1-.3-4.6-.9-5-3.4-10-7.1-13.4-5.7-5.3-12.3-6.9-19.9-6.6,2.3-2.2,4.3-2.5,7.4-2.8.8,0,1.7,0,2.5,0,5.6.4,11.3,3.2,14.9,7.5,3.5,4.1,4.9,9.2,4.5,14.5ZM351.7,288.5l.3-2.7c0-1.3,0-2.6-.3-3.9-.9-5.5-3.8-10.3-8.4-13.5-5.3-3.7-11.5-5.1-17.8-4,1.8-1.8,3-2.8,5.5-3.1,0,0,0,0,0,0,6-.5,12.1,2,16.6,5.9,3.8,3.2,6.4,7.3,6.8,12.3.3,3.8-.3,6.2-2.8,9.1ZM356.3,283.1v-3.1c-.3-4-1.8-7.6-4.3-10.8-3.6-4.6-9.8-8.5-15.7-9.2-2-.3-3.9,0-5.9-.2,0,0,0-.1.1-.2.9-1.3,3.1-1.4,4.5-1.6,0,0,0,0,.1,0,5.3-.6,11.3,1.7,15.6,4.7,4.1,3,6.4,7,7.2,12,.5,3,0,6-1.7,8.4ZM357.8,268c-4.3-6.6-11-10.9-18.9-11.6-1.4-.1-3.9.4-5,0v-.3c1.4-1.3,2.8-1.5,4.6-1.7.3,0,.7,0,1-.1,5-.4,10.7,1.7,14.4,5,3.6,3.1,5,7.1,5.3,11.7-.4-1-1-2-1.5-3ZM360.6,266.4c-.7-.8-1-2.4-1.6-3.3-2.8-4.9-7.5-8.2-12.9-9.6,1.6-1.8,3.2-3.8,5.2-5.1.7,0,1.4.2,2.1.3,6.9,1.2,8.7,5,12.4,10.1-1.9,2.2-3.3,5.2-5.2,7.6Z"/>
  <path class="st8" d="M365,254.6c.2.3.4.7.6,1l.2.4c.3-.7-.4-2-.7-2.7-1.6-3.4-4.7-5.8-8.1-7-1-.4-2.1-.7-3.2-.8l-1.4,1.5c5.4,1,9.5,3.1,12.6,7.7Z"/>
  <path class="st8" d="M331.9,297.9c.8,1.2,2,4.7,3,5.5,0-5.3-4.2-11.1-7.7-14.7-3.2-3.3-9.6-8.1-14.3-8.6,7.5,3.8,14.6,10.6,19,17.8Z"/>
  <path class="st8" d="M354,259.3c-3.7-3.3-9.5-5.4-14.4-5-.4,0-.7,0-1,.1-1.8.2-3.2.4-4.5,1.7v.3c1,.4,3.5,0,4.9,0,7.9.7,14.6,5,18.9,11.6.5,1,1,2,1.5,3-.3-4.6-1.7-8.6-5.3-11.7Z"/>
  <path class="st3" d="M321.7,278.5c-2.5-1-5.8-1.6-8.5-1.1-1.5.2-3,.5-4.4.7,0,0,.1,0,.2,0,1.9.5,3.9.4,5.9.9,7.4,2.2,14.6,8.7,18.4,15.3,1.7,2.9,2.8,5.9,2.8,9.3,0,.8-.1,1.5.2,2.3h.3c1.8-4.6.3-10.5-1.5-14.7-2.4-5.5-7.7-10.6-13.3-12.8Z"/>
  <path class="st3" d="M350.8,262.6c-4.2-3-10.3-5.3-15.6-4.7,0,0,0,0-.1,0-1.4.2-3.6.4-4.5,1.6,0,0,0,.1-.1.2,2,.2,3.9,0,5.9.2,5.9.8,12,4.6,15.7,9.2,2.5,3.1,4,6.8,4.3,10.8v3.1c1.8-2.5,2.2-5.5,1.7-8.4-.8-5-3-9-7.2-12Z"/>
  <path class="st8" d="M347.7,267.2c-4.5-3.8-10.6-6.4-16.6-5.9,0,0,0,0,0,0-2.6.3-3.8,1.3-5.5,3.1,6.3-1.1,12.5.3,17.8,4,4.5,3.2,7.5,8,8.4,13.5.2,1.3.3,2.6.3,3.9l-.3,2.7c2.5-2.9,3.1-5.3,2.8-9.1-.4-5-3-9.1-6.8-12.3Z"/>
  <path class="st8" d="M353.5,248.6c-.7-.1-1.4-.2-2.1-.3-2,1.3-3.6,3.3-5.2,5.1,5.3,1.5,10.1,4.8,12.9,9.6.6,1,.9,2.6,1.6,3.3,1.9-2.4,3.3-5.4,5.2-7.6-3.7-5.1-5.5-8.9-12.4-10.1Z"/>
  <path class="st3" d="M330.9,265.4c-.8,0-1.7,0-2.5,0-3.1.3-5,.6-7.4,2.8,7.6-.3,14.1,1.2,19.9,6.6,3.7,3.5,6.2,8.5,7.1,13.4.2,1.5,0,3.1.3,4.6,1.5-1.2,1.8-3.5,1.9-5.3.4-5.3-1-10.4-4.5-14.5-3.7-4.3-9.3-7.1-14.9-7.5Z"/>
  <path class="st3" d="M337.9,274.5c-4.1-3.1-9.1-5.1-14.3-4.9-1.3,0-2.6,0-3.8.5,0,0-.2,0-.3,0-1,.4-2,1.1-2.9,1.8,7.5-.3,13.3,1.1,18.9,6.3,4.5,4.2,7.3,10.9,7.5,17.1,0,.6,0,1.2,0,1.8,0,1-.2,1.9-.3,2.9,2.7-3.5,4.2-6.6,3.6-11.1-.7-5.5-4-11-8.4-14.3Z"/>
  <path class="st8" d="M340.6,290.1c0-.4-.2-.7-.3-1.1-.1-.4-.2-.7-.4-1.1-.1-.4-.3-.7-.4-1.1-.2-.3-.3-.7-.5-1-.2-.3-.4-.7-.5-1-.2-.3-.4-.7-.6-1-.2-.3-.4-.6-.6-1-.2-.3-.4-.6-.7-.9-.2-.3-.5-.6-.7-.9-.3-.3-.5-.6-.8-.8-.3-.3-.5-.5-.8-.8-.3-.3-.6-.5-.9-.8-.3-.2-.6-.5-.9-.7-.3-.2-.6-.5-.9-.7-.3-.2-.6-.4-1-.6-4.2-2.6-8.3-3.6-13.2-3.4-2.3.5-3.9,1.5-5.7,3,5.7-1,10.9.5,15.6,3.9,5.9,4.2,10.1,10.3,11.3,17.5.2,1.3.3,2.6.4,4l-.2,3.1c2.8-4.3,3.2-8.4,2.1-13.4,0-.4-.2-.7-.3-1.1Z"/>
  <path class="st3" d="M319.4,286.5c-6.3-5.1-13.7-8.3-21.8-9-1.1,0-2.5-.2-3.6-.2-.2,0-.3,0-.5,0-2.9.3-5.7,1-8.5,1.3-.7,0-1.6.6-2.2,1-3.5,1.9-6.5,3.9-8.9,7.1-4.5,5.9-5.6,14.2-4.7,21.4,1.6,11.6,8.2,22.2,17.5,29.3,7.6,5.7,16.2,8.9,25.8,8.8,7.4-.7,13.8-3.1,18.7-9,4.9-6,6.4-13.2,5.6-20.8-1.3-12.2-7.9-22.2-17.3-29.8ZM325.1,333.7c-3.6,4-8.6,5.9-13.8,6.2-9.1.4-18.1-3.9-24.9-9.8-2.3-2-4.3-4.4-6.6-6.4-.9-.8-1.9-1.4-2.7-2.2-1.1-1-2.3-2.2-2.3-3.7.8-2.1,16.2-14.8,18.7-16.1,1.5-.8,2.7-.7,4.2-.2h.3c.7.9,1.4,1.6,2.3,2.3,3.2,2.2,5.9,5.5,8.7,8.2,1.3,1.2,2.8,2.3,4,3.6.4.4,1.1,1.1,1.1,1.7.2,1.6-9.7,14.2-11.3,16.8v.2c2.9-.8,6.4-2.4,9.1-4.1,3.4-2.1,6-5.2,6.9-9.2,1.1-4.9-.2-10.2-2.9-14.4-3.5-5.4-9.6-10-16-11.3-2.1-.4-4.6-.7-6.6,0-3.2,1.2-14.2,12.6-18.7,15.6.4-1.8.1-3.6,0-5.4-.2-5,.6-9.6,3.7-13.7,3.8-5,8.2-6.9,14.4-7.7.2,0,.4,0,.6,0,8.2-.6,17.4,3.5,23.4,8.8,7.3,6.4,12.8,15.1,13.5,25,.4,5.9-1.3,11.3-5.3,15.7Z"/>
  <path d="M316.9,293c-6.1-5.3-15.2-9.4-23.4-8.8-.2,0-.4,0-.6,0-6.1.8-10.5,2.7-14.4,7.7-3.1,4.1-3.9,8.6-3.7,13.7,0,1.8.3,3.6,0,5.4,4.5-2.9,15.5-14.4,18.7-15.6,2-.7,4.5-.5,6.6,0,6.4,1.3,12.5,5.8,16,11.3,2.7,4.2,4,9.5,2.9,14.4-.9,4-3.5,7-6.9,9.2-2.7,1.7-6.1,3.3-9.2,4.1v-.2c1.6-2.6,11.6-15.2,11.4-16.8,0-.5-.8-1.3-1.1-1.7-1.2-1.3-2.7-2.4-4-3.6-2.8-2.7-5.5-6-8.7-8.2-.8-.7-1.6-1.4-2.3-2.2h-.3c-1.5-.6-2.7-.7-4.2.1-2.5,1.3-18,14-18.7,16.1,0,1.5,1.3,2.7,2.3,3.7.9.8,1.9,1.4,2.7,2.2,2.3,2.1,4.3,4.4,6.6,6.4,6.7,5.9,15.8,10.2,24.9,9.8,5.3-.2,10.3-2.2,13.8-6.2,4-4.4,5.6-9.8,5.3-15.7-.6-9.9-6.1-18.6-13.5-25ZM280.1,321c-1.2-.6-2.4-2.1-3.3-3.1,3.1-3.1,15-13.8,18.5-15.1,1.8,0,3.1,1.7,4.4,2.8-1.7,1.2-3.4,2.7-5,4-4.6,3.7-9.2,7.6-13.9,11.2-.2.1-.3.2-.6.2ZM290,330.8c-3.2-2.3-6.2-5.2-8.7-8.3,6.5-5.4,13-10.6,19.7-15.8,2.4,2.1,4.6,4.3,6.9,6.6-2.1,2.1-3.7,4.7-5.5,7.1-3,4.2-6.1,8.4-9.3,12.5-1-.7-2-1.4-3-2.1ZM299.1,335.7c-1.5-.7-2.9-1.4-4.4-2.1,1.5-2.2,3.3-4.3,4.9-6.5l9.3-12.6c.8.7,3,2,3.1,3.1,0,.5-.2,1-.4,1.3-.7,1.2-1.7,2.2-2.5,3.3l-5.9,8.2c-1.1,1.5-2.4,4.1-3.5,5.3h-.5ZM327.9,325.3c0,.3-.1.5-.2.8,0,.3-.2.5-.3.8,0,.3-.2.5-.3.8-.1.3-.2.5-.3.7-.1.2-.2.5-.4.7-.1.2-.3.5-.4.7-.1.2-.3.5-.4.7-.2.2-.3.4-.5.7-.2.2-.3.4-.5.6-.2.2-.4.4-.5.6-.2.2-.4.4-.6.6-.2.2-.4.4-.6.6-.2.2-.4.4-.6.5-.2.2-.4.3-.7.5-.2.2-.4.3-.7.5-.2.1-.5.3-.7.4-6,3.4-12,3.1-18.4,1.4,5.2-2.3,10.5-3.7,14.7-7.7,2.9-3,4.5-7.1,4.6-11.3.1-6.1-2.8-12-6.9-16.3-4.6-4.8-10.9-8.1-17.6-8.2-1.3,0-2.7,0-3.9.6-2.6,1.2-13,10.9-15.7,13.5,0-.8-.2-1.6-.2-2.4-.3-4.9.9-9.9,4.2-13.6,3.5-3.8,8.2-5.1,13.2-5.4.7,0,1.3,0,2,0,.7,0,1.3,0,2,.1.7,0,1.3.2,2,.3.7.1,1.3.3,2,.4,9.3,2.4,17.2,8.9,22.1,17.1,3.7,6.2,5.6,14,3.7,21.2Z"/>
  <path class="st3" d="M309,322.2c.8-1.1,1.8-2.1,2.5-3.3.2-.4.5-.9.4-1.3,0-1.1-2.3-2.4-3.1-3.1l-9.3,12.6c-1.6,2.2-3.4,4.3-4.9,6.5,1.4.8,2.9,1.5,4.4,2.1h.5c1.2-1.2,2.4-3.7,3.5-5.2l5.9-8.2Z"/>
  <path class="st3" d="M299.6,305.5c-1.3-1.1-2.6-2.8-4.4-2.8-3.5,1.3-15.3,12-18.5,15.1,1,1,2.1,2.5,3.3,3.1.2,0,.4,0,.6-.2,4.8-3.6,9.3-7.5,13.9-11.2,1.7-1.4,3.3-2.8,5-4Z"/>
  <path class="st3" d="M307.8,313.3c-2.3-2.2-4.5-4.5-6.9-6.6-6.7,5.2-13.1,10.5-19.7,15.8,2.5,3,5.5,5.9,8.7,8.3,1,.7,2,1.5,3,2.1,3.2-4.1,6.3-8.3,9.3-12.5,1.7-2.4,3.4-5.1,5.5-7.1Z"/>
  <path class="st3" d="M302,287c-.6-.2-1.3-.3-2-.4-.7-.1-1.3-.2-2-.3-.7,0-1.3-.1-2-.1-.7,0-1.3,0-2,0-5,.3-9.7,1.5-13.2,5.4-3.4,3.7-4.5,8.7-4.2,13.6,0,.8.1,1.6.2,2.4,2.7-2.6,13.1-12.3,15.7-13.5,1.2-.6,2.6-.7,3.9-.6,6.7,0,13,3.5,17.6,8.2,4.1,4.3,7.1,10.2,6.9,16.3,0,4.2-1.6,8.3-4.6,11.3-4.2,4-9.5,5.4-14.7,7.7,6.4,1.8,12.4,2.1,18.4-1.4.2-.1.5-.3.7-.4.2-.2.5-.3.7-.5.2-.2.4-.3.7-.5.2-.2.4-.3.6-.5.2-.2.4-.4.6-.6.2-.2.4-.4.6-.6.2-.2.4-.4.5-.6.2-.2.3-.4.5-.6.2-.2.3-.4.5-.7.2-.2.3-.5.4-.7.1-.2.3-.5.4-.7.1-.2.3-.5.4-.7.1-.2.2-.5.3-.7.1-.3.2-.5.3-.8,0-.3.2-.5.3-.8,0-.3.2-.5.2-.8,1.9-7.1,0-14.9-3.7-21.2-4.8-8.2-12.8-14.7-22.1-17.1Z"/>
  <path d="M277.3,264.1c2.2-1,2.8-2.3,4.5-3.3,1.4-.9,3.2-1.3,4.6-2.2,1.7-1,3.1-2.6,4.8-3.7l12-7.4c1.4-.9,2.9-1.6,4.2-2.5,2.3.6,4.6,1.5,7,1.8,7.8,1,15.7-3.1,22.3-6.8,6.2-3.5,12-7.4,17.8-11.6,1.5-1.1,3.4-2.3,4.6-3.8,1.7-2.2,2.8-5.6,3.5-8.2,3.1-11.3.4-24-5.3-33.9-5.7-9.8-15.5-19.1-26.6-22.1-7-1.9-11.9-1.1-18.1,2.5-5.6,3.3-11,6.9-16.4,10.5-3.4,2.2-8.6,5-11.3,7.7-1.8,1.8-3,4-3.6,6.5-1,3.7-1.2,7.4-1.2,11.2-2.1,1.4-4.4,3.1-6.7,4l.2-.3-.3.3-9.8-18.4c.5-1.7,1.1-3.4,1.5-5.1,3.3-.7,14.1-1.6,15.8-4.2.6-1,.5-2.6.5-3.7-2.8-5.6-8.7-10.5-12.4-15.6.2-1.2.3-4,1.3-4.7,2.1-1.4,12.7-5.3,13.1-6.9.5-1.9-.2-4.2-.3-6.2-3-3.8-11.4-6.6-15.6-9.7,0-.9-.5-4-.3-4.5.2-.8,10.4-12.7,11.7-14.1-.6-2-1.2-4.1-2-6-5.2-1.8-10.7-2.8-16.1-3.9,0,0,0-.1,0-.2-.2-1.7-1.5-4-1.6-5.5-.1-1.8,6.7-13.6,7.9-16.8-.8-1.6-2.1-5-3.9-5.6-2.4-.8-12.3,1.8-15.8,1.8-.2-1.5-.5-2.9-.5-4.4,0-3.4,1.1-16.1,2.3-19-1.2-1.5-2.4-3.2-4.1-4.3-4.3,0-10.4,1.3-14.8,1.9-.1-2.6-.4-17.3-1.6-18.4-1.3-1.3-3.3-2.2-4.7-3.3-4.9,1.2-9.9,2.2-14.8,3-.6-1.8-2.3-8.6-2.9-9.7-.3-.5-.7-.7-1.2-1-1.5-.8-3.1-1.3-4.6-2.1-5.6.6-11.4,2.2-16.9,3.8-1-1.1-4.8-4-6.1-4.1-.2,0-.3,0-.5,0-6.7,2.1-13.4,4.5-20.1,6.3-1.6.4-3.3.6-5,1-7.3,2-14.5,4.5-21.7,6.9-2.7.9-5.6,1.5-8.1,2.8-.6.3-.9.7-1.2,1.3-.9,1.9-1,4.5-.7,6.5-2.8.9-17.7,4.7-18.6,5.9-.6.8-.6,2.3-.9,3.2,1.4,3.5,3.3,6.8,4.6,10.4-3.9,1-7.7,2.2-11.5,3.2-1.8.5-3.7.8-5.4,1.5-1,1.7-2.5,4-1.9,6,.8,2.8,6.5,9.8,8.6,12.6,1,1.4,1.8,3,2.9,4.2-4,1.1-8,2.1-12,3.2-2.2.6-4.6,1-6.6,2-.5.2-.8.5-1.1,1-1.3,2.2-.6,4.8-.8,7.2,2.2,1.8,12.3,9.8,13.2,11.3.8,1.3.9,3.1,1.4,4.6-6,2.4-12.4,3.8-18.3,6.5-.6,1.8-1.3,5.5-.5,7.3.3.7,1.1,1.2,1.7,1.6,1.7,1,3.8,1.7,5.6,2.6,2.8,1.3,5.4,2.7,7.9,4.3.4,3.2.8,6.3.5,9.5-2.8,1.2-5.6,2.7-8.4,4-1.4.7-2.9,1.2-4.2,2-.5.3-.9.7-1.2,1.3-.7,1.6-.1,5,.6,6.5.3.5.6,1,1.2,1.2,2.6.8,15.5,1.4,16.7,3.2,1,1.5,1,4.4,1.3,6.2-1.4,1.1-2.8,2.2-4.3,3.3-2.2,1.6-5,3.2-6.9,5.2-.5.5-.8,1-.9,1.6-.3,1.8.8,5.8,2,7.3.4.6.7.8,1.4.8,3.3.3,6.9-.5,10.2-.9,2.8-.3,5.7-.4,8.5-.3.6,1.2,1.6,2.6,1.4,4.1-1.2,1.9-4.6,4.7-6.5,6.1-12.5-7.4-29.6-11.4-43.8-7.8-10.3,2.7-18.7,9.5-24,18.6-4.5,7.6-8.3,15.7-12.7,23.4.7,6.4,1,12.8,1.6,19.2l.6,6.9c0,.8.3,1.7.3,2.4,0,.3-.1.6-.2.9,0,.3,0,.5.1.8.7,1,1.9,2,2.7,2.9,2.6,2.6,5.3,5.2,7.9,7.8,5.9,5.8,11.5,12.2,17.9,17.5,1.1.9,2.7,2.4,4.2,2.6,4.1.7,8.3,1,12.4,1.5,8.1,1,16.3,2.2,24.5,2.2,2.1-1.5,4-3.5,5.9-5.3,6.6-6.2,13.2-13,18.8-20.1,1.8-2.3,3.4-4.8,5.2-7.2,1.9-2.7,4.1-5.4,5.7-8.3,1.1-2,2-4.2,2.4-6.5.6-3.5.7-7.1.3-10.7,1.3-.1,2.6-.3,4-.2.5,2.3.8,4.6.5,7-.2,1.3-1.1,3.3-.8,4.5.2.8.6,1.4,1.4,1.8,3.4,2,12,1.3,16.1,1.8,0,1.9-.9,6.3.4,7.8,1.8,2,13.2,2.2,16.2,2.3-1,.9-4.1,4.3-5,4.6-1.3.4-2.4-.2-3.8.6-3.3,1.9-6.1,5.2-8.7,7.9-.8,0-1.7-.2-2.5-.2-2.8,1.8-5,3.5-7,6.3-2.4-.5-4.3-.5-6.4.9-2.6,1.7-3.8,4.2-5.1,6.9-3.1-.1-5.8-.6-8.3,1.7-1.2,1.1-2,2.6-2.6,4.1-2.4.9-4.5,1.7-6.5,3.3-1.6-.3-3.5-.1-4.9.8-1.4.9-2,2.4-2.4,3.9-2.1,1.5-4.8,3.1-6.6,4.9-3.2.6-6.2,1.6-8.2,4.4-3,4.2-2.6,10.7-1.7,15.6.9,4.6,2.7,9,4.8,13.2,4.3,7.2,10.8,16,19.4,18.3,5,1.3,7.7-.3,11.9-2.8.9-.5,1.8-1.2,2.8-1.5,2.4-.9,4.7-.6,7-2,2.6-1.6,3.3-4.6,5.6-6.1,1.8-1.2,4-1.5,5.8-2.5,2.6-1.4,3.9-3.8,6.1-5.2,2.2-1.4,4.8-1.7,7-3.1,1.9-1.2,2.9-3.1,4.7-4.4,1.8-1.2,4.1-1.5,5.9-2.7,2.4-1.6,4.4-3.9,6.7-5.5,2.1-1.4,4.6-2,6.8-3.4,2.4-1.5,4.4-3.9,6.8-5.3,1.7-1,3.6-1.3,5.3-2.4,2.8-1.8,5.1-4.1,7.7-5.9,2.5-1.7,5.5-2.7,8-4.3,2.1-1.3,3.8-3.2,5.9-4.6,1.2-.8,2.7-1.3,3.9-2.1,3.1-1.8,5.9-4.1,8.9-6,2.4-1.5,4.8-3.1,7.2-4.5,1.4-.9,2.9-1.5,4.3-2.5.7-.5,1.3-1.1,1.8-1.8.7-.2,1.4-.3,2-.6,1.2-.5,8.3-4.9,9.3-5.7.6-.6,1-1.3,1.5-2,.9-.2,1.9-.4,2.7-.8,1.4-.7,2.7-1.7,4.1-2.5,3.5-2.1,7-4.3,10.4-6.5,1.7-1.1,3.3-2.4,5.2-3.2ZM277,262.5h-.4c0,0-.2-.1-.2-.1.3-1.7,1.3-3.3,1.7-5,2.5-9.6.2-21.2-4.9-29.6-3.6-6-8.8-11.1-15.8-12.8,1.2-.8,2.3-1.7,3.7-2.1.8,0,1.6,0,2.4.3,6.7,1.8,11.2,7.9,14.5,13.7,4.9,8.5,7.1,19.1,4.4,28.8-.9,3.3-2.5,5.2-5.4,6.9ZM261.8,210.9c-1.5.9-3.1,1.7-4.5,2.6,0,0,0,0,0,0,0,0,0,0,0,0-.5-1-1-1.9-1.4-2.9l1.8-3.6s0,0,0,0h0c2.8.2,5.6.4,8.4.4-1.5,1.1-2.8,2.3-4.2,3.5ZM267.3,208.2c.7-.7,1.7-1.2,2.4-1.8l.5,1.5c.9,3.1,1.6,6.3,2.6,9.4l-.2-.2c-.6-.6-.9-1-1.1-1.7-.2-.5-.2-1-.7-1.3l-.3.6c-.9,0-2.2-1.2-3.1-1.6-1.3-.6-2.8-1.1-4.2-1.5,1.3-1.2,2.5-2.4,4.1-3.4ZM290.5,249.9c-1.3,5.4-2.9,5.7-7.3,8.5l.5-1.4c3.2-9.2,1.5-15-.4-23.9-.4-1.9-.5-3.9-.8-5.7-.4-2.2-1.2-4.4-1.8-6.5,1.8,1.3,3,2.9,4.4,4.6-1.3-3.1-3.2-4.5-4.9-7.1-1-1.6-1.6-3.7-2.3-5.5,2.4,1.1,6.4,6.4,7.8,8.7.2.3.3.5.5.8.2.3.3.5.5.8.2.3.3.5.4.8.1.3.3.5.4.8.1.3.3.6.4.8.1.3.3.6.4.8.1.3.2.6.4.9.1.3.2.6.3.9.1.3.2.6.3.9.1.3.2.6.3.9,0,.3.2.6.3.9,0,.3.2.6.3.9,0,.3.2.6.2.9,0,.3.1.6.2.9,0,.3.1.6.2.9,0,.3.1.6.2.9,0,.3,0,.6.1.9,0,.3,0,.6.1.9,0,.3,0,.6,0,.9,0,.3,0,.6,0,.9,0,.3,0,.6,0,.9,0,.3,0,.6,0,.9,0,.3,0,.6,0,.9,0,.3,0,.6,0,.9,0,.3,0,.6,0,.9,0,.3,0,.6,0,.9,0,.3,0,.6,0,.9,0,.3,0,.6-.1.9,0,.3,0,.6-.1.9,0,.3-.1.6-.2.9,0,.3-.1.6-.2.9,0,.3-.1.6-.2.9ZM293.4,251.9c-.8.6-1.7,1.1-2.6,1.5,4.5-12.3,1.6-26.9-6.8-36.8-2-2.4-6.2-5.2-7.5-7.8-.4-.8-.6-1.9-.8-2.7.3,0,.6,0,.9,0,4.1.4,8.8,4.8,11.3,7.8,6.4,7.7,9.8,18.9,8.8,28.9-.3,3-1,7.1-3.4,9.1ZM306.6,213.3c-3.7-7.1-10-14-17.8-16.5,1.1-.6,2.1-1,3.2-1.3.5,0,1-.1,1.5-.1,4.6,0,9.9,3.9,12.9,7,6,6.3,10.3,15.3,10,24.2-.2,5.9-1.7,10.6-6.1,14.7l-1.4,1.2c.2-.6.4-1.2.6-1.8,3-9,1.3-19.1-3-27.4ZM318.1,223.6c-.6-8.6-5.2-17.8-11.7-23.4-3.4-2.9-8.9-6.5-13.6-6-1.4.1-2.6,1-3.9,1.1,0-.2,0-.4,0-.6.8-1.6,3.6-2.8,5.2-3.2,1.4-.1,2.7-.1,4.1.1,6.8,1.2,12.8,6.8,16.6,12.4,4.6,6.7,8.2,15.7,6.6,23.9-.7,3.4-2.1,6.2-5,8.1l.6-1.9c.9-3.3,1.3-7,1-10.4ZM296.4,175.1c5.9-3.9,17.6-12.7,24.5-13.8,4.2-.4,8.1.3,12,1.8-2.6,1.6-20.2,13.4-20.6,15,2.2,0,16.5-10.6,19.3-12.5.7-.5,1.4-1.2,2.1-1.6.4-.2.7-.2,1-.1.4,0,.3,0,.5.3-1.5,1.5-3.8,2.8-5.6,4.1-4.8,3.4-9.6,6.6-14.1,10.4,4.6-1.5,11.3-6.8,15.4-9.6,2-1.3,4.2-2.5,5.9-4.2.8.4,1.6.9,2.4,1.3.8.5,1.5,1,2.3,1.5.7.5,1.5,1.1,2.2,1.6.7.6,1.4,1.1,2.1,1.8.7.6,1.3,1.2,2,1.9.6.6,1.2,1.3,1.8,2,.6.7,1.2,1.4,1.7,2.1.6.7,1.1,1.5,1.6,2.2-3.3,1.7-6.4,4.1-9.5,6.2-3.9,2.6-8.1,5-11.8,7.8-.4.3-.9.6-1,1.1,0,.2,0,.2.1.5.4.1.7.2,1.1,0,3-1,13.1-8.2,16.3-10.4,1.7-1.2,4.1-3.4,6.1-3.8.4.2.4.3.6.7-.4,1.4-20.4,12.8-21.7,15.5,1.9.4,19.8-11.9,22.4-13.5,1.2.7,2.8,5.2,3.3,6.5,3.6,9.7,4.7,21.7.2,31.3-3.1,6.7-26.8,19.9-34,22.4,6-4.7,7.3-9.9,8.8-17,1.2-.5,2.3-1.1,3.4-1.8l9.9-6.2c1.6-1,3.6-2,5.1-3.3.4-.4.6-.6.8-1.2l-.2-.2c-2.5.2-15.6,9.3-18.9,11.2.4-7.9-1.8-15.7-5.5-22.6-4.4-8.3-10.7-15.1-18.9-19.6-2.2-1.2-4.3-2.3-6.7-3-5.2-1.5-10.3-1.3-15.1,1.3,2.5-2.4,6.1-4.2,9-6.1ZM285.3,185.6c2.4-2.9,5.7-4.1,9.4-4.5.7,0,1.4,0,2.1,0,.7,0,1.4,0,2.1.2.7,0,1.4.2,2.1.3.7.1,1.4.3,2,.5,9.8,3,18.6,11.7,23.2,20.6,4.8,9.2,7.5,19.5,4.2,29.8-1.5,4.8-4.5,8.7-9,11-4,2.1-7.7,1.5-11.9.2,2.5-2.1,3.9-2.9,5.7-5.8.6-.3,1.3-.4,2-.6,2.3-.9,4-3.3,4.9-5.5,2.7-6.3,1.5-13.9-1-20-3.4-8.6-9.8-17.2-18.6-20.9-3.4-1.5-7.5-2.2-11-.7-2.5,1.1-4.3,3.2-5.3,5.7-1.6.3-3,.7-4.5,1.5.2-4.4.5-8.4,3.4-11.9ZM285.4,197.9c0,0,.1,0,.2,0,5.1.2,9.1,3.2,12.5,6.7,7.2,7.5,11.5,17.9,11.3,28.3,0,2.6-.5,6.9-1.7,9.2-.3.6-1,1.2-1.4,1.7-.6.6-2,1.7-2.9,1.7v-.4c2.1-5.4,2.6-11.1,1.7-16.8-1.6-9.5-6.7-19.4-14.7-25.1-3.3-2.3-6.2-3.2-10.2-2.5,1.6-1.5,3.1-2.3,5.2-2.9ZM279.7,201.2c2.3.2,4.5.5,6.7,1.5,7.3,3.3,12.5,11.2,15.2,18.5,3,7.9,3.5,17.2-.1,25.1-1.4,1.1-3,2-4.6,3,2-4.9,2.4-9.6,1.7-14.9-1.3-9.6-6-20-13.9-26-2.5-1.9-5.8-3.7-9-3.3h-.3c-.3-.2-.6-.4-.6-.8,1.4-1.3,3.2-2.2,4.9-3.1ZM271.6,205.7c.1-.6.6-.7,1-1,.4,0,.6.2.9.4,1,.9,8,22.2,7.8,24.3l-.4-.5c-1.2-2.2-2.4-4.4-3.9-6.5-.9-1.2-2.1-2.3-2.8-3.6-.4-.7.3-.6.3-1.3,0-.6-.5-1.7-.7-2.3-.7-2.1-2.7-7.6-2.2-9.6ZM240.5,47.8c.3,0,.5,0,.7,0-.1.1-9.1,5.9-9.8,6.3l-.5-.4c-.6-1.2-.4-3-.5-4.3,3.4-.5,6.8-1.1,10.1-1.5ZM220.4,28.5c.2,0,.4,0,.7,0v.2c-.3,0-.5.4-.7.6h.2c0,.2-6.9,9.5-7.7,10.6-.4-.6-.7-1.2-1-1.8-.8-2.4-1.6-4.8-2.4-7.2,3.6-.6,7.2-1.6,10.8-2.3ZM197.3,18.8c.5,0,.3-.1.7,0-.6,2.5-1.6,4.9-2.4,7.3-1,2.9-1.9,5.9-2.9,8.8-1.1-1.3-2-2.8-2.9-4.2-2-3-3.9-5.9-5.5-9.2,4.2-1.2,8.7-2,13-2.9ZM165,21.5c3.3-.9,6.5-2,9.8-3h.2c0,.7-.7,1.4-1,1.9-3.5,1.4-12.5,3.8-16.1,4.3-.4-.3-.7-.4-.8-.9,2.6-.9,5.3-1.5,8-2.3ZM171.2,37.7c-2.1-1.3-3.8-3.5-5.5-5.2-2-2-4.1-4.1-6.2-6.1,4.6-1,9.1-2.6,13.6-3.7h.1c.5,1.3-1.6,13.1-2.1,15ZM151.8,49.7c.6-.3,1-.6,1.5-1,.8-2.6,0-6.5-.2-9.2-.2-2.4-.7-7.9.3-9.9.7-1.3,2-2.5,3-3.6,2.8,1.8,7.4,6.9,10,9.5,1.3,1.3,2.6,2.8,4.2,3.7.6.3,1,.5,1.6.3,2.1-2.2,2.6-14.1,3.4-17.7.3-1.4,1.2-2.7,1.6-4.1,1.6.4,3.5,1.9,4.6,3.1,1.1,1.3,1.8,3,2.6,4.4,1.9,3.3,3.9,6.9,6.2,10,.7,1,1.4,1.6,2.6,1.8,1.6-1,6.1-15.9,7.2-18.6,1.4.5,2.8,1.2,4.2,1.8,1.6,4.2,2.7,8.7,4,13,.7,2.5,1.4,5.2,2.7,7.4.5.8,1.1,1.3,1.9,1.9,3.7-4.6,7.4-9.3,10.5-14.3l4.1,2.6c0,3.1.6,22.7,1.7,24.2.6.8,2,.9,2.8,1.1,3.8-3.2,8.2-5.6,12.3-8.4.7.8,1.4,1.6,2.2,2.4-.7,4.1-.9,8.4-1.3,12.6-.3,2.9-1,5.7-.8,8.6.1,1.5.8,3.2,2,4.1.2.2.3.3.7.3,1.8-.1,3.8-.8,5.6-1.1,3.2-.5,6.5-.8,9.8-1.3.8,1.2,1.5,2.6,2.2,3.9-1.1,2.6-2.3,5.3-3.7,7.8-1.5,3-3.5,5.7-4.2,9,.8,2.3,1.2,4.7,2.1,7,5.3,1.8,11.2,2,16.5,3.9.3,1.3.8,2.5,1.2,3.7-3.6,4.9-7.9,9.3-11.8,13.9.2,2.2.3,4.6.9,6.7,3.2,2.4,8.1,4.7,11.7,6.8,1.3.8,2.7,1.5,3.8,2.5.2,1.2.6,3,.3,4.2-.3,1.1-11.7,5.8-13.5,7l-.2.2c-.6,2.1-.8,4.2-1,6.3,1.3,1.9,3,3.6,4.5,5.3,1.8,2,3.5,4,5.2,6.1.9,1.1,1.9,2.2,2.4,3.5.3.8.6,1.8.2,2.6-.2.4-.6.7-1,.9-2.3,1-5.5,1.2-8,1.6-2.1.4-4.1.8-6.2,1.4-1.4,2-2,4.5-2.5,6.9,2.9,5.6,8.4,12.8,9.7,18.8-.8.8-1.5,1.6-2.3,2.4-2.5-.1-9.9-.9-11.9-.3-1.2.4-2.6,4.1-3.3,5.3.6,1.5,1.5,2.7,2,4.2-3.5,1-5,2.2-7.7,4.5-3.4.5-4.3,1-6.4,3.7-2.9.9-4.6,2.4-6.6,4.5h-2.6c-1.1,1.1-3.3,2.4-3.7,3.8,0,.3-.1.5-.3.7-.6.7-3.6,2.8-4.7,3.7-7-.7-5.9,1.5-10.6,5.2-1.4,1.1-3.3,1.6-4.7,2.8-1.2-.2-2.4-.3-3.6-.5-2.3,2.1-4.5,4.2-6.4,6.6-.3,0-.5,0-.8,0-2.4,0-4.8,2.8-6.4,4.4l-2.2-.3c-1.1.5-2.2,1.2-3.3,1.6-.6.2-1.7.3-2.1.7-.4.4-.4,2.1-.5,2.6-.8.6-2,1.8-2.9,2-.3,0-.4-.1-.6-.3-.4-.8-.4-1.7-.5-2.5-.3-3.6-.5-7.5-1.3-11-.2-1.1-.6-2.7-1.7-3.3-.8-.5-1.6.4-2.2.9-5.4,5.1-9.3,7.5-16.5,9.5-.2-6.1,2.9-15.8,1.3-21.4-.3-1.2-1.1-2.3-1.7-3.3-2.2,1-4.2,2.6-6.3,3.8-3.8,2.2-7.8,3.8-11.9,5.4,1.4-5.9,2.8-12.4,3.5-18.4.3-2.2-.2-5.3.3-7.3,0-.4.9-.9,1.2-1.2,0-.4-.2-.8-.6-1.1-.4-.3-.7-.3-1.1-.2-.9.2-1.7.7-2.6,1-5.5,1.6-11.7,3.6-17.5,3.9h-.3c-.1-.7-.2-1.4-.2-2.1,3.1-5.7,7.5-10.7,10.3-16.5-.4-2.1-1.3-4.3-1.6-6.4,0-.6.6-.9.4-1.6-2.1-1.4-13.2-1.2-16.4-2.3-.4-.5-1.4-5.9-1.7-7.1,1.8-1.3,3.5-2.6,5.1-4.1,1.7-1.4,3.2-2.9,4.8-4.5-.6-2-1.7-5.3-1.1-7.3.1-.5.2-.8.2-1.3h-.2c0,.1,0-.1,0-.1-2.8-1.3-8.6-2.5-11.9-3.4-1.4-.4-2.9-.7-4.1-1.4,0,0-.1,0-.2,0,0-1.4.5-3.8,0-5-.2-.4,0,0-.2-.6,3.8-3.2,9.8-5.3,13.9-8.2,0,0,.1,0,.2-.1-.2-3-1.1-6-.7-9.1-4.9-2.5-9.6-5.5-14.4-8.3.2-2.2.3-4.3.4-6.5,4.8-1.7,9.9-2.4,14.6-4.3,0-2.6.3-5.5.6-8.1-3.3-4.9-8.8-8.5-12.5-13.1.8-2.6,1.8-4.6,3.3-6.9,3,.2,12.8,2,14.9.8.3-.2.5-.6.5-.9.6-3.4-7.3-18.1-9.6-21.4,1.3-1.7,2.3-3.6,3.6-5.3,2,.8,14.5,5.1,15.9,4.9.5,0,.9-.2,1.2-.6.2-.3.2-.8.1-1.1-.2-1.5-.7-3.1-1-4.6-.9-4.4-2-8.9-2.7-13.3-.5-3.1,1.6-3.6,3.2-5.9,2.2,1.8,4.8,3.2,7.2,4.8,2.9,1.8,5.7,3.8,8.6,5.4ZM195.3,254.6c0-1.2,1.8-2.5,2.7-3.3h.1c-.2,1.6-.2,3.2-.3,4.7l-1.4-.6c-.4-.1-.8-.2-1-.5-.1-.1-.1-.2-.1-.4ZM194.6,254.4c-.4.4-.6.3-1.2.3-.2-.3-.3-.2-.3-.6,1-1,2.3-1.8,3.4-2.7.1.1,0,0,.1.4-.7.9-1.3,1.9-2.1,2.7ZM178.9,261.7l-.2.5c-.1.1-.3.3-.5.4-.4.2-.6.2-1,.1-.4-.5-.3-1.3-.4-1.9.7.2,1.6.4,2,1ZM156.7,237.2c-6.3,2.6-13.2,4.3-20.1,4.7-.3-.1-.2,0-.4-.3.7-.9,4.8-1.6,6.1-2.2,4.8-1.9,9.5-4.5,13.9-7.1.8,1.2.5,3.6.4,5ZM139.1,217.9c.2,0,.4,0,.6,0,.4,1,0,3-.1,4.1-3.1,1.1-11.6,3.5-14.7,2.7-.5-.1-.5-.4-.8-.8-.7-1.1-1.4-2.1-2.2-3.2,5.9,0,11.4-1.4,17.1-2.9ZM121.3,219.4c-.6-.6-1.1-1.2-1.6-1.8,6.6-.6,13.4-2.6,19.8-4.2h.4c.3.6,0,2.1,0,2.8-4.4,1.3-14.5,4.2-18.7,3.2ZM104.2,117.6c.5-.8,1.1-1.5,1.7-2.3,2.1-.1,4.3-.4,6.4-.6,1-.2,2.1,0,3.1-.1,0,0,0,0,0,0-2.6,1-5.4,1.5-8.1,2.2l-3,.7ZM115.3,62.6l-.3.2-.2-.2c.3-1.1.9-2.2,1.5-3.2l.8.2v.3c-.3,1-1.1,1.9-1.8,2.7ZM151.1,39.4c.1,2.1.4,4.2.4,6.3,0,.6,0,1.1-.2,1.7h-.3c-4.9-3.9-10.4-6.8-15.4-10.7l-3.4.9c-1.8.4-8.7,2.7-10,2.3v-.3c.3-.4.6-.8,1.1-1,2.7-1,5.9-1.7,8.7-2.6l18.2-5.4c.3,0,.1,0,.6,0,.2.6.2,1.3.2,2,0,2.2,0,4.5.2,6.7ZM122.6,35.2c3-1.5,6.7-2.2,10-3.2,3.7-1.1,7.3-2.2,10.9-3.3,2.2-.7,4.8-1.1,6.8-2.3.1,0,.3.1.4.2.1.4.1.6,0,1-.3.5-1,1.1-1.5,1.3-2.3,1.1-7.4,2.2-10.1,3.1-5.5,1.6-11,3.5-16.5,5.2h-.3c-.1-.6.2-1.4.4-1.9ZM102.9,49.9l-.2-.5c0-.7.4-1.2.7-1.8,6.8-2.2,13.8-4,20.7-5.9,2.9-.8,5.8-1.4,8.6-2.3h.2s0,.3,0,.3c-.8,1.2-3.3,2.5-4.7,3-2,.8-4.3,1.1-6.3,1.7-6.3,1.8-12.6,3.5-18.8,5.6h-.3ZM103.4,51.7c3.3-1.1,6.7-1.9,10.1-2.9,5.6-1.6,11.2-3.3,16.8-4.9,1,1.3,3.8,16.7,4.3,19.3-6.3-1.2-12.4-4.1-18.6-6l-4.1,1.2c-1.6.5-3.2.9-4.8,1.3-1.1-2.8-2.5-5.4-3.8-8.1ZM91.2,65.8c1.9-.5,3.8-.8,5.7-1.4,5.6-1.6,11.1-3.3,16.7-4.8.1,0,.2.1.3.2v.3c-1.5,1.6-20.4,5.7-23.7,6.3h-.4c.4-.4.9-.5,1.4-.7ZM88.2,71.1c-.2-.6,0-1.7.4-2.2,0-.1.4-.5.5-.6.4-.2,6.1-1.3,6.9-1.5,5.8-1.4,11.6-2.9,17.3-4.5l.3.3c0,.6.2,1.1,0,1.7-3.1,1.4-7.8,2.4-11.2,3.3-4.6,1.3-9.2,2.8-13.9,3.9-.1-.2-.2-.2-.3-.4ZM93.7,78.6c-1.4-1.9-2.7-4-4.3-5.8,8-1.8,15.9-4.1,23.8-6.4.3,0,.5,0,.8,0,2.5,2.2,8.8,16.6,9.6,20.1-4.5-.3-10.2-.5-14.5-1.6-2.4.9-5.1,1.3-7.6,1.9-.6.1-1.3.3-1.9.5-1.8-3-3.9-5.9-5.9-8.8ZM106,87.4v.2c0,.2,0,.2,0,.4-.5.7-1.6,1.1-2.4,1.4-4,1.5-8.4,2.3-12.5,3.3-3.6.9-7.3,2.2-11,2.6-.2-.2-.2-.3-.2-.6.8-.8,23.5-6.8,26.2-7.3ZM79.3,99.7c-.3-.8-.1-1.7.2-2.4.4-.3.8-.5,1.3-.6,1.3-.3,2.7-.5,4.1-.8,2.3-.6,4.6-1.2,7-1.8,4.1-1,8.2-1.9,12.3-3.2h.4c.2.7,0,1.5,0,2.2-3.1,1.1-6.3,1.8-9.5,2.6-5.1,1.3-10.3,2.5-15.3,4h-.3ZM91.8,111.4c-1.8-2.8-8.8-7.6-11.8-10.1,3.3-.6,6.6-1.5,9.9-2.4,5-1.3,10.1-2.5,15.1-3.9,1.6.8,10.2,10.3,12,12.3-.5,1.9-.6,3.8-.6,5.7-5.2.3-10.2.4-15.3,1.7-1.7.4-6.1,2.1-7.5,1.8l-.2-.5c-.3-1.7-.7-3.3-1.7-4.7ZM103,116h.2c.1.5-.7,1.8-.9,2.3-8.6,3.2-18,4.1-26.6,7-.2,0,0,0-.4-.1,1.4-1.6,23.8-8.1,27.7-9.2ZM74.9,129.2c-.3-.6-.5-1.2-.1-1.9.2-.3.5-.4.8-.5,2.2-.6,4.6-1,6.8-1.6,6.1-1.4,12.3-2.8,18.3-4.4h.4c.3.6-.2,3.4-.2,4.4v.3c-3.3.9-6.7,1.6-10,2.3-5.1,1.2-10.3,2.4-15.5,3.1,0-.7-.3-1.2-.6-1.8ZM78.4,132.4c8-1.3,15.8-3.2,23.7-5.2,1.9,1.1,9.8,5.3,10.7,7.1.7,1.5-.1,4,1.1,5.5.2.3.3.2.7.3v-.4c.1,0-.1-.4-.1-.4l.4-.2c.2.6.5.8.9,1.1v-.2c-.4-1.3-2.2-3.9-1.8-5.1.4-.2.5-.2,1,0,.3.1.7.4.8.7.4,1.3.1,3.5.2,4.9v.4c-2.7,1.6-11.9,3.7-15.3,4.6-3.1.8-6.1,1.8-9.1,2.8.1-3.1-.7-6.2-1.3-9.2-.3-.2-.6-.5-.9-.8-2.8-2.9-7.5-3.7-10.8-5.8ZM79.9,155.5c1.9-1.2,3.9-2.1,5.9-3,2.7-1.2,5.3-2.4,8-3.3,7.4-2.4,15.2-3.7,22.3-6.8l-.2.4c-1.3.9-2.8,1.5-4.2,2.3-2.6,1.6-5.3,3.5-8.2,4.7-3.3,1.4-7.2,1.9-10.7,2.7-4.4,1-8.8,2.1-13.1,3.3v-.3ZM77.6,162c-.7-.9-.3-3-.3-4.1,1.9-.5,3.9-.8,5.8-1.3l19.2-4.4h.4c.4,1.4-.1,3.4,0,4.9-6,1.6-12.3,2.2-18.4,3.4-2.1.4-4.4.7-6.5,1.5h-.3ZM81.5,162.9c7.1-1.6,14.6-2.7,21.8-3.5,2.8-.4,11.9,2.7,15,3.7.3,2.2.5,4.3.9,6.5-1.5.1-3.1.4-4.6.6-3.3.4-6.6.9-9.8,1.4-2,.3-4.3.9-6.3.8-.3,0-.6,0-.8,0-1.7-.4-1.5-5.2-2.7-6.5-1.7-1.9-10.8-2.7-13.5-2.9ZM86.2,181.9c1.4-1.1,2.9-2,4.3-3.1,1.7-1.2,3.5-3,5.3-4,3.4-1.7,7.8-1.8,11.5-2.3l11.9-1.8h.3s0,.3,0,.3c-1.3,1.4-6.8,6-8.4,6.8-1.9.9-6.9,1.3-9.2,1.7l-15.5,2.7h-.4s0-.3,0-.3ZM86.3,189.6c-1.1-1.5-1.4-3.9-1.6-5.7,8.5-.9,16.7-2.7,25.1-3.9h.2c.6.7,1.3,5,1.4,6.1-7.2-.1-18,1.7-25.1,3.5ZM106,189.3c-.3-.3-.5-.5-.6-.9.5-.3,1.2-.3,1.8-.3.2,0,.4,0,.6,0,2.9-.2,15.2,1.1,18.3,1.8.8.2,1.5.4,2.1.9v.4c-1,.7-2.2.8-3.3.9-2.7.5-5.4.9-8.1,1.3-2.7.3-5.4.5-8.2.7-1-1.5-1.3-3.4-2.6-4.7ZM108.3,195.1c6.4,0,12.7-1.1,19-2.2h.4c.8.3,1.5,3.2,1.9,4.1-5.8,2.1-17.3,2.7-23.8,2.9h-2.4c1.6-1.6,3.6-2.8,4.9-4.8ZM101.8,201.6c1.9-.8,6.8-.4,9.1-.5,5.4-.3,10.8-1.1,16.2-2.1.2,0,.5,0,.7,0,.2,1-8,11.5-8.8,14.8-.2.8,0,1.9,0,2.7-2.7-2.7-5.3-5.4-8.2-7.8-3-2.4-6.1-4.5-9.2-6.8v-.3ZM21.3,235.3c.4-1.7,1.7-3.5,2.5-5,2.3-4.5,4.6-9.1,7.1-13.4.5.5,0,3-.1,3.7-.7,6.7,1.8,13.7,3.9,19.9-1.1,1.5-1.8,3.4-2.7,5.1-2.7,4.8-5.4,9.7-8,14.6l-.9,1.6c-.5-3.3-2.5-24.1-1.9-26.4ZM53.6,293.9c-2.6-1.7-4.8-4.1-7.1-6.2-3.6-3.5-7.1-7-10.6-10.5-4.1-4.2-8.2-8.5-12.5-12.6,1.7-2.4,2.9-5,4.2-7.6,1.9-3.7,4-7.3,6.1-10.9,1.4,2,2.6,4.2,4.1,6.3,3.6,5.2,8.4,10.6,13.7,14.1-2.5-3.5-5.7-6.4-8.4-9.8-3.2-3.8-5.8-7.9-8.6-11.9.3-.8.7-1.6,1.1-2.4.7.7,4.2,6.8,5.2,8.3,7.1,10.3,15.6,17.5,26.9,22.9-3,3.7-5.6,7.9-8.3,11.8-1.9,2.8-4.2,5.5-5.8,8.5ZM94.6,293c-1.3,1.7-2.6,3.4-4,5.1-3.5,0-7.2-.4-10.7-.8-8.2-.8-16.3-2-24.5-2.9,1.5-2.6,3.3-4.9,5-7.3,2.9-4.3,5.8-8.6,9-12.7,2,.3,5.3,1.9,7.6,2.5,10.7,2.6,22.7,3,33-1.4-1.9,2.3-4.2,4.3-6.3,6.5-3.2,3.5-6.1,7.3-9.1,11ZM108.6,280.4c-3.4,3.7-6.7,7.4-10.5,10.7h0c1-2.5,10.7-13.2,12.9-15.3,1.3-1.3,2.8-2.3,4.4-3.3v.2c-1.9,2.7-4.4,5.2-6.7,7.7ZM127.9,249.7c-.7,6.3-3.2,10.6-7.1,15.5-6.5,8.1-14.5,10.6-24.6,11.7,0,0-.2,0-.2,0-14.5,1.2-30.3-4.1-41.5-13.5-11.2-9.4-20.5-23.6-21.7-38.4-.6-7.1.7-13.5,5.4-19.1,6.8-8,16-11.7,26.3-12.6,9.9-.6,21.2,2.2,30.1,6.6,4.8,2.4,9.4,5.4,13.5,8.7,11.9,9.4,18.2,19.3,19.9,34.6.2,2.1.1,4.3,0,6.4ZM129.4,239.9l-.4-2.8c-.6-3.9-2.2-7.5-3.8-11,4.8,0,9.3-1.1,13.8-2.6.6,1.2-2.2,13.4-2.5,15.6-2.3.5-4.7.7-7.1.8ZM147.7,254.5c-3.5,0-7.3,0-10.7-.7-.7-.2-1.3-.5-1.9-.8,1.3-3.2,1.3-6.9,1.2-10.3,7.2,0,13.3-1.2,20-3.9h.4c.6,1.4-1.5,13.3-1.7,15.9-2.4,0-4.8-.1-7.2-.2ZM155,264c-.6,0-1.4-.1-1.9-.6-1.3-1.3-.8-5-.8-6.8,1.4,0,2.7-.1,4.1-.3,6.8-1,14.5-5.2,18.7-10.7.8.9,1.3,11.6,1.6,13.6-1.1.8-1.6,1.1-1.8,2.5v.3c0,0-.3.1-.3.1-.4,0-.8-.2-1.1-.2-1,0-3.3,2.3-4.1,3-4.8-.5-9.6-.5-14.4-1ZM137.2,287.4c.8-.4,1.5-.3,2.4,0,.2.3.3.4.2.8-.2.8-.9,1.8-1.3,2.5-.8-.2-1.6-.3-2.3-.5.3-.8.8-1.7.9-2.5-.2,0-.3.1-.5.2-.9.4-1.1,1.5-1.5,2.4-1,.1-1.9,0-2.9,0,1.6-1.9,2.5-2.4,5-3ZM128.5,295.3c.4,0,.6,0,1,.3.2.7-2.4,2.5-3,3.7v.2c-.1,0-.4,0-.4,0-.6,0-1.2-.2-1.8-.3,0-.3.2-.7.3-1,.8-1.5,2.3-2.4,3.9-2.9ZM120.2,298.3c.5-1.4,2.6-2.4,3.9-2.8.4,0,.6,0,1,0,0,.6-1.2,2.1-1.2,3.2,0,.1,0,.2,0,.3-.3.3-1.6.1-2,.1-.4,0-.8,0-1.2,0-.3,0-.3-.1-.5-.4,0-.2,0-.3,0-.5ZM108.9,304.1c.4,0,.7,0,1,.1,0,.4,0,.7-.2,1-.6.9-1.3,1.4-2.3,1.6-.4,0-.6,0-1-.1v-.4c.4-1,1.5-1.7,2.5-2.3ZM121.5,359.4c-1.3,1.9-2.8,2.6-4.9,3-3.8.1-6.6-.7-9.8-2.9-8.9-6-15.6-17.5-17.5-27.9-.8-4.1-1.1-10,1.5-13.5,1.2-1.7,2.9-2.6,4.9-2.9,3.6.3,6.6,1.3,9.6,3.3,8.8,5.7,15.3,16.3,17.4,26.5.9,4.4,1.4,10.5-1.2,14.5ZM124.2,358.8h-.2c2.2-7.2.7-15.5-2.2-22.2-3.2-7.7-9.5-16.3-16.8-20.4-1.9-1-3.9-1.5-5.8-2.3h-.3c1.9-.4,5.2.9,7,1.7,8.5,4,15.2,13.9,18.3,22.5,2.3,6.2,3.4,14.2.4,20.4l-.4.4ZM127.6,357.5c1.8-2.7,2.3-5.8,2.9-8.9.1-.9.4-2,.1-2.9h-.3c-.2.3-.2.1-.2.5-.3,4.5-1.5,8.5-4.3,12.1.4-.9.9-1.9,1.1-2.9,2.2-8-.2-17-4.2-24.1-3.6-6.3-8.6-13.3-15.1-16.7-1.9-1-4.1-1.6-6.1-2.2,2.6-.3,5.7.3,8.2.8,6.4,1.3,12.4,6.7,15.9,12.1,4.6,6.9,8.1,16.4,6.4,24.7-.6,3-1.7,5.8-4.3,7.5ZM136.3,351.9c-1.3,2.8-3.2,4.2-6,5.2l1.2-1.6c1.7-2.4,2.3-5.3,2.5-8.2.6-8.8-3.9-19.8-9.6-26.4-4.5-5.1-9.9-8.9-16.8-9.7-1.9-.2-3.9-.1-5.8-.3,1.8-1.8,3.9-2.6,6.4-2.9,3.1-.4,7.1.8,9.9,2.1,8.2,3.8,14.3,12.1,17.4,20.5,2.4,6.5,3.9,14.6.8,21.2ZM139.6,349.3c-.2.2-.4.3-.7.4-.1-.9.4-2,.6-2.9.1-.8.1-1.7.1-2.5.1-6.4-1.8-12.9-4.6-18.5-4.4-8.9-11.4-15.5-20.8-18.7,1.2-1,2.1-1.6,3.7-2,.8,0,1.6,0,2.4,0,6.5.6,12.4,5.7,16.4,10.6,5.3,6.6,8.7,15.4,7.7,23.9-.4,4-1.7,7.2-4.9,9.7ZM149.7,340.7c-1.1,3.9-3.5,5.8-7,7.7,1.4-2.2,2.4-4.1,3.1-6.6.8-3.9.6-8.3-.3-12.2-2.2-9-8.5-18.1-16.4-22.9-4-2.4-9.6-4.5-14-2.1-1.2.6-1.8,1.9-3.2,2.3-.6-.1-.6-.2-1-.6,0-.3.2-.5.4-.8.5-.6,1.3-1.2,2-1.7,2.7-1.9,4.9-2.6,8.1-2.8,2,0,4,.2,6,.7,8.1,2.2,14.7,9.3,18.7,16.3,3.7,6.5,5.8,15.2,3.7,22.6ZM154.5,332.5c-.3,1-.8,1.8-1.1,2.8-.6,1.9-1.1,3.9-1.9,5.7,0,0,0,.1,0,.2h0s0,0,0,0c0,0,0,0,0,0h-.2c2.1-6.8.3-15.3-2.7-21.6-4.3-9-11.2-16.2-20.7-19.6,1-1.9,1.8-2.8,3.7-3.8,5.3.2,11.5,4.5,15,8.1,6.3,6.4,10.9,15,10.8,24.1,0,5.3-1.7,9.8-5.5,13.5,1.1-3,1.9-6,2.7-9.1v-.5c0,0,0,0,0,0ZM162.8,329.8c-.6,4.4-2.4,6.9-5.8,9.5-.7.4-1.4.8-2,1.2,2.9-3.6,3.9-7.2,4-11.8.4-12.9-9.1-27-20.6-32.4-1.3-.6-2.6-1.1-4-1.4-1-.2-2-.3-3-.6-.2,0-.4-.2-.6-.4,0-.3-.1-.4,0-.7.4-.8,1.1-1.1,1.9-1.4,1.2-.1,2.6,0,3.8.2,7.7,1,14.3,7.1,18.8,13,5.3,6.9,8.6,15.9,7.4,24.7ZM164.7,334.1c1.2-1.5,2.5-3.3,2.4-5.3,0-.4,0-1.3-.4-1.5v.5c-.5,2.9-1.8,4.8-3.4,7.2,1.9-7,1.8-12.8-.6-19.7-4.1-11.4-11.9-19.2-22.7-24.3,1.7-2.4,3.1-3.6,5.8-4.6.4,0,.7,0,1.1.2,7.4,1.8,15.6,10.7,19.4,17,3.9,6.6,6.3,15.6,4.3,23.2-.9,3.4-3,5.6-6,7.4ZM176.6,322.4c-.8,3.5-2.6,5.4-5.6,7.2l.7-1.6c0-.1.1-.3.2-.4,2.6-7.1.7-15.2-2.4-21.8-3.5-7.5-12.1-17.4-20-20.3-3.1-1.1-4.6-.2-7.4,1.1,1.4-2.6,3.3-3.8,5.7-5.3.6,0,1.3,0,1.9.2,1.9.4,3.6,1.4,5.3,2.3,6.9,3.8,12.5,9.6,16.7,16.3,4.1,6.6,6.8,14.6,4.9,22.4ZM189.5,313.2c-.8,4.7-2.9,6.4-6.5,9.1,2.7-4.3,3-9.3,2.4-14.2-1.3-10.3-7.1-20.2-15.3-26.5-2.8-2.2-7.7-5.7-11.5-5.1-1.4.2-2.4,1-3.2,2.2-.5.9-.8,1.8-1.2,2.8,0,0,0,0,0,0,1-1.2,1.9-3.6,3.5-3.8.3,0,.5,0,.7.2.1.1.3.4.4.5h.4c0,0,0-.4,0-.4,4.1,0,11,5.9,13.8,8.7,6.6,6.4,10.8,16.2,10.9,25.3,0,3.3-.7,8.9-3.1,11.4,0,0-.1,0-.2.1-.6.5-1.3.8-2,1.1.4-.6.8-1.2,1.1-1.9.4-1.2.5-3.8,1.4-4.6,0-.2-.2-.4-.3-.5h-.2c-.1.5-.3.9-.3,1.3,0,.1,0,.2,0,.3-.2,2.6-1.4,4.7-3.3,6.4,2.4-5.8,1.9-12.5-.3-18.3-4-10.7-12.3-20.7-22.6-25.9,0,0,0,0,0,0l-.2.2c0,0,0-.2.1-.3-.5-.3-1-.5-1.5-.8-.4-.1-.7,0-.9-.5,2.9-2.5,5.5-5.4,8.6-7.6.2,0,.4,0,.6,0,8,1.2,16.5,9.2,21.1,15.5,5.2,7.1,8.8,16.1,7.3,25.1ZM196.2,313.8c3.2-6.4,2.9-12.6,1.4-19.5-2-9.9-7.7-18.3-16.2-23.9-2.7-1.7-5.2-2.9-8.3-3.5-.5,0-1.1-.3-1.5-.1-.3,0-.3.4-.4.6.2.8,1.4.9,2.1,1.1,7.5,2.2,14.1,7.8,18.2,14.5.7,1.2,1.4,2.4,2,3.6,3.3,6.7,5.1,16.9,2.6,24.1-1.1,3.3-2.9,5.3-6,6.8,5.2-13.4-3.8-29.8-13.8-38.5-2.5-2.2-5.3-3.8-8-5.6-.2-.1-.3-.3-.4-.5.4-.3.6-.4,1.1-.4,4.1,0,13.6,9.7,16.7,12.9-2.9-4.7-9.5-10.4-14.1-13.3-1.1-.7-2.5-1.4-3.8-1-.4.1-.5.4-.6.7-.2.4-.3.5-.6.8-.7.2-1.4-.2-2-.5,2.4-3,5.6-6,8.7-8.2.9,0,1.7,0,2.6.2,7.2.9,15.3,7.1,19.6,12.8,5,6.6,9,19.1,7.8,27.4-.7,4.7-3.3,7-6.9,9.7ZM215.6,298.3c-1.2,3.9-3.3,5.1-6.5,7.3,3.7-5.3,3.1-11.5,2-17.6-1.8-9.8-7.5-20.9-15.8-26.7-2.1-1.4-5-3-7.7-2.5-.7.1-1.4.5-1.9.9l-.5.7c1,.4,1.9-.1,2.9-.5,7.5,2.1,12.8,8.2,16.5,14.8,4,7.1,7.2,18.6,5,26.7-1.1,3.8-3.1,5.7-6.4,7.7,3.4-6.9,1.5-15.8-.9-22.7-2.5-7.2-6.8-13.6-13.2-17.9-1.8-1.2-3.7-1.7-4.9-3.6-.2-.1-.4-.3-.7-.2l-.4.2c-1,0-3.1-1.2-4.2-1.6,2.4-.9,4.1-2.2,5.7-4.2,1-1.9,3.4-3,5.4-3.9,1.7.5,3.5,1,5.1,1.8,6.9,3.1,12.3,9.1,15.8,15.7,3.6,6.8,7.1,18.1,4.7,25.7ZM226.1,294.4c-.9.8-2,1.3-3.1,1.7,3.6-6.6,1.9-17.6-.2-24.5-2.3-7.6-7.3-17.6-14.6-21.6-1.5-.8-2.8-1.2-4.5-1.2l-.2.3c0,.4,0,.3,0,.7,0,0,0,.2,0,.3-1,1.4-2.4,2.5-3.5,3.8,1.9-.9,3.6-2.3,5.3-3.4,4.8,1.9,8.8,6.7,11.3,11,4.7,8.1,8.4,22.4,6,31.5-.9,3.2-3.1,5.7-5.9,7.3,1.6-5.6,1.3-11.3,0-16.9-1.8-7.9-5.9-16.6-11.8-22.2-2-1.9-4.3-3.4-6.6-4.8,0-.5,0-1,0-1.6.2-2.8,1.3-4.8,3.3-6.7,1-1.1,2.1-2.1,3.1-3.2,5.5.4,10.1,3.7,13.7,7.8,7.4,8.6,12.1,21.6,11.2,32.9-.3,3.3-1.1,6.5-3.7,8.7ZM231.8,290.8c1.5-2.7,1.4-4.9,1.9-7.8,0,0,0,0,0-.1-.3.4-.3,1.1-.3,1.7-.4,2.2-1.1,4.3-2,6.4-.5.4-1.1.7-1.6,1.1,3.3-8.1,1.4-19.1-1.8-27-3.5-8.7-9.5-16.9-18.3-20.7,2-.9,3.7-2,5.4-3.3,6.8,1.1,10.4,3.7,14.6,9.2,4.4,5.9,7.3,14.4,7.6,21.7.2,3.3-.2,6.8-.7,10.1-.6,4.2-1.4,6.2-4.9,8.8ZM239.1,286.5c-.6.5-1.5.9-2.3.8,0-.1.1-.3.2-.4,1-2.1,1.4-4.5,1.7-6.8,1-7.4.1-14.5-2.5-21.5-2.3-6.3-7.4-14.4-13.7-17.3-2.3-1-4.6-1.5-7-.6,1.4-1.4,2.6-2.6,4.4-3.6.6-.1,1.2-.1,1.8,0,4.9.6,9.5,4.7,12.5,8.4,6.3,7.9,10.2,19.1,9.1,29.2-.4,3.5-1.2,9.4-4.2,11.7ZM243.4,283.5c1.8-4.2,2.1-9.9,1.9-14.4,0-.5,0-1-.1-1.4-1-8.2-4.5-17.6-10-23.8-1.7-1.9-3.8-3.5-5.9-5.1l2-1.1c3.5,1.4,6.2,4.2,9.2,6.5,0,0,0-.1,0-.2-1.6-3.2-5.6-5.9-8.9-6.9-.8.5-1.7,1.1-2.6,1.6-1.2-.8-2.5-1.6-3.8-2.3,1.1-.9,2.1-1.8,3.3-2.5,1.1-.2,2.4,0,3.5.2,4.8.8,8.5,4.4,11.1,8.2,5.7,8.2,8.9,19,7.1,28.9-.4,2.2-1.7,7.9-3.1,9.6-.8,1.1-2.5,2-3.6,2.7ZM254.7,274c-.8,2.9-2,4.3-4.6,5.7-.4.1-.4.2-.8,0,.2-1.3,1-2.6,1.3-3.8.9-3.1,1.4-6.9,1.5-10.1.2-9.9-4-21.2-10.9-28.4-3.2-3.4-6.7-5.1-11.4-5.2,1-1.2,2.1-2.3,3.3-3.1,1.1-.1,2.2,0,3.2.4,6.1,1.7,11.5,8,14.5,13.4,5.4,9.7,7,20.5,3.8,31.2ZM259.7,273.3c-.6.3-1.2.7-1.9,1-.6.4-1.1.8-1.7,1.2,0-.3.2-.5.2-.8,3.5-11.1,1.9-21.8-3.5-32-3.5-6.6-8.7-12.6-16.1-14.9,1.3-1.4,2.4-2.2,4.2-3,.7.2,1.4.2,2.1.3,1.8.3,3.6.8,5.3,1.7,7.1,3.8,12,12.4,14.3,19.9,2.7,9.1,1.7,18.2-2.9,26.6ZM267.3,268.5c-1.5,1.3-3,2.3-4.7,3.3h-.3c0-1.1,1.2-3,1.6-4.2.9-2.8,1.5-5.9,1.6-8.9.5-10.2-3.5-20.6-10.2-28.1-3.6-4-7.1-6.4-12.7-6.7,1-1.3,2.1-2.2,3.7-2.8,1.1,0,2.2,0,3.3.4,6.3,1.7,11.5,7.8,14.6,13.2,4.5,7.8,6.6,17.4,5.1,26.3-.4,2.6-1.3,5-2,7.5ZM269.4,266.8v-.3c3.7-8.7,2.3-19.6-1.2-28.1-.6-1.3-1.2-2.7-1.9-3.9-.7-1.3-1.5-2.5-2.3-3.7-4-5.8-7.6-8.3-14.1-11,1.2-1.2,2.4-2.3,3.9-3.2,1.7-.2,3.4,0,5.1.5,6,1.8,11,7.1,13.8,12.6,5.1,9.7,6.6,20.2,3.3,30.7-.9,2.8-2.2,4-4.7,5.3l-1.8,1.1Z"/>
  <path class="st3" d="M177.2,262.7c.4.1.6,0,1-.1.2,0,.3-.2.5-.4l.2-.5c-.4-.6-1.4-.8-2-1,0,.6,0,1.4.4,1.9Z"/>
  <path class="st8" d="M116.4,59.4c-.5,1.1-1.1,2.1-1.5,3.2l.2.2.3-.2c.7-.8,1.6-1.7,1.9-2.7v-.3c0,0-.9-.2-.9-.2Z"/>
  <path class="st6" d="M196.6,251.3c-1.1.9-2.4,1.7-3.4,2.7,0,.4,0,.3.3.6.5,0,.8,0,1.2-.3.8-.8,1.4-1.8,2.1-2.7,0-.3,0-.2-.1-.4Z"/>
  <path class="st4" d="M267.4,209.3c.8.2,2.1-.9,2.9-1.3l-.5-1.5c-.8.5-1.8,1.1-2.4,1.8,0,.5-.1.6,0,1.1Z"/>
  <path class="st4" d="M181.4,318.2c-.9.8-.9,3.4-1.4,4.6-.2.7-.6,1.3-1.1,1.9.7-.3,1.4-.6,2-1.1-.2-1.6,1.2-3.9.5-5.3Z"/>
  <path class="st3" d="M136.6,287.9c.2,0,.3-.1.5-.2v-.2c-2.3.5-3.3,1-4.9,3,1,0,1.9,0,2.9,0,.3-.9.5-2,1.5-2.4Z"/>
  <path class="st8" d="M107.4,306.9c1-.2,1.7-.7,2.3-1.6.3-.4.3-.6.2-1-.4-.2-.6-.1-1-.1-1,.6-2.1,1.3-2.6,2.3v.4c.5.1.7.1,1.1.1Z"/>
  <path class="st6" d="M115.7,135.4c-.1-.3-.5-.6-.8-.7-.5-.2-.6-.2-1,0-.4,1.2,1.4,3.8,1.8,5.1v.2c0,0,.2.3.2.3-.1-1.4.2-3.6-.2-4.9Z"/>
  <path class="st6" d="M196.4,255.5l1.4.6c0-1.5.1-3.1.3-4.6h-.1c-.9.7-2.6,2-2.7,3.2,0,.2,0,.2.1.4.3.3.7.4,1,.5Z"/>
  <path class="st8" d="M136.2,290.2c.8.2,1.6.3,2.3.5.4-.7,1.1-1.7,1.3-2.5,0-.4,0-.5-.2-.8-.9-.2-1.6-.3-2.4,0v.2c-.3.9-.7,1.7-1,2.5Z"/>
  <path class="st8" d="M124.3,299.2c.6.2,1.1.3,1.8.3h.3s.1-.2.1-.2c.7-1.2,3.2-3,3-3.7-.4-.2-.6-.3-1-.3-1.6.5-3.1,1.4-3.9,2.9-.2.3-.3.6-.3,1Z"/>
  <path class="st8" d="M120.6,299.2c.4,0,.8,0,1.2,0,.5,0,1.7.1,2-.1,0-.1,0-.2,0-.3,0-1.1,1.3-2.6,1.2-3.2-.4,0-.6,0-1,0-1.3.5-3.4,1.5-3.9,2.8,0,.2,0,.3,0,.5.2.2.2.3.5.4Z"/>
  <path class="st6" d="M179,263.2c1.1.4,3.2,1.6,4.2,1.6l.4-.2c.3,0,.4.1.7.2,1.1,1.9,3.1,2.4,4.9,3.6,6.4,4.2,10.7,10.7,13.2,17.9,2.4,6.9,4.2,15.8.9,22.7,3.3-2.1,5.3-3.9,6.4-7.7,2.3-8.1-1-19.6-5-26.7-3.7-6.6-9-12.7-16.5-14.8-1,.4-1.9.9-2.9.5l.5-.7c-.3-.3-.7-.5-1-.7-1.5,2-3.3,3.3-5.7,4.2ZM199.8,269.7l-1.9-1.1c-.7-.7-1.6-1.5-2.2-2.3l1.4.8h0c0,0-1.6-1.7-1.6-1.7,1.4.5,3.2,3.2,4.1,4.3ZM192.3,265.2c6.2,4.2,11.4,12.8,12.8,20.1-2.3-5.7-5.1-11.5-9.4-16-1.8-1.9-4.1-3.3-6.4-4.5-1-.5-2-1-2.9-1.7-.2-.2-.3-.4-.4-.6,1.8,0,4.8,1.8,6.3,2.8Z"/>
  <path class="st3" d="M115.3,114.6c-1,0-2.1,0-3.1.1-2.1.2-4.2.5-6.4.6-.6.7-1.1,1.5-1.7,2.3l3-.7c2.7-.7,5.5-1.2,8.1-2.2,0,0,0,0,0,0Z"/>
  <path class="st3" d="M113.8,60.2v-.3c0,0-.2-.1-.3-.2-5.6,1.4-11.1,3.2-16.7,4.8-1.9.5-3.8.8-5.7,1.4-.5.1-1,.3-1.4.6h.4c3.3-.6,22.2-4.7,23.7-6.3Z"/>
  <path class="st3" d="M157.8,24.7c3.6-.5,12.6-3,16.1-4.3.3-.5,1-1.2,1-1.8h-.2c-3.3.9-6.5,2-9.8,3-2.7.8-5.4,1.3-8,2.3.1.5.4.6.8.9Z"/>
  <path class="st3" d="M111,275.8c-2.2,2.1-11.9,12.8-12.9,15.2h0c3.8-3.2,7.1-6.9,10.5-10.6,2.3-2.5,4.8-5,6.8-7.7v-.2c-1.7,1-3.1,2-4.5,3.3Z"/>
  <path class="st3" d="M231.4,54c.7-.3,9.7-6.1,9.8-6.3-.3,0-.5,0-.7,0-3.4.4-6.8,1-10.1,1.5,0,1.3,0,3.1.5,4.3l.5.4Z"/>
  <path class="st6" d="M270.6,214.7l.3-.6c.5.3.5.8.7,1.3.2.8.6,1.2,1.1,1.7l.2.2c-1.1-3-1.8-6.3-2.6-9.4-.8.4-2,1.5-2.9,1.3-.1-.5,0-.6,0-1.1-1.5.9-2.8,2.2-4.1,3.4,1.4.4,2.8.8,4.2,1.5.9.4,2.2,1.7,3.1,1.6Z"/>
  <path class="st3" d="M91.1,92.7c4.2-1,8.5-1.8,12.5-3.3.8-.3,1.9-.7,2.4-1.4.1-.2.1-.2.2-.4v-.2c-2.9.6-25.5,6.6-26.3,7.3,0,.3,0,.3.2.6,3.7-.4,7.4-1.7,11-2.6Z"/>
  <path class="st5" d="M257.6,207s0,0,0,0l-1.8,3.6c.5,1,.9,2,1.4,2.9,0,0,0,0,0,0-.5-1-1-1.9-1.4-2.9l1.8-3.6Z"/>
  <path class="st3" d="M102.3,118.3c.2-.5,1.1-1.8.9-2.3h-.2c-3.9,1.1-26.3,7.6-27.7,9.1.3.2.2.1.4.1,8.7-2.9,18-3.9,26.6-7Z"/>
  <path class="st3" d="M140.1,213.4h-.4c-6.5,1.7-13.2,3.7-19.8,4.3.5.6,1,1.2,1.6,1.8,4.2,1,14.4-1.9,18.7-3.2,0-.7.3-2.2,0-2.8Z"/>
  <path class="st3" d="M122.6,37.1c5.5-1.7,11-3.5,16.5-5.2,2.7-.8,7.8-2,10.1-3.1.6-.3,1.2-.8,1.5-1.3.2-.4.2-.6,0-1-.1,0-.3-.2-.4-.2-2,1.2-4.6,1.7-6.8,2.3-3.7,1.1-7.3,2.3-10.9,3.3-3.2.9-7,1.6-10,3.2-.2.6-.5,1.3-.4,1.9h.3Z"/>
  <path class="st3" d="M212.9,39.9c.8-1.1,7.7-10.4,7.7-10.6h-.2c.2-.2.4-.5.7-.5v-.2c-.2,0-.5,0-.7,0-3.6.8-7.2,1.7-10.8,2.3.8,2.4,1.5,4.8,2.4,7.2.3.6.6,1.2,1,1.8Z"/>
  <path class="st3" d="M142.4,239.4c-1.3.5-5.4,1.3-6.1,2.2.2.3,0,.2.4.3,6.9-.3,13.7-2.1,20.1-4.7,0-1.4.4-3.8-.4-5-4.4,2.6-9.1,5.2-13.9,7.1Z"/>
  <path class="st3" d="M104.4,93.1c0-.7.3-1.5,0-2.2h-.4c-4.1,1.2-8.2,2.1-12.3,3.1-2.3.6-4.6,1.3-7,1.8-1.3.3-2.7.5-4.1.8-.5.1-.9.3-1.3.6-.3.8-.5,1.6-.2,2.4h.3c5.1-1.5,10.2-2.7,15.3-4,3.2-.8,6.4-1.5,9.5-2.6Z"/>
  <path class="st3" d="M113.6,64.3c.2-.6.1-1.1,0-1.7l-.3-.3c-5.7,1.6-11.5,3.1-17.3,4.5-.9.2-6.6,1.3-6.9,1.5-.1,0-.4.4-.5.6-.3.5-.6,1.6-.4,2.2,0,.2.1.3.3.4,4.6-1.1,9.3-2.6,13.9-3.9,3.4-1,8.1-1.9,11.2-3.3Z"/>
  <path class="st3" d="M128.3,42.7c1.4-.5,3.9-1.8,4.7-3v-.3c0,0-.3,0-.3,0-2.8.9-5.7,1.6-8.6,2.3-6.9,1.9-13.9,3.7-20.7,5.9-.3.6-.6,1.1-.7,1.8l.2.5h.3c6.2-2,12.5-3.6,18.8-5.4,2.1-.6,4.3-1,6.3-1.7Z"/>
  <path class="st8" d="M274.5,217.6c0,.7-.7.5-.3,1.3.7,1.2,1.9,2.4,2.8,3.6,1.5,2,2.8,4.2,3.9,6.5l.4.5c.2-2.1-6.9-23.3-7.8-24.3-.3-.3-.5-.3-.9-.4-.5.3-.9.4-1,1-.5,2,1.5,7.5,2.2,9.6.2.6.7,1.7.7,2.3Z"/>
  <path class="st3" d="M125,224.7c3,.9,11.6-1.6,14.7-2.7,0-1.1.5-3.1.1-4.1-.2,0-.4,0-.6,0-5.7,1.4-11.2,2.8-17.1,2.9.7,1,1.5,2.1,2.2,3.2.2.4.3.7.8.8Z"/>
  <path class="st3" d="M124.2,338c-3.1-8.6-9.9-18.5-18.3-22.5-1.8-.8-5.1-2.1-7-1.8h.3c2,.9,4,1.4,5.8,2.4,7.4,4.1,13.6,12.8,16.8,20.4,2.8,6.8,4.4,15.1,2.2,22.2h.2s.4-.4.4-.4c2.9-6.2,1.8-14.1-.4-20.4Z"/>
  <path class="st8" d="M103.6,149.8c2.8-1.2,5.5-3.1,8.2-4.7,1.4-.8,2.9-1.4,4.2-2.3l.2-.4c-7.1,3.1-14.9,4.5-22.3,6.8-2.8.9-5.4,2.1-8,3.3-2,.9-4,1.8-5.9,3v.3c4.3-1.2,8.6-2.3,13-3.3,3.5-.8,7.4-1.3,10.7-2.7Z"/>
  <path class="st3" d="M116.8,193.3c2.7-.3,5.4-.7,8.1-1.3,1.1-.2,2.3-.3,3.2-.9v-.4c-.5-.5-1.2-.7-2-.9-3.1-.7-15.4-2-18.3-1.8-.2,0-.4,0-.6,0-.6,0-1.3,0-1.8.3.1.4.3.6.6.9,1.3,1.3,1.6,3.1,2.6,4.7,2.7-.1,5.5-.3,8.2-.7Z"/>
  <path class="st3" d="M159.5,26.4c2.1,2,4.1,4,6.2,6.1,1.7,1.7,3.5,3.9,5.5,5.2.5-1.9,2.6-13.7,2.1-14.9h-.1c-4.6,1-9,2.6-13.6,3.6Z"/>
  <path class="st3" d="M129.6,197c-.4-.9-1.1-3.8-1.9-4.2h-.4c-6.3,1.2-12.6,2.3-19,2.3-1.3,1.9-3.3,3.2-4.9,4.9h2.4c6.5-.3,17.9-.8,23.8-3Z"/>
  <path class="st3" d="M192.7,35c1-2.9,1.9-5.9,2.9-8.8.8-2.4,1.8-4.9,2.4-7.3-.4-.2-.2-.1-.7,0-4.3.8-8.8,1.6-13,2.9,1.6,3.2,3.5,6.1,5.5,9.2.9,1.4,1.8,2.9,2.9,4.2Z"/>
  <path class="st3" d="M102.7,157.2c-.2-1.5.3-3.5,0-4.8h-.4c0-.1-19.2,4.3-19.2,4.3-1.9.4-3.9.7-5.8,1.3,0,1.2-.4,3.2.3,4.1h.3c2-.7,4.3-1.1,6.5-1.5,6.1-1.2,12.4-1.8,18.4-3.4Z"/>
  <path class="st3" d="M101,125.6v-.3c0-1,.5-3.8.2-4.5h-.4c-6,1.7-12.2,3.1-18.3,4.5-2.3.5-4.6.9-6.8,1.6-.4.1-.7.2-.8.5-.3.7-.1,1.2.1,1.9.3.7.6,1.1.6,1.8,5.2-.7,10.4-2,15.5-3.1,3.3-.8,6.7-1.4,10-2.3Z"/>
  <path class="st3" d="M111.4,186.1c-.2-1.2-.8-5.4-1.4-6.1h-.2c-8.4,1.2-16.7,3-25.1,3.9.3,1.8.5,4.2,1.6,5.7,7.1-1.7,17.9-3.6,25.1-3.5Z"/>
  <path class="st3" d="M139,223.5c-4.5,1.5-9.1,2.6-13.8,2.6,1.6,3.5,3.2,7.1,3.8,11l.4,2.8c2.4,0,4.7-.2,7.1-.8.3-2.3,3.2-14.5,2.5-15.6Z"/>
  <path class="st3" d="M101.9,179.6c2.3-.4,7.3-.8,9.2-1.7,1.6-.8,7.1-5.4,8.4-6.8v-.3c0,0-.3,0-.3,0l-11.9,1.8c-3.7.5-8.1.6-11.5,2.3-1.8.9-3.7,2.7-5.3,4-1.4,1.1-2.9,2-4.3,3.1v.3c0,0,.3,0,.3,0l15.5-2.7Z"/>
  <path class="st3" d="M150.8,30.8c-.4-.1-.2-.1-.6,0l-18.2,5.4c-2.8.8-6,1.5-8.7,2.6-.5.2-.8.5-1.1,1v.3c1.3.4,8.2-1.8,10-2.3l3.4-.9c4.9,3.9,10.5,6.8,15.4,10.8h.3c.2-.6.2-1.1.2-1.7,0-2.1-.3-4.2-.4-6.3-.1-2.2-.2-4.5-.2-6.7,0-.7,0-1.4-.2-2Z"/>
  <path class="st3" d="M119,216.5c0-.9-.3-1.9,0-2.7.8-3.3,8.9-13.8,8.8-14.8-.2,0-.5,0-.7,0-5.4,1-10.7,1.8-16.2,2.1-2.3.1-7.2-.3-9.1.5v.3c2.9,2.3,6.1,4.4,9,6.8,2.9,2.5,5.6,5.1,8.2,7.8Z"/>
  <path class="st3" d="M316.4,235.9c2.9-2,4.3-4.7,5-8.1,1.6-8.3-2-17.2-6.6-23.9-3.8-5.5-9.7-11.1-16.6-12.4-1.4-.2-2.7-.3-4.1-.1-1.7.5-4.4,1.6-5.2,3.2-.1.2,0,.4,0,.6,1.3-.1,2.5-.9,3.9-1.1,4.7-.5,10.2,3.1,13.6,6,6.5,5.6,11.1,14.9,11.7,23.4.2,3.4-.1,7.1-1,10.4l-.6,1.9Z"/>
  <path class="st3" d="M288,213.9c-2.5-3-7.2-7.4-11.3-7.8-.3,0-.6,0-.9,0,.2.9.4,1.9.8,2.7,1.3,2.6,5.5,5.4,7.5,7.8,8.4,10,11.3,24.6,6.8,36.8.9-.5,1.7-.9,2.6-1.5,2.4-2,3.1-6.1,3.4-9.1,1-10-2.4-21.2-8.8-28.9Z"/>
  <path class="st3" d="M290.3,203.3c8,5.6,13.1,15.6,14.7,25.1,1,5.7.4,11.4-1.7,16.8v.4c.9,0,2.3-1.1,2.9-1.7.5-.5,1.1-1.1,1.4-1.7,1.2-2.4,1.6-6.6,1.7-9.2.2-10.4-4.1-20.8-11.3-28.3-3.4-3.6-7.4-6.5-12.5-6.7,0,0-.1,0-.2,0-2.1.6-3.6,1.5-5.2,2.9,4-.7,6.9.2,10.2,2.5Z"/>
  <path class="st6" d="M291.1,247.2c0-.3,0-.6.1-.9,0-.3,0-.6.1-.9,0-.3,0-.6,0-.9,0-.3,0-.6,0-.9,0-.3,0-.6,0-.9,0-.3,0-.6,0-.9,0-.3,0-.6,0-.9,0-.3,0-.6,0-.9,0-.3,0-.6,0-.9,0-.3,0-.6,0-.9,0-.3,0-.6,0-.9,0-.3,0-.6-.1-.9,0-.3,0-.6-.1-.9,0-.3-.1-.6-.2-.9,0-.3-.1-.6-.2-.9,0-.3-.1-.6-.2-.9,0-.3-.2-.6-.2-.9,0-.3-.2-.6-.3-.9,0-.3-.2-.6-.3-.9,0-.3-.2-.6-.3-.9-.1-.3-.2-.6-.3-.9-.1-.3-.2-.6-.3-.9-.1-.3-.2-.6-.4-.9-.1-.3-.3-.6-.4-.8-.1-.3-.3-.6-.4-.8-.1-.3-.3-.5-.4-.8-.1-.3-.3-.5-.4-.8-.2-.3-.3-.5-.5-.8-.2-.3-.3-.5-.5-.8-1.4-2.3-5.4-7.6-7.8-8.7.7,1.8,1.3,3.9,2.3,5.5,1.7,2.6,3.6,4,4.9,7.1-1.4-1.6-2.6-3.3-4.4-4.6.6,2.2,1.4,4.3,1.8,6.5.4,1.9.4,3.9.8,5.7,1.9,8.9,3.6,14.7.4,23.9l-.5,1.4c4.4-2.7,6-3,7.3-8.5,0-.3.1-.6.2-.9,0-.3.1-.6.2-.9,0-.3.1-.6.2-.9Z"/>
  <path class="st6" d="M125.6,325.3c-3.5-5.4-9.5-10.8-15.9-12.1-2.6-.5-5.6-1.1-8.2-.8,2.1.6,4.2,1.2,6.1,2.2,6.5,3.4,11.6,10.4,15.1,16.7,4,7,6.4,16.1,4.2,24.1-.3,1-.7,1.9-1.1,2.9,2.8-3.5,4-7.6,4.3-12.1,0-.3,0-.2.2-.6h.3c.2,1,0,2.1-.1,3-.5,3.1-1.1,6.2-2.9,8.9,2.6-1.7,3.7-4.6,4.3-7.5,1.8-8.4-1.8-17.8-6.4-24.7ZM127,334.5c-2.2-5-6.3-10.5-10.4-14.2-2.1-1.9-4.4-3.5-6.6-5.2,2.7.3,7.6,4.7,9.4,6.7,1.5,1.6,2.8,3.3,4,5.1,2,3.1,6.5,11.7,6.4,15.4-1-1.7-1.8-5.7-2.7-7.8Z"/>
  <path d="M119.4,321.8c-1.8-2-6.6-6.4-9.4-6.7,2.2,1.7,4.5,3.3,6.6,5.2,4.1,3.7,8.2,9.2,10.4,14.2.9,2.1,1.8,6.1,2.7,7.8.2-3.7-4.4-12.3-6.4-15.4-1.2-1.8-2.5-3.5-4-5.1Z"/>
  <path class="st3" d="M136.7,292.2c-1.2-.2-2.6-.4-3.8-.2-.8.3-1.5.7-1.9,1.4-.2.3,0,.4,0,.7.2.2.3.3.6.4,1,.3,2,.3,3,.6,1.4.3,2.7.9,4,1.4,11.6,5.4,21,19.5,20.6,32.4-.1,4.6-1.1,8.2-4,11.8.7-.4,1.4-.8,2-1.2,3.5-2.6,5.2-5.1,5.8-9.5,1.2-8.8-2.1-17.7-7.4-24.7-4.5-5.9-11.1-12-18.8-13Z"/>
  <path class="st3" d="M278.1,226.8c-3.3-5.7-7.8-11.8-14.5-13.7-.8-.2-1.6-.3-2.4-.3-1.4.4-2.5,1.3-3.7,2.1,6.9,1.7,12.1,6.8,15.8,12.8,5.1,8.4,7.4,20,4.9,29.6-.4,1.7-1.4,3.3-1.7,5l.2.2h.4c3-1.7,4.5-3.7,5.4-6.9,2.7-9.6.5-20.2-4.4-28.8Z"/>
  <path class="st3" d="M234.1,245.6c-3-3.7-7.6-7.9-12.5-8.4-.6,0-1.2,0-1.8,0-1.7,1-3,2.2-4.4,3.6,2.4-.9,4.7-.5,7,.6,6.3,2.8,11.4,11,13.7,17.3,2.6,7,3.5,14.1,2.5,21.5-.3,2.3-.7,4.7-1.7,6.8,0,.1-.1.3-.2.4.8,0,1.7-.4,2.3-.8,3-2.3,3.8-8.2,4.2-11.7,1.1-10.1-2.8-21.3-9.1-29.2Z"/>
  <path class="st3" d="M250.9,242.8c-3-5.4-8.4-11.6-14.5-13.4-1.1-.3-2.1-.5-3.2-.4-1.2.9-2.3,2-3.3,3.1,4.7.1,8.2,1.8,11.4,5.2,6.9,7.2,11.1,18.5,10.9,28.4,0,3.2-.6,7-1.5,10.1-.4,1.3-1.2,2.5-1.3,3.8.4.2.4,0,.8,0,2.6-1.4,3.8-2.9,4.6-5.7,3.1-10.7,1.5-21.5-3.8-31.2Z"/>
  <path class="st3" d="M264.2,234.7c-3.1-5.5-8.3-11.5-14.6-13.2-1.1-.3-2.2-.4-3.3-.4-1.5.6-2.7,1.5-3.7,2.8,5.5.3,9,2.6,12.7,6.7,6.8,7.5,10.8,18,10.2,28.1-.2,2.9-.8,6.1-1.6,8.9-.4,1.2-1.6,3.1-1.6,4.3h.3c1.7-1,3.2-2.1,4.7-3.3.7-2.5,1.5-5,2-7.5,1.5-8.9-.6-18.5-5.1-26.3Z"/>
  <path class="st3" d="M154.9,254.7c.1-2.6,2.2-14.5,1.7-15.9h-.4c-6.7,2.6-12.7,3.9-20,3.8.2,3.4.1,7.1-1.2,10.3.6.3,1.3.6,1.9.8,3.4.7,7.2.6,10.7.7,2.4,0,4.9.2,7.2.2Z"/>
  <path class="st3" d="M155,283.7c-1.6-.9-3.4-1.9-5.3-2.3-.6-.1-1.3-.3-1.9-.2-2.5,1.5-4.3,2.7-5.7,5.3,2.8-1.3,4.3-2.2,7.4-1.1,7.9,2.8,16.5,12.8,20,20.3,3.1,6.6,4.9,14.8,2.4,21.8,0,.1-.1.3-.2.4l-.7,1.6c3-1.8,4.8-3.8,5.6-7.2,1.9-7.7-.9-15.8-4.9-22.4-4.1-6.7-9.8-12.4-16.7-16.3Z"/>
  <path class="st3" d="M161,272.6c-.2,0-.4,0-.6,0-3.1,2.2-5.7,5.1-8.6,7.6.2.4.5.4.9.5.5,0,1,.2,1.4-.1.1-.2.2-.4.3-.7.3-.6.5-.8,1-1.2.8-1.2,1.7-2,3.2-2.2,3.8-.6,8.7,2.9,11.5,5.1,8.2,6.3,14,16.2,15.3,26.5.6,4.9.2,9.9-2.4,14.2,3.6-2.6,5.7-4.4,6.5-9.1,1.5-9-2.1-18-7.3-25.1-4.6-6.3-13.1-14.3-21.1-15.5Z"/>
  <path class="st3" d="M195.1,256.9c-1.6-.7-3.4-1.2-5.1-1.8-2,.8-4.3,1.9-5.4,3.9.4.2.7.4,1,.7.6-.4,1.2-.8,1.9-.9,2.6-.5,5.6,1.1,7.7,2.5,8.4,5.7,14,16.9,15.8,26.7,1.1,6.1,1.7,12.3-2,17.6,3.2-2.2,5.2-3.4,6.5-7.3,2.4-7.6-1.1-18.9-4.7-25.7-3.5-6.7-8.8-12.6-15.8-15.7Z"/>
  <path class="st3" d="M173.5,262c.4,0,.8.1,1.1.2h.3c0-.1,0-.4,0-.4.3-1.4.7-1.7,1.8-2.5-.3-2-.9-12.8-1.6-13.6-4.2,5.5-11.9,9.7-18.7,10.7-1.3.2-2.7.2-4.1.3,0,1.8-.6,5.5.8,6.8.4.4,1.3.5,1.9.6,4.8.6,9.6.5,14.4,1,.8-.7,3.1-3,4.1-3Z"/>
  <path class="st3" d="M127.3,301.7c-2-.5-4-.7-6-.7-3.2.2-5.4.9-8.1,2.8-.7.5-1.5,1-2,1.7-.2.3-.3.4-.4.8.4.4.5.4,1,.6,1.4-.4,2-1.6,3.2-2.3,4.5-2.4,10.1-.3,14,2.1,8,4.8,14.3,13.9,16.4,22.9.9,3.9,1.1,8.3.3,12.2-.7,2.6-1.7,4.4-3.1,6.6,3.5-1.9,5.8-3.7,7-7.7,2.1-7.4,0-16.1-3.7-22.6-4-7.1-10.6-14.1-18.7-16.3Z"/>
  <path class="st3" d="M118.1,310.2c-2.8-1.3-6.8-2.6-9.9-2.1-2.5.3-4.6,1.2-6.4,2.9,1.9.1,3.9,0,5.8.3,6.8.8,12.3,4.6,16.8,9.7,5.7,6.6,10.3,17.5,9.6,26.4-.2,2.9-.9,5.8-2.5,8.2l-1.2,1.6c2.9-1,4.7-2.4,6-5.2,3.1-6.6,1.6-14.6-.8-21.2-3-8.3-9.2-16.7-17.4-20.5Z"/>
  <path class="st3" d="M97.7,172.3c.3,0,.6,0,.8,0,2,.1,4.3-.5,6.3-.8,3.3-.5,6.5-.9,9.8-1.4,1.5-.2,3.1-.5,4.6-.6-.4-2.2-.7-4.3-.9-6.5-3.1-1-12.2-4.1-15-3.7-7.3.8-14.7,2-21.8,3.5,2.8.2,11.8,1,13.5,2.9,1.2,1.3,1,6.2,2.7,6.5Z"/>
  <path class="st3" d="M218.6,252.7c-3.6-4.1-8.1-7.4-13.7-7.8-1.1,1-2.1,2.1-3.1,3.2.3.4.5.7,1.1.9.3,0,.6,0,.9-.2,1.7,0,3,.4,4.5,1.2,7.3,3.9,12.3,14,14.6,21.6,2,6.9,3.7,17.9.2,24.5,1.1-.5,2.1-.9,3.1-1.7,2.6-2.2,3.5-5.5,3.7-8.7.9-11.3-3.8-24.4-11.2-32.9Z"/>
  <path class="st6" d="M309.1,242.5l1.4-1.2c4.4-4.1,5.9-8.8,6.1-14.7.2-8.9-4-17.8-10-24.2-3-3.2-8.4-7-12.9-7-.5,0-1,0-1.5.1-1.1.4-2.2.8-3.2,1.3,7.8,2.5,14.1,9.3,17.8,16.5,4.3,8.3,6,18.4,3,27.4-.2.6-.4,1.2-.6,1.8ZM300.4,201.2c-1.7-.9-6.1-2.2-7.2-3.1.5,0,1.1,0,1.6,0,3.3.3,6.8,3.3,8.9,5.6-1.2-.5-2.1-1.9-3.3-2.5Z"/>
  <path d="M294.8,198.1c-.5,0-1.1,0-1.6,0,1.1.9,5.5,2.1,7.2,3.1,1.2.7,2.1,2,3.3,2.5-2.1-2.4-5.6-5.3-8.9-5.6Z"/>
  <path class="st6" d="M136.8,315.7c-3.9-4.9-9.9-9.9-16.4-10.6-.8,0-1.6-.1-2.4,0-1.5.4-2.5,1-3.7,2,9.4,3.2,16.4,9.7,20.8,18.7,2.8,5.7,4.7,12.2,4.6,18.5,0,.8,0,1.7-.1,2.5-.2.9-.7,2-.6,2.9.3-.1.4-.2.7-.4,3.2-2.5,4.4-5.8,4.9-9.7,1-8.5-2.4-17.3-7.7-23.9ZM140.8,347.5c0,0,0-.1,0-.2-.4-1.4.9-6.9,1.6-8.4.7,1.7-.8,6.9-1.5,8.6Z"/>
  <path d="M140.8,347.4c0,0,0,.1,0,.2.7-1.7,2.2-6.9,1.5-8.6-.7,1.5-2,7-1.6,8.4Z"/>
  <path class="st3" d="M32.1,245.6c.9-1.6,1.6-3.5,2.7-5.1-2.1-6.2-4.6-13.2-3.9-19.9,0-.7.6-3.3.1-3.7-2.6,4.4-4.8,8.9-7.1,13.4-.8,1.6-2,3.3-2.5,5-.6,2.3,1.4,23.1,1.9,26.4l.9-1.6c2.6-4.9,5.3-9.7,8-14.6ZM28.4,243.3c-.1-.1-.2-.2-.3-.3-.2-.4-.2-1,0-1.4.2-.7.7-.8,1.3-1.1,0,0,.2.3.2.4,0,1-.5,1.7-1.1,2.4ZM28.5,237.2c.2,0,.2,0,.4.2.3.2.6.6.6,1,0,.6-.4,1.1-.9,1.5-.4.4-.8.9-1.2,1.4l-.3.2-.2-.3c.5-1.4,1.2-2.6,1.5-4.1ZM28.1,245v.7c-.2,0-.3.1-.3.1-.4.1-.4,0-.6-.2-.7-.6-.9-1.4-1-2.3.8.2,1.5,1,1.9,1.7Z"/>
  <path d="M27.8,245.8c0,0,.1,0,.2-.1v-.7c-.3-.7-1-1.4-1.8-1.7,0,.9.3,1.7,1,2.3.3.2.3.3.6.2Z"/>
  <path d="M28.1,241.6c-.1.4,0,1,0,1.4,0,.2.1.2.3.3.6-.7,1.1-1.4,1.1-2.4,0-.1-.2-.3-.2-.4-.6.3-1,.4-1.3,1.1Z"/>
  <path d="M27.5,241.3c.4-.5.7-1,1.2-1.4.4-.4.8-.9.9-1.5,0-.4-.3-.8-.6-1-.2-.1-.2-.1-.4-.2-.3,1.5-1,2.7-1.5,4.1l.2.3.3-.2Z"/>
  <path class="st6" d="M275.4,205.2h.3c3.2-.5,6.5,1.3,9,3.2,7.9,6,12.6,16.4,13.9,26,.7,5.2.3,10-1.7,14.9,1.5-1,3.2-1.9,4.6-3,3.6-7.8,3.1-17.1.1-25.1-2.7-7.3-7.9-15.2-15.2-18.5-2.2-1-4.4-1.2-6.7-1.5-1.7.9-3.5,1.8-4.9,3.1,0,.4.3.6.6.8ZM289.2,208c-1.9-.8-4.5-1.5-6.1-2.8,2.7.1,4.3,1,6.1,2.8Z"/>
  <path d="M283,205.2c1.6,1.3,4.2,2,6.1,2.8-1.8-1.9-3.5-2.7-6.1-2.8Z"/>
  <path class="st6" d="M243,242.1c-2.7-3.8-6.4-7.4-11.1-8.2-1.1-.2-2.4-.3-3.5-.2-1.2.8-2.3,1.6-3.3,2.5,1.3.7,2.6,1.4,3.8,2.3.9-.5,1.7-1,2.6-1.6,3.3,1.1,7.3,3.8,8.9,6.9,0,0,0,.1,0,.2-2.9-2.3-5.7-5-9.2-6.5l-2,1.1c2,1.6,4.1,3.2,5.9,5.1,5.6,6.2,9,15.6,10,23.8,0,.5,0,1,.1,1.4.2,4.5-.1,10.2-1.9,14.4,1.1-.8,2.8-1.7,3.6-2.7,1.4-1.8,2.7-7.5,3.1-9.6,1.8-9.9-1.4-20.7-7.1-28.9Z"/>
  <path class="st6" d="M151.9,342c3.8-3.7,5.4-8.3,5.5-13.5,0-9.1-4.5-17.8-10.8-24.1-3.6-3.6-9.8-8-15-8.1-2,1-2.7,1.9-3.7,3.8,9.5,3.4,16.4,10.6,20.7,19.6,3,6.3,4.8,14.8,2.7,21.6h.2c0-.1,0-.2,0-.2.9-1.8,1.3-3.8,1.9-5.7.3-1,.8-1.8,1.1-2.8h.1s0,.5,0,.5c-.7,3.1-1.6,6.1-2.7,9.1ZM151.2,317.2c-.9-1.7-1.8-3.3-2.9-4.9-3.4-5.2-7.6-8.6-13.2-11.3-1.8-.8-3.7-1.5-5.3-2.4v-.4c3.7.1,9.4,3.9,12.3,6.1,3.9,2.9,10.1,11.5,10.8,16.2-.7-.9-1.2-2.2-1.7-3.3Z"/>
  <path class="st6" d="M151.4,341.2h0s0,0,0,0h0Z"/>
  <path d="M142.2,304.3c-3-2.2-8.7-6-12.4-6.1v.4c1.7,1,3.6,1.6,5.4,2.4,5.6,2.7,9.8,6,13.2,11.3,1,1.6,2,3.2,2.9,4.9.5,1,1,2.4,1.7,3.3-.7-4.7-6.9-13.3-10.8-16.2Z"/>
  <path class="st3" d="M111.9,58.5l4.1-1.2c6.2,1.8,12.3,4.7,18.6,6-.5-2.5-3.3-18-4.3-19.3-5.6,1.5-11.2,3.2-16.8,4.9-3.3,1-6.8,1.8-10.1,2.9,1.3,2.7,2.7,5.3,3.8,8.1,1.6-.4,3.2-.8,4.8-1.3Z"/>
  <path class="st4" d="M197.2,267l-1.4-.8c.5.8,1.5,1.6,2.2,2.3l1.9,1.1c-.9-1.1-2.7-3.9-4.1-4.3l1.6,1.6h0Z"/>
  <path d="M189.3,264.7c2.2,1.3,4.6,2.7,6.4,4.5,4.3,4.5,7.1,10.3,9.4,16-1.4-7.3-6.6-15.9-12.8-20.1-1.5-1-4.5-2.9-6.3-2.8,0,.3.2.5.4.6.9.7,1.9,1.2,2.9,1.7Z"/>
  <path class="st6" d="M262.6,246.7c-2.2-7.5-7.1-16.1-14.3-19.9-1.7-.9-3.4-1.4-5.3-1.7-.7-.1-1.4-.1-2.1-.3-1.7.8-2.8,1.6-4.2,3,7.3,2.3,12.6,8.2,16.1,14.9,5.4,10.2,7,20.9,3.5,32,0,.3-.2.5-.2.8.6-.4,1.2-.8,1.7-1.2.6-.4,1.2-.7,1.9-1,4.5-8.4,5.6-17.5,2.9-26.6ZM249.4,232.8c-2.1-1.7-4.6-2.7-6.7-4.3,0,0-.1,0-.2-.1,3.8,1.3,6.5,2.6,9.6,5.2.7,0,1.4.2,1.9.8.3.3.4.5.5.9,0,.3-.1.5-.3.7.6,1.2,1.4,2.4,2.1,3.5-2.6-1.9-4.5-4.6-7-6.7Z"/>
  <path class="st1" d="M254.5,235.3c-.1-.4-.2-.6-.5-.9-.5-.5-1.2-.8-1.9-.8l2.2,2.4c.1-.3.2-.4.3-.7Z"/>
  <path d="M252.1,233.6c-3.1-2.6-5.8-3.9-9.6-5.2,0,0,.1,0,.2.1,2.1,1.6,4.6,2.6,6.7,4.3,2.5,2,4.5,4.7,7,6.7-.7-1.1-1.5-2.3-2.1-3.5l-2.2-2.4Z"/>
  <path class="st6" d="M154.5,279.8c0,.2-.2.4-.3.7-.4.3-.9.2-1.4.1.5.2,1,.5,1.5.8.3-1,.7-1.9,1.2-2.8-.5.4-.7.6-1,1.2Z"/>
  <path class="st6" d="M176.9,307.4c2.2,5.8,2.7,12.4.3,18.3,1.9-1.6,3.2-3.8,3.3-6.4,0-.1,0-.2,0-.3,0-.4.1-.8.3-1.2h.2c0,0,.2.2.3.4.7,1.4-.7,3.7-.5,5.3,0,0,.1,0,.2-.1,2.4-2.5,3.1-8.1,3.1-11.4,0-9.2-4.3-18.9-10.9-25.3-2.8-2.8-9.7-8.8-13.8-8.7v.4c0,0-.5,0-.5,0,0-.1-.3-.4-.4-.5-.2-.2-.4-.3-.7-.2-1.7.2-2.6,2.5-3.5,3.8,10.2,5.3,18.6,15.3,22.6,25.9Z"/>
  <path class="st6" d="M154.4,281.5s0,0,0,0c0,0,0,0,0,0,0,0,0,.2-.1.3l.2-.2Z"/>
  <path class="st6" d="M275.9,260.3c3.4-10.5,1.8-21-3.3-30.7-2.9-5.5-7.8-10.7-13.8-12.6-1.6-.5-3.4-.7-5.1-.5-1.5.9-2.7,1.9-3.9,3.2,6.5,2.6,10.1,5.1,14.1,11,.8,1.2,1.6,2.4,2.3,3.7.7,1.3,1.4,2.6,1.9,3.9,3.5,8.5,5,19.4,1.4,28.1v.3c-.1,0,1.6-1.1,1.6-1.1,2.5-1.3,3.8-2.6,4.7-5.3ZM260.3,222.5c-1.4-.9-3.1-1.5-4.3-2.6.6,0,1.1,0,1.7.2,3.4.8,6.9,3.6,8.7,6.5-2.1-.7-4.2-2.9-6.1-4.2Z"/>
  <path d="M257.7,220.2c-.6-.1-1.1-.2-1.7-.2,1.2,1,2.9,1.7,4.3,2.6,1.9,1.3,4,3.4,6.1,4.2-1.9-2.9-5.3-5.7-8.7-6.5Z"/>
  <path class="st6" d="M237.4,271.9c-.4-7.3-3.2-15.8-7.6-21.7-4.2-5.6-7.8-8.1-14.6-9.2-1.7,1.3-3.5,2.4-5.4,3.3,8.8,3.8,14.8,12,18.3,20.7,3.2,7.9,5.1,18.9,1.8,27,.5-.3,1.1-.7,1.6-1.1.8-2.1,1.5-4.2,2-6.4,0-.5,0-1.2.3-1.7,0,0,0,0,0,.1-.4,3-.4,5.1-1.9,7.8,3.5-2.6,4.3-4.7,4.9-8.8.5-3.3.9-6.7.7-10.1ZM231,260.1c-1.5-2.8-3.2-5.4-5.3-7.8-1.3-1.4-5.5-5.5-7.3-5.5-.3,0-.1,0-.4-.2l.6-.7c1.1,0,2,.6,3,1.2,4.2,2.7,8.4,8.1,9.6,13h-.1Z"/>
  <path d="M221.5,247.2c-.9-.6-1.9-1.1-3-1.2l-.6.7c.3.2.1.2.4.2,1.8,0,6,4.2,7.3,5.5,2.2,2.3,3.8,5,5.3,7.8h.1c-1.1-4.8-5.3-10.3-9.6-13Z"/>
  <path class="st6" d="M201.8,248.1c-2.1,1.8-3.2,3.9-3.3,6.7,0,.5,0,1,0,1.6,2.3,1.5,4.6,2.9,6.6,4.8,5.9,5.6,10,14.3,11.8,22.2,1.3,5.6,1.6,11.3,0,16.9,2.9-1.7,5.1-4.1,5.9-7.3,2.4-9.1-1.3-23.4-6-31.5-2.5-4.3-6.6-9.1-11.3-11-1.7,1.1-3.4,2.6-5.3,3.4,1.1-1.3,2.5-2.4,3.5-3.8,0,0,0-.2,0-.3,0-.4,0-.2,0-.7l.2-.3c-.3.1-.6.1-.9.2-.6-.2-.7-.5-1.1-.9ZM203.6,257.3c1.8,0,4.1,2.1,5.3,3.4,2,2.1,3.9,4.5,5.3,7.1,2.1,3.9,5.4,13.8,5.3,18.2-.2-.9-.3-1.8-.5-2.7-.4-2-1.2-4.1-1.8-6-.8-2.3-1.4-4.6-2.4-6.8-2.3-5-6.7-10.1-11.4-13.1,0,0,.2,0,.3,0Z"/>
  <path d="M214.7,270.4c1,2.2,1.7,4.5,2.4,6.8.7,2,1.4,4,1.8,6,.2.9.4,1.8.5,2.7,0-4.3-3.2-14.3-5.3-18.2-1.4-2.6-3.3-5-5.3-7.1-1.2-1.3-3.5-3.3-5.3-3.4,0,0-.2,0-.3,0,4.7,3,9,8.1,11.4,13.1Z"/>
  <path class="st3" d="M90.1,139c.7,3,1.5,6.1,1.3,9.2,3-1,6.1-1.9,9.1-2.8,3.4-.9,12.6-3.1,15.2-4.6v-.4c.1,0,0-.3,0-.3-.5-.4-.7-.6-.9-1.1l-.4.2.3.4v.4c-.5,0-.6,0-.8-.3-1.2-1.4-.3-3.9-1.1-5.5-.9-1.8-8.8-6-10.7-7.1-7.8,2-15.7,3.9-23.7,5.2,3.3,2.1,8,2.9,10.8,5.8.3.3.6.5.9.8Z"/>
  <path class="st6" d="M166.4,303.5c-3.8-6.3-12-15.2-19.4-17-.4,0-.7-.1-1.1-.2-2.8,1-4.2,2.2-5.8,4.6,10.8,5.1,18.6,12.9,22.7,24.3,2.5,6.9,2.5,12.8.6,19.7,1.6-2.4,2.9-4.2,3.3-7.2v-.5c.4.3.4,1.1.5,1.5.1,2.1-1.1,3.8-2.4,5.3,3-1.7,5.1-3.9,6-7.4,2-7.6-.4-16.6-4.3-23.2Z"/>
  <path class="st3" d="M101.5,86.9c2.5-.6,5.2-1,7.6-1.9,4.3,1.1,10,1.4,14.5,1.6-.7-3.6-7.1-17.9-9.6-20.1-.3,0-.5,0-.8,0-7.9,2.3-15.8,4.6-23.8,6.4,1.6,1.8,2.9,3.8,4.3,5.8,2,2.9,4.1,5.7,5.9,8.8.6-.2,1.3-.4,1.9-.5Z"/>
  <path class="st3" d="M93.6,116.5c1.4.3,5.8-1.3,7.5-1.8,5.1-1.3,10.1-1.4,15.3-1.7,0-2,.1-3.8.6-5.7-1.8-2-10.4-11.5-12-12.3-5,1.3-10,2.6-15.1,3.9-3.3.8-6.5,1.8-9.9,2.4,2.9,2.5,9.9,7.3,11.8,10.1.9,1.4,1.3,3,1.7,4.7l.2.5Z"/>
  <path d="M195.3,276.8c-4.3-5.7-12.4-11.8-19.6-12.8-.8-.1-1.7-.2-2.6-.2-3.2,2.3-6.3,5.2-8.7,8.2.6.3,1.4.7,2,.5.3-.2.5-.4.6-.8.2-.3.3-.6.6-.7,1.3-.4,2.7.3,3.8,1,4.6,3,11.2,8.7,14.1,13.3-3.1-3.2-12.6-12.8-16.7-12.9-.5,0-.8,0-1.1.4,0,.2.2.4.4.5,2.7,1.9,5.5,3.4,8,5.6,10,8.7,19.1,25.1,13.8,38.5,3.2-1.5,4.9-3.5,6-6.8,2.5-7.3.7-17.4-2.6-24.1-.6-1.2-1.3-2.4-2-3.6-4.1-6.6-10.6-12.3-18.2-14.5-.7-.2-1.9-.3-2.1-1.1.1-.2.2-.5.4-.6.5-.1,1.1,0,1.5.1,3.2.5,5.7,1.7,8.3,3.5,8.5,5.5,14.1,13.9,16.2,23.9,1.4,6.9,1.7,13.1-1.4,19.5,3.6-2.7,6.2-5,6.9-9.7,1.2-8.3-2.8-20.7-7.8-27.4Z"/>
  <path class="st7" d="M195.3,276.8c-4.3-5.7-12.4-11.8-19.6-12.8-.8-.1-1.7-.2-2.6-.2-3.2,2.3-6.3,5.2-8.7,8.2.6.3,1.4.7,2,.5.3-.2.5-.4.6-.8.2-.3.3-.6.6-.7,1.3-.4,2.7.3,3.8,1,4.6,3,11.2,8.7,14.1,13.3-3.1-3.2-12.6-12.8-16.7-12.9-.5,0-.8,0-1.1.4,0,.2.2.4.4.5,2.7,1.9,5.5,3.4,8,5.6,10,8.7,19.1,25.1,13.8,38.5,3.2-1.5,4.9-3.5,6-6.8,2.5-7.3.7-17.4-2.6-24.1-.6-1.2-1.3-2.4-2-3.6-4.1-6.6-10.6-12.3-18.2-14.5-.7-.2-1.9-.3-2.1-1.1.1-.2.2-.5.4-.6.5-.1,1.1,0,1.5.1,3.2.5,5.7,1.7,8.3,3.5,8.5,5.5,14.1,13.9,16.2,23.9,1.4,6.9,1.7,13.1-1.4,19.5,3.6-2.7,6.2-5,6.9-9.7,1.2-8.3-2.8-20.7-7.8-27.4Z"/>
  <path class="st3" d="M110,275.5c-10.3,4.4-22.3,4-33,1.4-2.3-.6-5.6-2.1-7.6-2.5-3.2,4.1-6,8.4-9,12.7-1.7,2.4-3.5,4.8-5,7.3,8.2.9,16.3,2.1,24.5,2.9,3.5.3,7.2.8,10.7.8,1.4-1.7,2.7-3.4,4-5.1,3-3.7,5.9-7.4,9.1-11,2-2.2,4.3-4.2,6.3-6.5ZM63.5,288.6c-1,1.7-1.9,3.6-2.7,5.4-.2,0-.4,0-.6-.1-.2-.3-.3-.4-.3-.8,0-3,3.9-8,6.1-10,.4.2.5.4.7.8,0,1.3-2.4,3.5-3.2,4.8ZM77.4,280.2c-.7-.4-1-.8-1.2-1.6,1.5.4,3,1.1,4.6,1.4,1.2.3,4,.5,4.9,1v.6c-2.4.6-6.1-.1-8.3-1.4Z"/>
  <path d="M80.8,280.1c-1.6-.4-3.1-1-4.6-1.4.2.8.5,1.1,1.2,1.6,2.2,1.3,5.9,2.1,8.4,1.4v-.6c-1-.5-3.8-.7-5-1Z"/>
  <path d="M66,283.1c-2.2,2-6.1,7-6.1,10,0,.4,0,.5.3.8.2,0,.4.1.6.1.8-1.8,1.7-3.7,2.7-5.4.7-1.2,3.2-3.4,3.2-4.8-.2-.4-.3-.6-.7-.8Z"/>
  <path class="st3" d="M291.6,190.3c3.6-1.5,7.6-.8,11,.7,8.7,3.7,15.1,12.3,18.6,20.9,2.4,6.1,3.6,13.7,1,20-.9,2.2-2.6,4.6-4.9,5.5-.6.2-1.4.3-2,.6-1.8,2.8-3.2,3.7-5.7,5.8,4.2,1.3,7.8,1.8,11.9-.2,4.5-2.3,7.5-6.2,9-11,3.3-10.2.6-20.5-4.2-29.8-4.7-8.9-13.4-17.6-23.2-20.6-.7-.2-1.3-.4-2-.5-.7-.1-1.4-.3-2.1-.3-.7,0-1.4-.1-2.1-.2-.7,0-1.4,0-2.1,0-3.6.3-7,1.6-9.4,4.5-2.9,3.5-3.2,7.6-3.4,11.9,1.5-.7,2.8-1.2,4.5-1.5,1-2.5,2.8-4.6,5.3-5.7Z"/>
  <path class="st3" d="M67.7,273.6c-11.3-5.3-19.8-12.5-26.9-22.9-1-1.5-4.5-7.6-5.2-8.3-.4.8-.8,1.6-1.1,2.4,2.8,4.1,5.4,8.1,8.6,11.9,2.8,3.3,5.9,6.2,8.4,9.8-5.3-3.4-10.1-8.9-13.7-14.1-1.4-2-2.6-4.2-4.1-6.3-2.2,3.5-4.2,7.2-6.1,10.9-1.3,2.6-2.5,5.2-4.2,7.6,4.3,4,8.4,8.3,12.5,12.6,3.5,3.5,7.1,7,10.6,10.5,2.2,2.1,4.5,4.5,7.1,6.2,1.6-3,3.8-5.7,5.8-8.5,2.7-3.9,5.3-8.1,8.3-11.8ZM30.4,264.7c-.3.6-1,.7-1.5,1-.4,0-.9,0-1.3,0-.5-.1-.8-.5-1.1-1,0-.5-.1-.8.2-1.2.3-.5,1.1-.6,1.6-.7.2,0,.3,0,.5,0,.8,0,1.2.2,1.7.8.1.5.2.7,0,1.2Z"/>
  <path d="M28.7,262.8c-.2,0-.3,0-.5,0-.5.1-1.3.2-1.6.7-.3.5-.3.7-.2,1.2.3.4.6.8,1.1,1,.4.1.9,0,1.3,0,.6-.2,1.2-.4,1.5-1,.3-.5.2-.7,0-1.2-.5-.6-1-.7-1.7-.8Z"/>
  <path class="st3" d="M105.3,318.4c-3-2-6.1-3-9.6-3.3-2,.3-3.7,1.2-4.9,2.9-2.5,3.6-2.2,9.5-1.5,13.5,1.9,10.4,8.6,21.9,17.5,27.9,3.2,2.1,6,3,9.8,2.9,2.2-.4,3.7-1.1,4.9-3,2.6-3.9,2.2-10.1,1.2-14.5-2.2-10.2-8.6-20.8-17.4-26.5ZM120.3,354.3c-1,2.2-2.6,3.4-4.8,4.2-2.5.4-5,0-7.3-1.1-7-3.3-12.7-12-15.2-19.1-1.6-4.6-3.1-11.3-.8-16,1-1.9,2.5-3.1,4.5-3.8,2.2,0,4.2.4,6.1,1.3,7.7,3.5,13.3,11.7,16.2,19.3,1.6,4.3,3.3,10.8,1.2,15.2Z"/>
  <path d="M102.9,319.8c-2-.9-4-1.4-6.1-1.3-2,.7-3.5,1.9-4.5,3.8-2.3,4.6-.9,11.4.8,16,2.5,7.1,8.2,15.8,15.2,19.1,2.3,1.1,4.8,1.5,7.3,1.1,2.2-.8,3.8-2,4.8-4.2,2.1-4.4.4-10.9-1.2-15.2-2.9-7.7-8.5-15.9-16.2-19.3ZM118.9,353.1c-.6,1.7-1.6,2.7-3.2,3.4-1.4.4-2.9.4-4.3,0-5.7-1.3-10.4-7.4-13.3-12.1-3.3-5.4-6.5-13.3-4.8-19.8.5-1.9,1.6-3.4,3.3-4.3,1.5-.2,2.7,0,4.1.4,6.5,2.2,11.8,8.5,14.8,14.5,2.4,4.8,5.4,12.4,3.4,17.8Z"/>
  <path class="st3" d="M100.7,320.8c-1.4-.5-2.7-.6-4.1-.4-1.7,1-2.8,2.5-3.3,4.3-1.7,6.4,1.5,14.4,4.8,19.8,2.9,4.7,7.6,10.8,13.3,12.1,1.4.3,2.9.4,4.3,0,1.6-.8,2.6-1.7,3.2-3.4,2-5.4-1-13-3.4-17.8-2.9-5.9-8.3-12.3-14.8-14.5Z"/>
  <path class="st1" d="M302.6,179.9c2.4.7,4.5,1.8,6.7,3,8.3,4.5,14.5,11.3,18.9,19.6,3.7,6.9,6,14.7,5.5,22.6,3.3-1.9,16.4-11,18.9-11.2l.2.2c-.1.6-.3.8-.8,1.2-1.4,1.3-3.4,2.3-5.1,3.3l-9.9,6.2c-1.1.7-2.2,1.3-3.4,1.8-1.5,7.1-2.8,12.3-8.8,17,7.2-2.5,30.9-15.7,34-22.4,4.5-9.6,3.4-21.6-.2-31.3-.5-1.3-2.1-5.8-3.3-6.5-2.5,1.6-20.4,13.9-22.4,13.5,1.3-2.7,21.3-14.1,21.7-15.5-.2-.4-.2-.5-.6-.7-2,.4-4.4,2.6-6.1,3.8-3.2,2.2-13.3,9.4-16.3,10.4-.4.1-.7.1-1.1,0-.1-.2-.2-.2-.1-.5.2-.5.7-.8,1-1.1,3.8-2.8,7.9-5.2,11.8-7.8,3.1-2,6.2-4.5,9.5-6.2-.5-.8-1-1.5-1.6-2.2-.6-.7-1.1-1.4-1.7-2.1-.6-.7-1.2-1.3-1.8-2-.6-.6-1.3-1.3-2-1.9-.7-.6-1.4-1.2-2.1-1.8-.7-.6-1.4-1.1-2.2-1.6-.7-.5-1.5-1-2.3-1.5-.8-.5-1.6-.9-2.4-1.3-1.7,1.6-4,2.8-5.9,4.2-4.2,2.8-10.8,8.1-15.4,9.6,4.5-3.7,9.3-7,14.1-10.4,1.8-1.3,4.1-2.5,5.6-4.1-.2-.3,0-.2-.5-.3-.4,0-.7,0-1,.1-.7.4-1.4,1.1-2.1,1.6-2.9,1.9-17.1,12.5-19.3,12.5.4-1.6,18-13.4,20.6-15-3.9-1.5-7.9-2.2-12-1.8-6.9,1.1-18.5,9.9-24.5,13.8-2.9,1.9-6.5,3.7-9,6.1,4.8-2.6,9.9-2.8,15.1-1.3ZM355.1,215.4c0,.2,0,.3-.2.5-1,2-17.6,12.6-20.5,13.7-.3-.3-.2-.1-.3-.5,1.8-1.8,5.3-3.8,7.5-5.3,4.3-3,8.7-5.9,13.1-8.7.1.1.2.3.3.4Z"/>
  <path d="M334.1,229.1c.1.4,0,.2.3.5,2.9-1.1,19.5-11.7,20.5-13.7.1-.3.1-.3.2-.5,0-.1-.2-.3-.3-.4-4.4,2.9-8.8,5.8-13.1,8.7-2.2,1.5-5.7,3.5-7.5,5.3Z"/>
  <path class="st8" d="M108.1,208.7c-4.2-3.3-8.8-6.3-13.5-8.7-8.9-4.4-20.2-7.2-30.1-6.6-10.3.8-19.5,4.5-26.3,12.6-4.7,5.5-6,11.9-5.4,19.1,1.2,14.7,10.6,29,21.7,38.4,11.2,9.4,26.9,14.7,41.5,13.5,0,0,.2,0,.2,0,10-1.1,18.1-3.6,24.6-11.7,3.9-4.9,6.4-9.2,7.1-15.5.2-2.1.3-4.3,0-6.4-1.7-15.3-8-25.2-19.9-34.6ZM68.5,197.9c.3-1.2,1.4-2,2.4-2.6,1.3-.2,2.5,0,3.7.4,1.9.7,4,2.3,4.8,4.2.2.4.3.7,0,1.1-1.1,0-2.2-1.7-3.1-2.4-1-.9-2.5-1.6-3.9-1.5-.7,0-1.3.3-1.7.9-.3.4-.3.9,0,1.4.6,1.6,2.5,2.4,3.9,3,2.5.7,5.7.6,7.7,1.2.4.1.4.2.6.5-.2.5-.2.5-.6.8-1.7.4-4.1-.2-5.7-.5-2.8-.6-5.9-1.6-7.5-4.2-.4-.7-.7-1.6-.5-2.4ZM75.8,201.2c-1.2-.3-2.9-1.4-3.5-2.5-.3-.5-.2-.8,0-1.3,1.1.6,2.6,2,3.4,3,.3.4.2.4.1.8ZM35.8,215.6c-.6-.7-.7-1.3-.6-2.2.3-3.2,2.8-7.1,5.2-9.1.3,0,.1,0,.5.3-.3,1.4-1.8,3-2.4,4.3-1.1,2.2-1.9,4.5-2.6,6.8,0,0,0,0,0,0ZM42.7,245.7c0,0-.2,0-.2,0-1-.5-2-2.5-2.4-3.5-.8-1.9-1.1-3.4-.3-5.3.2,0,.3.2.5.3,0,3.9,2.3,5.2,2.9,7.7,0,.4-.1.5-.4.8ZM47.3,228.4c-.5,1.1-1.7,1.6-2.8,2-1.1.2-2.1.1-3.1-.2-1.5-.5-3-1.5-3.7-3-.4-.9-.6-1.9-.2-2.8.5-1.3,1.6-1.9,2.7-2.4,1,0,1.9,0,2.8.3,1.7.7,3.6,2.2,4.3,3.9.3.7.4,1.5,0,2.2ZM84.1,270.2c-.4,1.2-1.5,1.7-2.6,2.2-1.2.1-2.2.2-3.3-.2-1.6-.6-3.3-1.9-4-3.5-.3-.8-.4-1.6-.1-2.4.5-1.1,1.5-1.7,2.6-2.2.9,0,1.7,0,2.5.2,1.8.6,3.8,1.9,4.7,3.7.3.7.4,1.5.2,2.2ZM108,270.4c-2.6,3-9.6,4.2-13.3,4.4-.2,0-.3-.2-.4-.3,0-.1,0-.3.1-.4.5-1,2-.9,3-1,3.8-.4,7.2-2,10.6-3.5.2,0,.1,0,.3.3-.1.2-.1.3-.3.5ZM113.3,245c-.3,5-2.5,9.7-6.3,13.1-5.4,4.8-13.8,5.6-20.7,5.1-.4,0-.7,0-1.1,0-.4,0-.7,0-1.1-.1-.4,0-.7,0-1.1-.1-.4,0-.7-.1-1.1-.2-.4,0-.7-.1-1.1-.2-.4,0-.7-.1-1.1-.2-.4,0-.7-.2-1.1-.3-.3,0-.7-.2-1-.3-.3,0-.7-.2-1-.3-.3-.1-.7-.2-1-.3-.3-.1-.7-.2-1-.4s-.7-.2-1-.4c-.3-.1-.7-.3-1-.4-.3-.1-.7-.3-1-.4-.3-.1-.7-.3-1-.5-.3-.2-.6-.3-1-.5s-.6-.3-1-.5c-.3-.2-.6-.3-.9-.5-.3-.2-.6-.4-.9-.5-.3-.2-.6-.4-.9-.6-.3-.2-.6-.4-.9-.6-.3-.2-.6-.4-.9-.6-.3-.2-.6-.4-.9-.6-.3-.2-.6-.4-.9-.7-.3-.2-.6-.4-.8-.7-.3-.2-.6-.5-.8-.7-.3-.2-.5-.5-.8-.7-.3-.2-.5-.5-.8-.7-.3-.2-.5-.5-.8-.8-.3-.3-.5-.5-.8-.8-.2-.3-.5-.5-.7-.8-.2-.3-.5-.5-.7-.8-1.9-2.2-6.6-8.7-6.2-11.6,0-.3,0-.2.3-.4.3.2.2.1.4.4.3.7.6,1.4,1,2,.3.7.7,1.3,1.1,2,.4.6.8,1.3,1.2,1.9.4.6.8,1.2,1.3,1.8.4.6.9,1.2,1.4,1.8.5.6,1,1.1,1.5,1.7.5.6,1,1.1,1.6,1.6.5.5,1.1,1,1.6,1.5,8.5,7.6,19.2,11.6,30.7,10.9,5.5-.3,11.7-2,15.4-6.2,3.4-3.9,4.6-8.8,4.2-13.8-.6-8.8-6.5-17.4-13-23-.9-.8-1.9-1.6-2.9-2.3-7.2-5.5-19.9-10.4-29.1-9.1-4.6.6-9,2.7-11.8,6.4-3.5,4.7-3.5,9.8-2.6,15.4.2-4.5.7-8.8,3.6-12.4,3.2-4,8.1-6.3,13.1-6.8,9.5-1,20,3.3,27.2,9.3,6.3,5.2,11.9,13.6,12.6,21.9.4,4.5-.4,9-3.4,12.5-3.5,4.1-9.3,6-14.5,6.4-9.4.8-19.9-3.7-27-9.8-6.8-5.8-13.3-16.3-13.9-25.4,0-.3,0-.6,0-.9,0-.3,0-.6,0-.9,0-.3,0-.6,0-.9s0-.6,0-.9c0-.3,0-.6.1-.9,0-.3.1-.6.2-.9,0-.3.1-.6.2-.9,0-.3.2-.6.3-.9,0-.3.2-.6.3-.8.1-.3.2-.6.3-.8.1-.3.2-.5.4-.8s.3-.5.4-.8c.1-.3.3-.5.5-.8.2-.3.3-.5.5-.7.2-.2.4-.5.5-.7s.4-.5.6-.7c3.8-4.4,9-5.9,14.6-6.3.3,0,.6,0,.8,0,1.9,0,3.9.5,5.8.8,10.6,2,20.8,7.2,28.1,15.3,5.9,6.6,10.1,14.9,9.6,23.9ZM118.7,238.6c-1.1-.2-3.1-3.2-3.7-4.1-1.2-1.7-3.3-4.8-2.9-7,.4-1.9,2.2-3.5,3.7-4.6.8-.1,1.5,0,2.2.5,2.2,1.3,4.6,3.9,5.2,6.4.6,2.7-2.1,6.7-3.5,8.9-.3,0-.7,0-1,0ZM127.4,246.4c-.3.5-.5,1-1,1.2,0,0,0-.1,0-.2-.5-1.8-.2-5.2-2.1-6.2-.4-.2-.8-.3-1.3-.2-.5.1-.8.5-.9.9-.4.9,0,2.2.4,3,.6,1.2,1.5,2.2,2.3,3.2-.7-1.5-1.1-3.1-1.4-4.7,0-.3-.1-.5-.2-.8l.2-.4c1.3.9,1,4.4,2.4,5.8-.7.3-1.5.3-2.2.3-2.1-1.1-2.9-2.8-3.7-5,.3-1,.6-2,1.3-2.8.5-.6,1.1-1,1.9-1.1.9,0,1.7.3,2.4.9,1.7,1.5,2,3.7,2.2,5.8v.2Z"/>
  <path d="M72.3,197.4c-.2.5-.3.8,0,1.3.6,1.1,2.3,2.2,3.5,2.5,0-.4.1-.4-.1-.8-.7-1-2.3-2.4-3.4-3Z"/>
  <path d="M40.2,237.1c-.2-.1-.3-.2-.5-.3-.8,1.9-.5,3.4.3,5.3.4,1,1.4,3.1,2.4,3.5,0,0,.2,0,.2,0,.2-.3.4-.5.4-.8-.5-2.5-2.8-3.8-2.9-7.7Z"/>
  <path d="M40.9,204.6c-.4-.3-.2-.2-.5-.3-2.4,2-4.9,5.9-5.2,9.1,0,.9,0,1.5.6,2.2,0,0,0,0,0,0,.7-2.3,1.5-4.6,2.6-6.8.7-1.3,2.1-2.9,2.4-4.3Z"/>
  <path d="M108,269.7c-3.4,1.5-6.8,3.1-10.6,3.5-1,0-2.4,0-3,1,0,.1,0,.3-.1.4.1.2.2.3.4.3,3.7-.3,10.7-1.4,13.3-4.4.2-.2.2-.3.3-.5-.2-.3,0-.2-.3-.3Z"/>
  <path d="M76.4,204.5c1.6.3,4.1.9,5.7.5.4-.3.5-.4.6-.8-.2-.3-.2-.4-.6-.5-2-.6-5.2-.5-7.7-1.2-1.4-.6-3.3-1.4-3.9-3-.2-.5-.2-1,0-1.4.4-.6,1-.9,1.7-.9,1.4-.2,2.9.6,3.9,1.5.8.7,1.9,2.4,3.1,2.4.2-.4.1-.7,0-1.1-.8-1.9-2.8-3.5-4.8-4.2-1.2-.4-2.5-.6-3.7-.4-1,.6-2.1,1.4-2.4,2.6-.2.8,0,1.7.5,2.4,1.6,2.6,4.7,3.6,7.5,4.2Z"/>
  <path d="M122.9,239.5c-.8,0-1.4.5-1.9,1.1-.7.8-1,1.8-1.3,2.8.8,2.2,1.6,3.9,3.7,5,.7,0,1.6,0,2.2-.3-1.4-1.4-1.1-4.9-2.4-5.8l-.2.4c.1.3.2.5.2.8.2,1.7.7,3.2,1.4,4.7-.9-1-1.8-2-2.3-3.2-.4-.9-.8-2.1-.4-3,.2-.4.5-.8.9-.9.5-.1.9,0,1.3.2,1.9,1,1.5,4.4,2.1,6.2,0,0,0,.1,0,.2.5-.2.7-.7,1-1.2v-.2c0-2.1-.4-4.3-2.1-5.8-.7-.6-1.5-1-2.4-.9Z"/>
  <path d="M79.2,264.3c-.8-.3-1.7-.3-2.5-.2-1.1.5-2.1,1-2.6,2.2-.3.8-.2,1.6.1,2.4.7,1.6,2.4,2.9,4,3.5,1.1.4,2.2.3,3.3.2,1.1-.5,2.1-1,2.6-2.2.3-.7.2-1.5-.2-2.2-.8-1.8-2.9-3.1-4.7-3.7ZM82,270c-.3.5-.9.7-1.4.9-1.7-.2-3.4-.8-4.4-2.2-.4-.5-.6-1-.4-1.6.2-.8.9-1.1,1.6-1.5.5,0,1,0,1.5.2,1.2.4,2.6,1.6,3.1,2.7.2.5.3,1,0,1.5Z"/>
  <path class="st8" d="M78.8,265.7c-.5-.2-1-.2-1.5-.2-.7.4-1.4.7-1.6,1.5-.2.6,0,1.2.4,1.6,1.1,1.4,2.8,2,4.4,2.2.5-.2,1.2-.3,1.4-.9.3-.5.2-1,0-1.5-.5-1.1-2-2.3-3.1-2.7Z"/>
  <path d="M43,222.4c-.9-.3-1.8-.4-2.8-.3-1.2.5-2.3,1.1-2.7,2.4-.4.9-.2,2,.2,2.8.7,1.5,2.1,2.5,3.7,3,1.1.3,2,.4,3.1.2,1.1-.4,2.3-.8,2.8-2,.3-.7.3-1.5,0-2.2-.7-1.7-2.5-3.2-4.3-3.9ZM45.9,227.8c-.2.6-.7.8-1.3,1-.8,0-1.5.1-2.3,0-1.1-.3-2.5-1.1-3.1-2.1-.3-.5-.4-1-.2-1.6.3-.8.9-1.2,1.6-1.6.5,0,1,.2,1.5.3,1.3.3,3,1.6,3.6,2.8.2.4.3.8.1,1.3Z"/>
  <path class="st8" d="M42.2,223.7c-.5-.1-1-.2-1.5-.3-.7.4-1.3.8-1.6,1.6-.2.5,0,1.1.2,1.6.6,1,2,1.9,3.1,2.1.8.2,1.5.1,2.3,0,.5-.2,1-.4,1.3-1,.2-.5,0-.9-.1-1.3-.6-1.2-2.3-2.5-3.6-2.8ZM44.1,227.5c-.5,0-1,0-1.5,0-.6-.2-1.1-.6-1.4-1.1-.3-.7-.2-1.3,0-2,.9.8,1,1.8,2.2,2.3.4.2.5.2.8.5l-.2.4Z"/>
  <path d="M41.3,224.3c-.3.7-.4,1.3,0,2,.3.6.8.9,1.4,1.1.5.1,1,.1,1.5,0l.2-.4c-.3-.3-.4-.3-.8-.5-1.3-.6-1.3-1.6-2.2-2.3Z"/>
  <path d="M123.2,229.8c-.6-2.5-2.9-5.1-5.2-6.4-.7-.4-1.4-.6-2.2-.5-1.5,1.1-3.3,2.7-3.7,4.6-.4,2.2,1.6,5.3,2.9,7,.6.9,2.7,3.8,3.7,4.1.3,0,.7,0,1,0,1.4-2.2,4.1-6.2,3.5-8.9ZM120.6,234c-.5,1-1,2-1.5,2.9-1.3-1.6-4.8-6-4.6-8,0-.7.4-.9.9-1.3,1.1,2.6,2.1,4.9,4.6,6.5.1-.6,0-.7-.3-1.2-1.1-1.8-2.5-4.1-3.7-5.8l1.4-1.9c1.7,1.4,4.1,3.2,4.2,5.6,0,1.1-.5,2.3-1,3.3Z"/>
  <path class="st8" d="M115.3,227.6c-.5.5-.8.6-.9,1.3-.1,2,3.4,6.4,4.6,8,.6-1,1.1-1.9,1.5-2.9h-.7c-2.4-1.6-3.5-3.8-4.6-6.4Z"/>
  <path class="st3" d="M117.3,225.2l-1.4,1.9c1.2,1.7,2.6,4,3.7,5.8.3.5.4.7.3,1.2h.7c.5-1,1-2.3,1-3.4-.1-2.4-2.6-4.1-4.2-5.6Z"/>
  <path d="M75.7,205.8c-1.9-.4-3.9-.7-5.8-.8-.3,0-.6,0-.8,0-5.6.4-10.8,2-14.6,6.3-.2.2-.4.5-.6.7s-.4.5-.5.7c-.2.2-.3.5-.5.7-.2.3-.3.5-.5.8-.1.3-.3.5-.4.8s-.3.5-.4.8c-.1.3-.2.5-.3.8-.1.3-.2.6-.3.8,0,.3-.2.6-.3.9,0,.3-.2.6-.2.9,0,.3-.1.6-.2.9,0,.3,0,.6-.1.9,0,.3,0,.6,0,.9s0,.6,0,.9c0,.3,0,.6,0,.9,0,.3,0,.6,0,.9.6,9.1,7.1,19.6,13.9,25.4,7.1,6,17.5,10.5,27,9.8,5.2-.4,11.1-2.3,14.5-6.4,3-3.5,3.8-8.1,3.4-12.5-.7-8.3-6.3-16.7-12.6-21.9-7.2-6-17.7-10.3-27.2-9.3-5,.5-9.9,2.7-13.1,6.8-2.9,3.6-3.3,8-3.6,12.4-.8-5.6-.9-10.6,2.6-15.4,2.8-3.8,7.2-5.8,11.8-6.4,9.2-1.3,21.9,3.6,29.1,9.1,1,.8,2,1.5,2.9,2.3,6.5,5.6,12.3,14.2,13,23,.4,5-.9,10-4.2,13.8-3.7,4.3-10,5.9-15.4,6.2-11.5.7-22.2-3.3-30.7-10.9-.6-.5-1.1-1-1.6-1.5-.5-.5-1.1-1.1-1.6-1.6-.5-.6-1-1.1-1.5-1.7-.5-.6-.9-1.2-1.4-1.8-.4-.6-.9-1.2-1.3-1.8-.4-.6-.8-1.3-1.2-1.9-.4-.6-.7-1.3-1.1-2-.3-.7-.7-1.3-1-2-.1-.3,0-.2-.4-.4-.3.2-.3.1-.3.4-.4,2.9,4.3,9.5,6.2,11.6.2.3.5.5.7.8.2.3.5.5.7.8.2.3.5.5.8.8.3.3.5.5.8.8.3.2.5.5.8.7.3.2.5.5.8.7.3.2.5.5.8.7.3.2.6.5.8.7.3.2.6.4.9.7.3.2.6.4.9.6.3.2.6.4.9.6.3.2.6.4.9.6.3.2.6.4.9.6.3.2.6.4.9.5.3.2.6.4.9.5.3.2.6.3,1,.5s.6.3,1,.5c.3.2.7.3,1,.5.3.1.7.3,1,.4.3.1.7.3,1,.4.3.1.7.3,1,.4s.7.2,1,.4c.3.1.7.2,1,.3.3.1.7.2,1,.3.3,0,.7.2,1,.3.3,0,.7.2,1.1.3.4,0,.7.2,1.1.2.4,0,.7.1,1.1.2.4,0,.7.1,1.1.2.4,0,.7.1,1.1.1.4,0,.7,0,1.1.1.4,0,.7,0,1.1,0,6.9.5,15.3-.3,20.7-5.1,3.8-3.3,6-8,6.3-13.1.5-9-3.7-17.3-9.6-23.9-7.3-8.1-17.4-13.3-28.1-15.3ZM54.2,224.4c.3-.7,1.2-1.4,1.9-1.6,4.3-1.4,7.5-1.8,12-1,1.5.3,3.1.7,4.6.7v-.3c-.2-.3-.6-.5-1-.7-1.3-.7-2.7-.9-4.1-1.1-4.6-.7-8.3-.3-12.8,1.2.5-1.2,1-2.3,1.7-3.3,3-4.1,7.1-6.3,12-7.1,3.1-.4,6.3,0,9.3.6,10.2,2.2,19.5,8.9,25.1,17.7,3.1,4.9,5.1,11.5,3.8,17.3-.9,4.1-3.5,6.6-7,8.7-.5-7.4-4.4-13.5-9.4-18.8-.2-.2-.5-.5-.7-.7-.2-.2-.5-.5-.8-.7-.3-.2-.5-.5-.8-.7-.3-.2-.5-.4-.8-.7-.3-.2-.5-.4-.8-.6-.3-.2-.5-.4-.8-.6-.3-.2-.6-.4-.8-.6-.3-.2-.6-.4-.9-.6-.3-.2-.6-.4-.9-.6-.3-.2-.6-.4-.9-.5-.3-.2-.6-.3-.9-.5-.3-.2-.6-.3-.9-.5-.3-.2-.6-.3-.9-.5-.3-.2-.6-.3-.9-.4-.3-.1-.6-.3-.9-.4-.3-.1-.6-.3-.9-.4-.3-.1-.6-.3-1-.4-.3-.1-.6-.2-1-.4-.3-.1-.6-.2-1-.3-.3-.1-.7-.2-1-.3-.3,0-.7-.2-1-.3-.3,0-.7-.2-1-.3-.3,0-.7-.2-1-.2-.3,0-.7-.1-1-.2-.3,0-.7-.1-1-.2s-.7-.1-1-.2c-.3,0-.7,0-1-.1-.3,0-.7,0-1-.1-.3,0-.7,0-1,0-.3,0-.7,0-1,0-.3,0-.7,0-1,0-.3,0-.7,0-1,0-1.6,0-5.1,1.2-6.3.8-.2,0-.3-.3-.4-.4,0-.3,0-.3.2-.6ZM60.8,226.4c.5,0,1,0,1.5,0,7.3-.2,14.6,2.8,20.6,6.7,6.6,4.4,11.9,10.7,14.4,18.2.5,1.6.8,3.3,1.1,4.9-2.1.6-4.2,1.3-6.3,1.7h-.4c-.7,0-1.3,0-2,0-9.6,0-18.6-3.7-25.7-10.2-4.2-3.8-8.2-9.2-9.5-14.8-.4-1.7-.5-3.4-.6-5.2,2.3-1.2,4.4-1.3,6.9-1.3Z"/>
  <path class="st3" d="M54.4,225.4c1.2.3,4.7-.8,6.3-.8.3,0,.7,0,1,0,.3,0,.7,0,1,0,.3,0,.7,0,1,0,.3,0,.7,0,1,0,.3,0,.7,0,1,.1.3,0,.7,0,1,.1.3,0,.7.1,1,.2s.7.1,1,.2c.3,0,.7.1,1,.2.3,0,.7.2,1,.2.3,0,.7.2,1,.3.3,0,.7.2,1,.3.3,0,.7.2,1,.3.3.1.7.2,1,.3.3.1.6.2,1,.4.3.1.6.3,1,.4.3.1.6.3.9.4.3.1.6.3.9.4.3.1.6.3.9.4.3.2.6.3.9.5.3.2.6.3.9.5.3.2.6.3.9.5.3.2.6.4.9.5.3.2.6.4.9.6.3.2.6.4.9.6.3.2.6.4.8.6.3.2.6.4.8.6.3.2.5.4.8.6.3.2.5.4.8.7.3.2.5.4.8.7.3.2.5.5.8.7.2.2.5.5.7.7,5.1,5.2,8.9,11.3,9.4,18.8,3.5-2.2,6-4.6,7-8.7,1.3-5.8-.7-12.4-3.8-17.3-5.6-8.8-14.8-15.5-25.1-17.7-3-.6-6.2-1-9.3-.6-4.9.8-9.1,3-12,7.1-.7,1-1.3,2.1-1.7,3.3,4.5-1.5,8.1-1.9,12.8-1.2,1.4.2,2.8.5,4.1,1.1.4.2.8.4,1.1.7v.3c-1.7,0-3.3-.4-4.8-.7-4.5-.8-7.7-.4-12,1-.7.2-1.6.9-1.9,1.6-.1.3-.1.3-.2.6.1.2.1.4.4.4ZM100.6,242.3c.5,1.6,1.4,4.6.5,6.1-.8-1.1-.9-3.2-1.3-4.5-.2-.7-.4-1.4-.7-2.1-.3-.7-.6-1.4-.9-2-.3-.7-.7-1.3-1.1-1.9-.4-.6-.8-1.2-1.2-1.8-1.2-1.6-2.7-3.3-4.1-4.7-1.5-1.5-7.5-6.2-8.2-7.6-.2-.3,0-.5.2-.8,0,0,0,0,.1,0,1.4.8,2.8,2.1,4,3.2,5.5,4.5,10.6,9.1,12.7,16.2ZM96,230.2c-1.2-.2-2.3-.8-3.2-1.6-1.1-.9-1.7-1.9-1.8-3.3,1.1.4,4.4,3.8,5,4.8ZM63.2,215.6l-.2-.2c0-.1,0-.2.2-.3.8-1.2,4.1-1.4,5.4-1.6.7,0,1.4,0,2.1,0,7.7.4,16.2,4.2,21.4,10-3.3-.9-6-3.3-9-5-.7-.4-1.5-.7-2.3-1.1-.4.4-.9,1.1-1.4,1.2-.5,0-.7,0-1.1-.2v-.3c.1-.4.2-.7.5-1l.2-.3c-.4-.4-1.3-.5-1.9-.7-.2.2-.5.4-.7.6-.8.7-1.8,1.4-3,1.3v-.3c.7-1.1,1.7-1.5,2.8-2.1-5.7-.9-7.5-.6-13,0Z"/>
  <path d="M92.7,228.7c.9.8,2.1,1.3,3.2,1.6-.6-1-3.9-4.4-5-4.8.1,1.4.7,2.4,1.8,3.3Z"/>
  <path d="M87.9,226.1c-1.3-1-2.6-2.4-4-3.2,0,0,0,0-.1,0-.1.3-.4.5-.2.8.7,1.4,6.7,6.2,8.2,7.6,1.5,1.4,2.9,3,4.1,4.7.4.6.9,1.2,1.2,1.8.4.6.7,1.3,1.1,1.9.3.7.6,1.3.9,2,.3.7.5,1.4.7,2.1.4,1.3.5,3.4,1.3,4.5.8-1.5,0-4.5-.5-6.1-2.1-7.1-7.2-11.7-12.7-16.2Z"/>
  <path d="M73.4,217.6v.3c1.2.1,2.2-.6,3-1.3.2-.2.5-.4.7-.6.6.2,1.5.3,1.9.7l-.2.3c-.3.3-.4.6-.6,1v.3c.5.2.6.3,1.1.2.5-.1,1.1-.8,1.4-1.2.8.3,1.6.6,2.3,1.1,3,1.7,5.6,4.1,9,5-5.2-5.8-13.7-9.6-21.4-10-.7,0-1.4,0-2.1,0-1.3.1-4.6.3-5.4,1.6,0,.1-.1.2-.2.3l.2.2c5.5-.6,7.4-.9,13,0-1.1.6-2.1,1-2.8,2.1Z"/>
  <path class="st5" d="M64,247.7c7.1,6.5,16.1,10.2,25.7,10.2-9.6,0-18.5-3.7-25.6-10.2-4.2-3.8-8.2-9.2-9.5-14.8-.4-1.7-.5-3.4-.6-5.2,2.3-1.2,4.4-1.3,6.9-1.3.5,0,1,0,1.4,0-.5,0-1,0-1.5,0-2.5,0-4.6.2-6.9,1.3,0,1.8.2,3.5.6,5.2,1.3,5.6,5.3,10.9,9.5,14.8Z"/>
  <path class="st8" d="M136,39.6c-1.7,2.3-3.7,2.8-3.2,5.9.7,4.4,1.8,8.9,2.7,13.3.3,1.5.8,3.1,1,4.6,0,.4.1.8-.1,1.1-.3.4-.7.6-1.2.6-1.4.2-13.8-4.1-15.9-4.9-1.4,1.7-2.3,3.6-3.6,5.3,2.3,3.3,10.1,18,9.6,21.4,0,.3-.2.8-.5.9-2.1,1.1-11.9-.7-14.9-.8-1.5,2.2-2.5,4.3-3.3,6.9,3.7,4.6,9.2,8.2,12.5,13.1-.2,2.6-.6,5.5-.6,8.1-4.7,1.9-9.8,2.7-14.6,4.3-.1,2.2-.2,4.3-.4,6.5,4.8,2.7,9.5,5.8,14.4,8.3-.4,3.1.5,6,.7,9.1,0,0-.1,0-.2.1-4.1,2.9-10,5-13.9,8.2,0,.6,0,.2.2.6.6,1.2.1,3.7,0,5,0,0,.1,0,.2,0,1.3.7,2.7,1,4.1,1.4,3.2.9,9.1,2,11.9,3.4v.3c0,0,.1-.1.1-.1,0,.5,0,.8-.2,1.3-.6,2.1.5,5.3,1.1,7.3-1.5,1.6-3.1,3.1-4.8,4.5-1.7,1.4-3.4,2.8-5.1,4.1.3,1.2,1.4,6.6,1.7,7.1,3.2,1,14.3.9,16.4,2.3.1.7-.5,1-.4,1.6.3,2.1,1.2,4.3,1.6,6.4-2.8,5.8-7.2,10.8-10.3,16.5,0,.7.1,1.4.2,2.1h.3c5.8-.3,12-2.3,17.5-3.9.9-.3,1.8-.8,2.6-1,.5-.1.8,0,1.1.2.4.3.5.7.6,1.1-.3.4-1.1.9-1.2,1.2-.5,2,0,5.1-.3,7.3-.7,6-2,12.5-3.5,18.4,4.1-1.6,8.1-3.2,11.9-5.4,2.1-1.2,4.1-2.7,6.3-3.8.6,1,1.4,2.1,1.7,3.3,1.7,5.6-1.4,15.3-1.3,21.4,7.2-2,11.1-4.4,16.5-9.5.5-.5,1.3-1.4,2.2-.9,1.1.6,1.4,2.2,1.7,3.3.8,3.6,1,7.4,1.3,11,0,.9,0,1.8.5,2.5.2.2.3.3.6.3.9-.2,2.2-1.4,2.9-2,0-.6,0-2.3.5-2.6.5-.4,1.5-.5,2.1-.7,1.2-.4,2.2-1.1,3.3-1.6l2.2.3c1.6-1.6,4-4.5,6.4-4.4.3,0,.5,0,.8,0,1.9-2.4,4.1-4.5,6.4-6.6,1.2.1,2.4.3,3.6.5,1.4-1.2,3.3-1.6,4.7-2.8,4.7-3.7,3.5-5.9,10.6-5.2,1-.9,4-2.9,4.7-3.7.2-.2.2-.5.3-.7.4-1.5,2.6-2.8,3.7-3.9h2.6c2.1-2.1,3.8-3.5,6.6-4.5,2.1-2.7,3-3.2,6.4-3.7,2.7-2.3,4.2-3.5,7.7-4.5-.5-1.5-1.4-2.8-2-4.2.6-1.2,2-4.9,3.3-5.3,2-.6,9.4.1,11.9.3.8-.8,1.5-1.6,2.3-2.4-1.3-6-6.7-13.2-9.7-18.8.5-2.4,1.1-4.9,2.5-6.9,2-.5,4.1-1,6.2-1.4,2.5-.4,5.7-.6,8-1.6.4-.2.8-.5,1-.9.4-.8.2-1.8-.2-2.6-.6-1.3-1.6-2.4-2.4-3.5-1.7-2.1-3.4-4.1-5.2-6.1-1.5-1.7-3.2-3.4-4.5-5.3.2-2.1.4-4.2,1-6.3l.2-.2c1.8-1.2,13.2-5.9,13.5-7,.3-1.2-.1-3-.3-4.2-1.1-1-2.5-1.8-3.8-2.5-3.6-2.1-8.5-4.4-11.7-6.8-.6-2.1-.7-4.5-.9-6.7,3.9-4.7,8.2-9,11.8-13.9-.4-1.2-.9-2.5-1.2-3.7-5.3-1.9-11.2-2.1-16.5-3.9-.9-2.2-1.4-4.7-2.1-7,.8-3.3,2.7-6.1,4.2-9,1.3-2.5,2.5-5.2,3.7-7.8-.7-1.3-1.3-2.7-2.2-3.9-3.2.5-6.5.8-9.8,1.3-1.8.3-3.8,1-5.6,1.1-.3,0-.4,0-.7-.3-1.2-1-1.9-2.6-2-4.1-.2-2.9.5-5.8.8-8.6.4-4.2.6-8.5,1.3-12.6-.7-.8-1.4-1.6-2.2-2.4-4,2.8-8.5,5.3-12.3,8.4-.9-.2-2.3-.3-2.8-1.1-1.1-1.5-1.7-21-1.7-24.2l-4.1-2.6c-3.1,4.9-6.8,9.7-10.5,14.3-.8-.5-1.4-1-1.9-1.9-1.3-2.2-2-4.9-2.7-7.4-1.3-4.3-2.5-8.8-4-13-1.4-.6-2.8-1.3-4.2-1.8-1.1,2.8-5.6,17.6-7.2,18.6-1.2-.2-1.9-.8-2.6-1.8-2.3-3.1-4.2-6.7-6.2-10-.8-1.4-1.5-3.1-2.6-4.4-1-1.2-3-2.7-4.6-3.1-.5,1.4-1.3,2.7-1.6,4.1-.8,3.6-1.2,15.5-3.4,17.7-.7.2-1,0-1.6-.3-1.6-.9-2.9-2.4-4.2-3.7-2.6-2.6-7.1-7.7-10-9.5-1,1.1-2.3,2.3-3,3.6-1,2-.5,7.5-.3,9.9.2,2.8,1.1,6.6.2,9.2-.4.5-.9.7-1.5,1-3-1.6-5.8-3.6-8.6-5.4-2.4-1.5-5-2.9-7.2-4.8ZM186.6,44.2c.1,0,.2,0,.3,0,14.3-.3,28.3,6.5,38.7,16.1,8.5,7.8,15.4,17.4,20.7,27.6,1.7,3.4,3.5,6.7,5,10.2,6.1,14.5,8.8,30.3,9.4,45.9,1,26.4-5.7,57.7-24.2,77.5-8.7,9.4-21.8,17.6-34.9,18.1-.3,0-.6,0-.9,0-13.4.6-27.2-7.1-36.8-16-7.5-6.9-13.3-14.9-18.4-23.6-.7-1.2-1.4-2.3-2-3.5-.6-1.2-1.3-2.4-1.9-3.6-.6-1.2-1.2-2.4-1.8-3.6-.6-1.2-1.1-2.4-1.7-3.7s-1.1-2.5-1.6-3.7c-.5-1.2-1-2.5-1.4-3.8s-.9-2.5-1.3-3.8c-.4-1.3-.8-2.6-1.2-3.8-.4-1.3-.8-2.6-1.1-3.9-.3-1.3-.7-2.6-1-3.9-.3-1.3-.6-2.6-.9-3.9-.3-1.3-.5-2.6-.7-4-.2-1.3-.4-2.7-.6-4-.2-1.3-.4-2.7-.5-4-.1-1.3-.3-2.7-.4-4-.1-1.3-.2-2.7-.3-4-1.1-26.3,2.7-56,21.3-76.2,10.4-11.3,22.7-17.9,38.3-18.6Z"/>
  <path d="M127,138.9c0,1.3.2,2.7.3,4,.1,1.3.2,2.7.4,4,.1,1.3.3,2.7.5,4,.2,1.3.4,2.7.6,4,.2,1.3.5,2.6.7,4,.3,1.3.6,2.6.9,3.9.3,1.3.6,2.6,1,3.9.3,1.3.7,2.6,1.1,3.9.4,1.3.8,2.6,1.2,3.8.4,1.3.9,2.5,1.3,3.8s.9,2.5,1.4,3.8c.5,1.2,1,2.5,1.6,3.7s1.1,2.5,1.7,3.7c.6,1.2,1.2,2.4,1.8,3.6.6,1.2,1.2,2.4,1.9,3.6.6,1.2,1.3,2.3,2,3.5,5.1,8.7,10.9,16.8,18.4,23.6,9.6,8.9,23.4,16.6,36.8,16,.3,0,.6,0,.9,0,13.1-.5,26.2-8.7,34.9-18.1,18.5-19.9,25.2-51.1,24.2-77.5-.6-15.6-3.3-31.4-9.4-45.9-1.5-3.5-3.2-6.9-5-10.2-5.3-10.2-12.2-19.8-20.7-27.6-10.4-9.6-24.4-16.4-38.7-16.1-.1,0-.2,0-.3,0-15.5.6-27.9,7.3-38.3,18.6-18.6,20.1-22.4,49.9-21.3,76.2ZM136.2,175.7c-2.5-5.4-3.9-12.4-5.3-18.3,3-1.2,5.9-2.3,9-3.1h.4c-.4,1.2-3.2,2.6-4,6.4-.7,3.4.4,7.2,2.4,10,2,2.8,4.6,3.9,7.8,4.5-1.5.7-2.9,1.1-4.6,1.3-2.2.2-3.8,0-5.8-.8ZM143.5,154.9c1.2,0,2.2.3,3.2,1,2.5,1.9,4.8,6.5,5.2,9.6.3,1.9-.3,4.2-1.4,5.7-1.1,1.4-2.3,1.7-3.9,1.9-1.4,0-2.5-.2-3.7-1-2.2-1.3-3.7-3.7-4.3-6.2-.7-2.7-.6-5.7.9-8.1,1-1.5,2.4-2.6,4.1-3ZM143,191.3c-2.4-4.4-4.5-8.9-6.3-13.5,3.9.7,7.6.7,11.1-1.4,3.4-2,5-4.9,5.9-8.6,1.1,2,1.8,4.4,2.8,6.5.2.4.4.7.5,1.1.2.4.4.7.6,1.1.2.4.4.7.6,1.1.2.4.4.7.6,1.1.2.4.4.7.6,1.1.2.3.4.7.7,1,.2.3.5.7.7,1,.2.3.5.7.7,1,.2.3.5.7.7,1,.3.3.5.6.8,1,.3.3.5.6.8.9s.5.6.8.9c.3.3.6.6.8.9.3.3.6.6.9.9.3.3.6.6.9.9.3.3.6.6.9.8s.6.6.9.8c.3.3.6.5.9.8.3.3.6.5,1,.8.3.3.6.5,1,.8.3.2.7.5,1,.7.3.2.7.5,1,.7.3.2.7.5,1,.7.3.2.7.4,1,.7.4.2.7.4,1.1.6.4.2.7.4,1.1.6.4.2.7.4,1.1.6.4.2.7.4,1.1.5.4.2.7.4,1.1.5.4.2.8.3,1.1.5.4.2.8.3,1.1.5.4.1.8.3,1.2.4-2.4,1-4.6,2-6.1,4.3-1.6,2.5-2,5.9-1.4,8.7.7,3.2,2.9,6.3,5.7,8,2,1.2,4.4,1.7,6.7,1.2,1.1-.3,2.2-.7,3.2-1.2,2.9-1.1,5.2-1.9,6.9-4.8,1.6-2.7,1.9-5.8,1.1-8.8-.9-3.4-3.3-6.6-7-7.1-1.8-.3-3.6-.2-5.4-.6-3.5-1-7.4-2.8-10.5-4.6-8.7-5.1-17-14.4-21-23.7-1.4-3.2-2.2-6.6-3-9.9,1.2,1.5,2.6,5.6,3.5,7.5,1.3,2.7,2.8,5.3,4.3,7.9,6.5,10.5,16.2,18.7,28.5,21.5,6.6,1.5,14.8,1.3,21.4-.3,1.8-.4,3.4-1.2,5.1-1.7,4.8-1.5,7.4-2.2,11.7-4.9-5.3,11.2-13.6,23-24.3,29.5-7.4,4.5-12.3,5.5-20.9,3.4-17-4.2-31.6-18.6-40.4-33.2ZM188.6,83.1c2.3,2.5,4.5,2.9,7.6,3.1,1.9-.3,3.6-1,4.8-2.7,1.4-2,1.5-4.7,1-7-.4-2.1-1.3-3.9-2.2-5.8,5.9,3.1,11.5,8.1,15.9,13.1,2.2,2.6,4.3,5.3,6.6,7.9-6.4-4.3-15.1-6.9-22.8-5.3-.8.2-1.5.3-2.2.5-2.2.5-4.3,1.4-6.4,2.1-.9-.2-1.8-.5-2.7-.7-2.9-.9-5.2-2.5-6.6-5.3-1.3-2.6-1.9-6.6-.9-9.3,1-2.9,4.2-4.2,6.7-5.4-.9,1.7-1.5,3.4-1.7,5.4-.2,3.4.8,7,3.1,9.5ZM188.1,70.3c.6-1.3,1.3-2.2,2.6-2.7,1.1,0,2.2-.1,3.3.3,2.2.7,3.6,2.5,4.5,4.5,1.3,2.6,2.4,6.1,1.4,8.9-.6,1.6-1.7,2.5-3.2,3.2-1.2.2-2.2,0-3.4-.5-2.4-1-4.2-3-5.1-5.3-1.1-2.5-1.3-5.8-.2-8.4ZM202.3,88c7.8-.7,15.9,2.5,21.9,7.4,13,10.5,20,27.3,21.6,43.6,1.5,14.9-.9,32.5-10.7,44.4-4.9,5.9-11.6,10.1-19.3,10.9-8.5.6-15.9-3.1-22.2-8.5-13.1-11.1-20-29.1-21.3-45.9-1.1-14.5,1.6-30.8,11.4-42.1,4.7-5.5,11.4-9.2,18.6-9.8ZM239.9,180.1c0,1.7-.9,3.9-1.4,5.5-2.7,8.4-6.4,16.4-11.9,23.2-6,7.4-15.8,15.3-25.5,16.3h0c.3-.4,6.1-3.6,7.5-4.6,8.5-6.2,15.5-15.6,20.3-24.9.9-1.8,2.1-3.7,2.4-5.6,3.8-2.8,6.1-6,8.8-9.9ZM186,92.9c-9.3,7.7-14.3,22.4-15.4,34.1-1.7,17.7,3.8,39.4,15.3,53.1,6.7,8.1,15.8,15,26.6,16-6.2,1.8-12.6,1.8-19,1.1-7-1-13.3-3.7-18.8-8.2-8.5-6.8-13.1-16.2-17.7-25.8-1.3-2.7-2.8-5.3-3.7-8.2-.8-2.7-1.2-5.5-1.5-8.3-1.6-14.7.4-31.1,9.9-42.9,6.5-8,15.8-11.4,25.8-12.4v.2c-.4.4-1,.8-1.5,1.2ZM186.3,206.1c-1,2.7-.8,6.4.4,9,1.1,2.4,3,3.7,5.4,4.6-1.8,1-3.2,1.2-5.2,1.1-.5-.1-1-.3-1.5-.5-2.7-1.2-4.9-3.6-5.9-6.3-.9-2.4-.8-5.1.3-7.4,1.5-3,4.3-4,7.2-5,.7,0,1.4.2,2.2.4-1.2,1.2-2.3,2.5-2.9,4.2ZM192.7,202.2c1.1,0,1.9.1,2.8.7,2,1.2,3.2,3.4,3.7,5.5.6,2.4.5,5.2-.9,7.4-1,1.6-2.2,2.2-4,2.6-.9,0-1.8-.3-2.6-.7-.1,0-.2-.1-.4-.2-.1,0-.2-.1-.3-.2-.1,0-.2-.1-.3-.2-.1,0-.2-.2-.3-.2-.1,0-.2-.2-.3-.2s-.2-.2-.3-.3c0,0-.2-.2-.3-.3,0,0-.2-.2-.3-.3,0,0-.2-.2-.3-.3,0-.1-.2-.2-.2-.3,0-.1-.2-.2-.2-.3,0-.1-.1-.2-.2-.3,0-.1-.1-.2-.2-.3,0-.1-.1-.2-.2-.4,0-.1-.1-.2-.2-.4,0-.1,0-.2-.1-.4-.8-2.3-.5-5.3.6-7.4,1-1.8,2.5-2.8,4.4-3.4ZM134,92.7c.2-.7.4-1.4.6-2.1.2-.7.4-1.4.7-2.1.2-.7.5-1.4.7-2.1.3-.7.5-1.4.8-2.1.3-.7.6-1.4.9-2,.3-.7.6-1.3.9-2,.3-.7.7-1.3,1-2,.3-.7.7-1.3,1.1-1.9s.7-1.3,1.1-1.9c.4-.6.8-1.3,1.2-1.9.4-.6.8-1.2,1.2-1.8.4-.6.9-1.2,1.3-1.8.4-.6.9-1.2,1.4-1.8.5-.6.9-1.1,1.4-1.7.5-.6,1-1.1,1.5-1.7,9.7-10.6,22.3-17.2,36.8-17.8,4.3-.2,9,.4,13.1,1.5,2.9.8,5.6,1.9,8.3,3.1,15.3,7,26.6,20,34.8,34.3,15.1,26.2,19.1,58.3,13.9,87.8-.6,3.5-1.3,7-2.2,10.5-5.2,19.1-15.7,38.1-33.3,48.2-9.7,5.6-20.6,7.9-31.6,4.9-17.7-4.9-32-18.6-40.9-34.3,1.8,1.9,3.4,4,5.2,6,9.1,9.8,23.2,18.9,36.9,19.5,4.9.2,9.6-.1,14.4-1.6,13.3-4,23.1-14.6,29.5-26.5,2.7-5,4.8-10.6,6.1-16.2.6-2.3.8-4.8,1.5-7.1.4-1.6,1.2-3,1.7-4.5.8-2,1.4-3.9,1.9-6,1.2-4.5,1.7-9.1,1.9-13.7.5-9.5-.3-18.5-3-27.6-1.3-4.4-3.3-8.3-4.9-12.6-1.5-4.2-2.8-8.5-4.6-12.7-5.9-13.9-15.8-27.1-29.3-34.3-11.5-6.1-25.3-7.9-37.8-4.1-13,4-23.1,13.2-30,24.8-1.8,3-3.2,6.2-4.9,9.3.2-.7.3-1.4.5-2.1ZM141.3,103c1.9,3.1,4.8,4.4,8.2,5.3-2,.5-4,1.2-6,1.8-1.3.3-2.4.2-3.7-.3-.1,0-.3-.1-.4-.2-.1,0-.3-.1-.4-.2-.1,0-.3-.1-.4-.2-.1,0-.3-.2-.4-.2s-.3-.2-.4-.3c-.1,0-.3-.2-.4-.3-.1,0-.2-.2-.4-.3-.1-.1-.2-.2-.3-.3-.1-.1-.2-.2-.3-.3-.1-.1-.2-.2-.3-.4-.1-.1-.2-.2-.3-.4,0-.1-.2-.3-.3-.4,0-.1-.2-.3-.3-.4,0-.1-.2-.3-.2-.4,0-.1-.1-.3-.2-.4,0-.1-.1-.3-.2-.4-1.1-2.7-1.1-6,.1-8.7,1.1-2.7,3-3.5,5.5-4.5l.2.2c-.1.4-.3.9-.4,1.3-.8,3.3-.5,7.1,1.3,10ZM142,92.2c.4-1,.9-1.6,1.9-2,1,0,2.1-.2,3.1,0,2.3.3,4.3,1.7,5.6,3.6,1.8,2.4,2.8,5.7,2.2,8.7-.3,1.8-1.1,2.9-2.6,3.9-1.5.4-3.2.2-4.7-.4-2.6-1.1-4.4-3.3-5.4-5.9-.9-2.3-1.2-5.5-.2-7.8ZM129.6,114.8c.6-4.1,1.5-8.2,2.3-12.3.2.8.5,1.6.8,2.4,1.3,2.9,3.4,5.2,6.5,6.3,1,.4,2,.7,3,.7,3,0,7.1-1.7,9.8-3,2-.9,3.2-2.4,3.9-4.5,1-3.2.5-6.7-1-9.7-1.4-2.8-3.9-5.3-6.9-6.2-3.9-1.1-7.9,1-11.3,2.9,3.2-7.2,8.3-13.6,14.1-18.9,8.1-7.4,19.5-12,30.6-11.5,3.4-.5,11.4.4,14.5,1.9,1.6.5,3.3,1,4.8,1.7,18.2,7.6,28.1,23.3,35.3,40.8-1.9-2.5-3.8-5.1-6.1-7.4-1.6-1.7-3.4-3.2-4.9-4.9-1.6-1.9-2.8-4.2-4.4-6.2-6-7.6-12.9-14.7-21.8-18.8-1.4-.7-2.9-1.4-4.4-1.8-3.5-.9-7.7,0-10.7,1.8-2.5,1.4-4.6,3.5-5.4,6.4-.8,3.2-.2,7,1.6,9.8,1.9,3,4.8,4.6,8.2,5.3-1.1,0-2.3.2-3.4.3-9.9,1.2-19.1,5.6-25.3,13.6-9.4,12.1-11.5,30.9-9.4,45.8.4,2.5.8,5,1.5,7.5.5,2,1.2,4,1.5,6.1,0,0,0,.1,0,.2-1.4-3.8-3.5-8.1-7.4-9.8-4.6-2.1-10.7.9-15.1,2.6-2.2-13.5-2.9-27.4-1-41Z"/>
  <path class="st3" d="M142,176.5c1.7-.2,3-.6,4.6-1.3-3.2-.6-5.9-1.7-7.8-4.5-2-2.8-3.1-6.6-2.4-10,.8-3.9,3.6-5.2,4-6.4h-.4c-3.1.8-6,1.9-9,3.1,1.4,5.9,2.7,12.9,5.3,18.3,2,.8,3.7,1.1,5.8.8Z"/>
  <path class="st3" d="M140.4,91.7l-.2-.2c-2.5,1-4.4,1.9-5.5,4.5-1.2,2.7-1.2,5.9-.1,8.7,0,.1.1.3.2.4,0,.1.1.3.2.4,0,.1.2.3.2.4,0,.1.2.3.3.4,0,.1.2.3.3.4,0,.1.2.2.3.4.1.1.2.2.3.4.1.1.2.2.3.3.1.1.2.2.3.3.1.1.2.2.4.3.1,0,.2.2.4.3.1,0,.3.2.4.3s.3.2.4.2c.1,0,.3.2.4.2.1,0,.3.1.4.2.1,0,.3.1.4.2,1.3.5,2.3.6,3.7.3,2-.6,4-1.3,6-1.8-3.4-.8-6.3-2.2-8.2-5.3-1.8-2.9-2.2-6.7-1.3-10,.1-.4.2-.9.4-1.3Z"/>
  <path class="st3" d="M179.8,206.6c-1.2,2.4-1.2,5-.3,7.4,1,2.8,3.2,5.2,5.9,6.3.5.2,1,.4,1.5.5,2,0,3.4-.2,5.2-1.1-2.4-.9-4.3-2.2-5.4-4.6-1.2-2.7-1.4-6.3-.4-9,.6-1.7,1.6-2.9,2.9-4.2-.7-.1-1.4-.3-2.2-.4-2.9,1-5.7,2-7.2,5Z"/>
  <path class="st3" d="M187.2,68.2c-2.6,1.3-5.7,2.5-6.7,5.4-1,2.7-.4,6.8.9,9.3,1.4,2.8,3.7,4.4,6.6,5.3.9.3,1.8.5,2.7.7,2.1-.7,4.2-1.6,6.4-2.1-.5-.1-.5-.2-.9-.7-3.2-.2-5.4-.6-7.6-3.1-2.3-2.5-3.3-6.2-3.1-9.5.1-2,.7-3.7,1.7-5.4Z"/>
  <path class="st8" d="M197.1,86.9c.7-.2,1.5-.4,2.2-.5,7.7-1.6,16.4,1,22.8,5.3-2.3-2.6-4.3-5.3-6.6-7.9-4.4-5-10-10-15.9-13.1.9,1.9,1.8,3.8,2.2,5.8.5,2.3.4,5-1,7-1.2,1.7-2.8,2.4-4.8,2.7.3.4.3.5.9.7Z"/>
  <path class="st8" d="M187.7,213c0,.1,0,.2.1.4,0,.1.1.2.2.4,0,.1.1.2.2.4,0,.1.1.2.2.3,0,.1.1.2.2.3,0,.1.1.2.2.3,0,.1.2.2.2.3,0,.1.2.2.3.3,0,0,.2.2.3.3,0,0,.2.2.3.3,0,0,.2.2.3.3s.2.2.3.2c.1,0,.2.2.3.2.1,0,.2.1.3.2.1,0,.2.1.3.2.1,0,.2.1.4.2.8.4,1.7.6,2.6.7,1.8-.4,3-1,4-2.6,1.3-2.1,1.5-5,.9-7.4-.6-2.2-1.8-4.4-3.7-5.5-.9-.5-1.7-.7-2.8-.7-1.9.6-3.4,1.6-4.4,3.4-1.1,2.1-1.4,5.2-.6,7.4ZM194.1,203.6c.4,0,.7.2,1,.5.4.3.7.7.7,1.2,0,.7-.4,1-.8,1.4-.4,0-.6,0-.9-.2-.4-.3-.5-.8-.6-1.3,0-.7.1-1,.6-1.5Z"/>
  <path d="M194.1,206.4c.3.3.5.3.9.2.4-.5.8-.8.8-1.4,0-.5-.4-.9-.7-1.2-.3-.2-.6-.4-1-.5-.4.5-.6.8-.6,1.5,0,.5.2,1,.6,1.3Z"/>
  <path class="st8" d="M193.4,83.9c1.2.5,2.2.6,3.4.5,1.5-.7,2.6-1.6,3.2-3.2,1-2.8-.1-6.4-1.4-8.9-1-2-2.4-3.8-4.5-4.5-1.1-.4-2.2-.3-3.3-.3-1.3.5-2.1,1.4-2.6,2.7-1.1,2.6-.9,5.8.2,8.4,1,2.3,2.8,4.3,5.1,5.3ZM193.1,68.5c.3,0,.5.1.7.4.6.8,4.5,8.4,4.5,9.1-.5-.1-.8-.3-1.2-.7-1.6-2-4.3-6.1-4-8.8Z"/>
  <path d="M198.3,78c0-.7-3.9-8.3-4.5-9.1-.2-.3-.4-.3-.7-.4-.3,2.7,2.4,6.8,4,8.8.3.4.7.6,1.2.7Z"/>
  <path class="st8" d="M147.6,105.9c1.5.6,3.2.8,4.7.4,1.5-1,2.2-2.1,2.6-3.9.5-3-.5-6.2-2.2-8.7-1.4-1.9-3.3-3.2-5.6-3.6-1-.1-2.1,0-3.1,0-1,.4-1.5,1-1.9,2-1,2.3-.7,5.5.2,7.8,1,2.6,2.8,4.8,5.4,5.9ZM147.6,92.4c.9.2,1.5.6,2,1.3,1.7,2.1,4.2,6.2,3.9,9.1-.3,0-.6-.1-.8-.4-.7-.7-2.6-5.2-3.3-6.6-.5-.8-1.6-2-1.8-2.8,0-.2,0-.4,0-.7Z"/>
  <path d="M149.4,95.8c.8,1.3,2.6,5.8,3.3,6.6.2.3.5.3.8.4.3-2.8-2.2-6.9-3.9-9.1-.6-.7-1.1-1.1-2-1.3,0,.2,0,.4,0,.7.2.8,1.3,2.1,1.8,2.8Z"/>
  <path class="st8" d="M138.5,166c.7,2.5,2.1,4.9,4.3,6.2,1.2.7,2.4.9,3.7,1,1.6-.2,2.8-.5,3.9-1.9,1.2-1.5,1.7-3.8,1.4-5.7-.4-3.1-2.7-7.7-5.2-9.6-1-.7-2-1-3.2-1-1.8.4-3.2,1.5-4.1,3-1.5,2.4-1.6,5.4-.9,8.1ZM145,157.3c.3,0,.4.2.7.3.9,1.8,1.9,3.6,3.1,5.3.8,1.1,2,2.3,2.6,3.5.2.4.2.6.2,1.1-2.3-.8-4.7-4.6-5.8-6.7-.5-1-1.2-2.2-.8-3.4Z"/>
  <path d="M151.6,167.5c0-.4,0-.7-.2-1.1-.6-1.2-1.8-2.4-2.6-3.5-1.2-1.7-2.1-3.5-3.1-5.3-.2-.1-.4-.2-.7-.3-.4,1.2.3,2.4.8,3.4,1.1,2.1,3.5,5.9,5.8,6.7Z"/>
  <path class="st3" d="M231.1,190c-.3,2-1.4,3.9-2.4,5.6-4.8,9.3-11.8,18.6-20.3,24.9-1.3,1-7.2,4.2-7.5,4.5h0c9.7-.9,19.6-8.8,25.5-16.2,5.6-6.9,9.2-14.9,11.9-23.2.5-1.6,1.4-3.8,1.4-5.5-2.7,3.9-5,7.1-8.8,9.9Z"/>
  <path class="st8" d="M183.5,224.5c8.6,2.1,13.5,1.2,20.9-3.4,10.7-6.6,19-18.3,24.3-29.5-4.3,2.7-6.9,3.4-11.7,4.9-1.7.5-3.4,1.3-5.1,1.7-6.6,1.7-14.8,1.8-21.4.3-12.3-2.8-22-10.9-28.5-21.5-1.6-2.6-3-5.2-4.3-7.9-.9-2-2.3-6.1-3.5-7.5.9,3.4,1.7,6.7,3,9.9,4,9.3,12.3,18.6,21,23.7,3.1,1.8,7,3.7,10.5,4.6,1.8.5,3.6.4,5.4.6,3.7.5,6.1,3.7,7,7.1.8,3,.5,6.1-1.1,8.8-1.7,2.9-4,3.7-6.9,4.8-1.1.4-2.1.9-3.2,1.2-2.3.5-4.7,0-6.7-1.2-2.8-1.7-5-4.8-5.7-8-.6-2.9-.3-6.3,1.4-8.7,1.5-2.3,3.7-3.3,6.1-4.3-.4-.1-.8-.3-1.2-.4-.4-.1-.8-.3-1.1-.5-.4-.2-.8-.3-1.1-.5-.4-.2-.7-.3-1.1-.5-.4-.2-.7-.4-1.1-.5-.4-.2-.7-.4-1.1-.6-.4-.2-.7-.4-1.1-.6-.4-.2-.7-.4-1.1-.6-.4-.2-.7-.4-1-.7-.3-.2-.7-.4-1-.7-.3-.2-.7-.5-1-.7-.3-.2-.7-.5-1-.7-.3-.2-.7-.5-1-.8-.3-.3-.6-.5-1-.8-.3-.3-.6-.5-.9-.8-.3-.3-.6-.5-.9-.8s-.6-.6-.9-.8c-.3-.3-.6-.6-.9-.9-.3-.3-.6-.6-.9-.9-.3-.3-.6-.6-.8-.9-.3-.3-.5-.6-.8-.9s-.5-.6-.8-.9c-.3-.3-.5-.6-.8-1-.3-.3-.5-.7-.7-1-.2-.3-.5-.7-.7-1-.2-.3-.5-.7-.7-1-.2-.3-.4-.7-.7-1-.2-.3-.4-.7-.6-1.1-.2-.4-.4-.7-.6-1.1-.2-.4-.4-.7-.6-1.1-.2-.4-.4-.7-.6-1.1-.2-.4-.4-.7-.5-1.1-1-2.1-1.7-4.4-2.8-6.5-.9,3.7-2.5,6.6-5.9,8.6-3.5,2.1-7.2,2.1-11.1,1.4,1.8,4.7,3.9,9.1,6.3,13.5,8.8,14.6,23.5,29,40.4,33.2ZM152.3,199.6c-.8-1.5-.9-3.5-.3-5.1.6-1.7,1.7-2.5,3.3-3.2,1.4-.1,2.5,0,3.7.7,1.6,1,2.4,2.8,2.8,4.6.3,1.5.2,3.1-.7,4.4-.8,1.1-1.7,1.4-2.9,1.6-.8,0-1.7.2-2.5,0-1.5-.5-2.7-1.6-3.3-3Z"/>
  <path d="M158.1,202.7c1.3-.2,2.2-.6,2.9-1.6.9-1.3,1-2.9.7-4.4-.3-1.8-1.2-3.6-2.8-4.6-1.2-.8-2.3-.9-3.7-.7-1.6.7-2.7,1.5-3.3,3.2-.6,1.6-.4,3.5.3,5.1.7,1.4,1.9,2.5,3.3,3,.8.3,1.7.1,2.5,0ZM157.9,193.1c.4.2.7.4,1,.8,1.1,1.5,1.5,3.8,1.2,5.6-.3,0-.2,0-.4-.2-1.7-1.8-1.9-3.8-1.8-6.2ZM154.5,194.7c0-1,.4-1.5,1.1-2.2h.6c.5.8.5,2.8.6,3.8.3,2.2,1.3,2.7,2.8,3.9-.2.5-.4.6-.8.8-.2,0-.4,0-.6,0-.7,0-1.2-.2-1.7-.7-1.4-1.4-2.2-3.7-2-5.7Z"/>
  <path class="st8" d="M160.1,199.4c.3-1.8,0-4.1-1.2-5.6-.3-.4-.6-.6-1-.8,0,2.4.1,4.4,1.8,6.2.2.2,0,.2.4.2Z"/>
  <path class="st8" d="M158.8,201c.4-.3.7-.4.8-.8-1.6-1.3-2.6-1.8-2.8-3.9-.1-.9,0-2.9-.6-3.6h-.6c-.8.5-1.1,1-1.1,2-.1,1.9.7,4.3,2,5.7.5.5.9.7,1.7.7.2,0,.4,0,.6,0Z"/>
  <path class="st3" d="M161.6,104c-9.6,11.8-11.5,28.2-9.9,42.9.3,2.8.7,5.6,1.5,8.3.9,2.9,2.4,5.4,3.7,8.2,4.5,9.6,9.2,18.9,17.7,25.8,5.5,4.4,11.8,7.2,18.8,8.2,6.3.7,12.8.6,19-1.1-10.8-1-19.8-7.9-26.6-16-11.4-13.8-16.9-35.5-15.3-53.1,1.1-11.7,6.1-26.3,15.4-34.1.5-.4,1.1-.8,1.6-1.2v-.2c-10.1,1-19.4,4.4-25.9,12.4ZM168.5,148.6c-.5.1-1.1.3-1.5,0-.5-.3-.9-.8-.9-1.4-.1-1,.1-1.7.7-2.4.2,0,.3,0,.5.2.7.4,1.6,1.6,1.7,2.5,0,.6-.1.8-.5,1.2Z"/>
  <path d="M167.2,145c-.2-.1-.3-.1-.5-.2-.6.7-.8,1.4-.7,2.4,0,.6.4,1.1.9,1.4.5.3,1,.1,1.5,0,.4-.4.6-.6.5-1.2,0-.9-1-2-1.7-2.5Z"/>
  <path d="M145.8,153.2c3.9,1.8,5.9,6.1,7.4,9.8,0,0,0-.1,0-.2-.2-2-1-4.1-1.5-6.1-.6-2.5-1.1-5-1.5-7.5-2.1-14.8,0-33.6,9.4-45.8,6.2-8,15.4-12.3,25.3-13.6,1.1-.1,2.3-.2,3.4-.3-3.4-.8-6.3-2.3-8.2-5.3-1.8-2.8-2.4-6.6-1.6-9.8.7-2.9,2.9-4.9,5.4-6.4,3.1-1.8,7.3-2.7,10.7-1.8,1.5.4,3,1.1,4.4,1.8,8.9,4.2,15.8,11.2,21.8,18.8,1.6,2,2.7,4.3,4.4,6.2,1.5,1.7,3.3,3.2,4.9,4.9,2.2,2.3,4.1,4.8,6.1,7.4-7.2-17.5-17.1-33.2-35.3-40.8-1.6-.7-3.2-1.2-4.8-1.7-.9,0-1.9-.3-2.8-.3-1,0-2,.1-3,.2h.1c0,0,0,0-.1,0-2.6-1.3-5.9-1.3-8.7-1.8-11.1-.5-22.4,4-30.6,11.5-5.8,5.3-10.9,11.7-14.1,18.9,3.3-1.9,7.3-4.1,11.3-2.9,3.1.9,5.5,3.4,6.9,6.2,1.5,2.9,2,6.5,1,9.7-.7,2.1-1.9,3.5-3.9,4.5-2.7,1.3-6.8,3.1-9.8,3-1,0-2.1-.3-3-.7-3-1.1-5.2-3.4-6.5-6.3-.3-.8-.6-1.6-.8-2.4-.8,4.1-1.7,8.2-2.3,12.3-1.9,13.6-1.2,27.5,1,41,4.4-1.7,10.5-4.7,15.1-2.6ZM130.1,134.6c.3-1.7,1-2.9,2.5-3.9.4,0,.7,0,1.1,0,1.2.2,2.5,1.5,3.1,2.5,1.3,1.9,1.9,4.4,1.4,6.7-.4,1.7-1.2,2.8-2.6,3.7-.5,0-1,.2-1.5,0-1-.2-1.9-.9-2.5-1.7-1.4-1.9-1.9-5.1-1.5-7.4Z"/>
  <path class="st2" d="M145.8,153.2c3.9,1.8,5.9,6.1,7.4,9.8,0,0,0-.1,0-.2-.2-2-1-4.1-1.5-6.1-.6-2.5-1.1-5-1.5-7.5-2.1-14.8,0-33.6,9.4-45.8,6.2-8,15.4-12.3,25.3-13.6,1.1-.1,2.3-.2,3.4-.3-3.4-.8-6.3-2.3-8.2-5.3-1.8-2.8-2.4-6.6-1.6-9.8.7-2.9,2.9-4.9,5.4-6.4,3.1-1.8,7.3-2.7,10.7-1.8,1.5.4,3,1.1,4.4,1.8,8.9,4.2,15.8,11.2,21.8,18.8,1.6,2,2.7,4.3,4.4,6.2,1.5,1.7,3.3,3.2,4.9,4.9,2.2,2.3,4.1,4.8,6.1,7.4-7.2-17.5-17.1-33.2-35.3-40.8-1.6-.7-3.2-1.2-4.8-1.7-.9,0-1.9-.3-2.8-.3-1,0-2,.1-3,.2h.1c0,0,0,0-.1,0-2.6-1.3-5.9-1.3-8.7-1.8-11.1-.5-22.4,4-30.6,11.5-5.8,5.3-10.9,11.7-14.1,18.9,3.3-1.9,7.3-4.1,11.3-2.9,3.1.9,5.5,3.4,6.9,6.2,1.5,2.9,2,6.5,1,9.7-.7,2.1-1.9,3.5-3.9,4.5-2.7,1.3-6.8,3.1-9.8,3-1,0-2.1-.3-3-.7-3-1.1-5.2-3.4-6.5-6.3-.3-.8-.6-1.6-.8-2.4-.8,4.1-1.7,8.2-2.3,12.3-1.9,13.6-1.2,27.5,1,41,4.4-1.7,10.5-4.7,15.1-2.6ZM130.1,134.6c.3-1.7,1-2.9,2.5-3.9.4,0,.7,0,1.1,0,1.2.2,2.5,1.5,3.1,2.5,1.3,1.9,1.9,4.4,1.4,6.7-.4,1.7-1.2,2.8-2.6,3.7-.5,0-1,.2-1.5,0-1-.2-1.9-.9-2.5-1.7-1.4-1.9-1.9-5.1-1.5-7.4Z"/>
  <path class="st6" d="M190.3,62.9h-.1c1-.2,2-.3,3-.3.9,0,1.9.3,2.8.3-3.1-1.5-11.1-2.4-14.5-1.9,2.9.6,6.1.5,8.7,1.8,0,0,0,0,.1,0Z"/>
  <path d="M134.1,143.8c.5,0,1,0,1.5,0,1.5-.9,2.3-2,2.6-3.7.5-2.3-.1-4.8-1.4-6.7-.7-1-1.9-2.2-3.1-2.5-.4,0-.7,0-1.1,0-1.5,1-2.2,2.2-2.5,3.9-.4,2.3.1,5.5,1.5,7.4.6.8,1.5,1.5,2.5,1.7ZM133.1,132.1c.3.1.5.2.8.4.2.1.4.3.5.4.2.1.3.3.5.4.2.2.3.3.4.5.1.2.3.3.4.5.1.2.2.4.3.6.1.2.2.4.3.6,0,.2.2.4.2.6,0,.2.1.4.2.6.4,1.8,0,3.1-.9,4.6-1.6-3.4-1-3.6-1.4-7l-.6-.3c-.2.6-.4,1.2-.6,1.8-.4,1.7.2,3.8,1.2,5.3.2.3.2.1.1.6-.4,0-.6,0-1-.3-1.1-.7-1.4-1.9-1.7-3.1-.5-2.3,0-4.3,1.2-6.3Z"/>
  <path class="st3" d="M133.5,141.4c.3.2.5.3,1,.3,0-.4,0-.2-.1-.6-1-1.5-1.6-3.5-1.2-5.3.1-.6.3-1.2.6-1.8l.6.3c.4,3.3-.1,3.6,1.4,7,1-1.5,1.2-2.8.9-4.6,0-.2,0-.4-.2-.6,0-.2-.1-.4-.2-.6,0-.2-.2-.4-.3-.6-.1-.2-.2-.4-.3-.6-.1-.2-.3-.4-.4-.5-.1-.2-.3-.3-.4-.5-.2-.2-.3-.3-.5-.4-.2-.1-.3-.3-.5-.4-.2-.2-.5-.3-.8-.4-1.3,2-1.7,3.9-1.2,6.3.2,1.2.6,2.4,1.7,3.1Z"/>
  <path class="st3" d="M168.3,60.8c12.5-3.9,26.4-2,37.8,4.1,13.5,7.2,23.4,20.4,29.3,34.3,1.8,4.2,3,8.5,4.6,12.7,1.5,4.3,3.6,8.2,4.9,12.6,2.7,9.1,3.6,18.1,3,27.6-.3,4.6-.8,9.2-1.9,13.7-.5,2-1.1,4-1.9,6-.6,1.5-1.3,3-1.7,4.5-.6,2.3-.9,4.8-1.5,7.1-1.3,5.6-3.4,11.2-6.1,16.2-6.4,11.9-16.2,22.5-29.5,26.5-4.8,1.4-9.4,1.8-14.4,1.6-13.7-.6-27.8-9.7-36.9-19.5-1.8-1.9-3.4-4-5.2-6,8.9,15.7,23.2,29.4,40.9,34.3,11,3,21.9.7,31.6-4.9,17.6-10.1,28.1-29.1,33.3-48.2.9-3.4,1.6-7,2.2-10.5,5.3-29.5,1.2-61.6-13.9-87.8-8.3-14.3-19.6-27.3-34.8-34.3-2.7-1.2-5.4-2.4-8.3-3.1-4.2-1.1-8.8-1.8-13.1-1.5-14.5.6-27.1,7.2-36.8,17.8-.5.5-1,1.1-1.5,1.7-.5.6-1,1.1-1.4,1.7-.5.6-.9,1.2-1.4,1.8-.4.6-.9,1.2-1.3,1.8-.4.6-.8,1.2-1.2,1.8-.4.6-.8,1.2-1.2,1.9-.4.6-.8,1.3-1.1,1.9s-.7,1.3-1.1,1.9c-.3.7-.7,1.3-1,2-.3.7-.6,1.3-.9,2-.3.7-.6,1.4-.9,2-.3.7-.5,1.4-.8,2.1-.3.7-.5,1.4-.7,2.1-.2.7-.5,1.4-.7,2.1-.2.7-.4,1.4-.6,2.1s-.4,1.4-.5,2.1c1.6-3.1,3.1-6.3,4.9-9.3,6.9-11.6,17-20.8,30-24.8Z"/>
  <path class="st8" d="M183.7,97.7c-9.8,11.3-12.5,27.6-11.4,42.1,1.3,16.8,8.2,34.8,21.3,45.9,6.3,5.4,13.7,9.1,22.2,8.5,7.7-.8,14.4-5,19.3-10.9,9.8-11.9,12.2-29.5,10.7-44.4-1.7-16.3-8.7-33.1-21.6-43.6-6-4.9-14.1-8.1-21.9-7.4-7.3.5-13.9,4.3-18.6,9.8ZM204.2,97.5c6.1-.7,12.6,2.5,17.3,6.1,10.9,8.4,16.5,21.9,18.1,35.2,1.5,11.8-.6,26.8-8.1,36.4-4,5-9.1,7.6-15.3,8.4-5.9.5-12.4-2.3-17-5.8-10.4-8-17-21.4-18.7-34.3-1.6-12.5-.8-25.9,7.2-36.2,4.2-5.4,9.7-8.9,16.5-9.8Z"/>
  <path d="M180.5,143.5c1.7,12.9,8.3,26.4,18.7,34.3,4.6,3.5,11.1,6.4,17,5.8,6.3-.8,11.4-3.4,15.3-8.4,7.6-9.6,9.6-24.5,8.1-36.4-1.6-13.4-7.2-26.8-18.1-35.2-4.7-3.6-11.2-6.9-17.3-6.1-6.8.9-12.3,4.4-16.5,9.8-8,10.4-8.9,23.7-7.2,36.2ZM204.1,99.4c2.4-.2,5.2,0,7.5.9,9.6,3.1,16.6,11.4,21,20.1,6.6,13.1,7.5,29.6,2.9,43.5-2.3,6.7-5.9,12.9-12.5,16.1-3.3,1.6-9.1,2.8-12.6,1.6,4.8,0,9.8-.6,13.7-3.7,7.1-5.6,11.2-15.9,12.2-24.7,1.5-13.4-1.7-29.3-10.3-39.9-6.5-8-14.5-12.3-24.7-13.4,1-.1,2-.2,2.9-.4ZM199,101c4.6-.1,9.8,1.1,13.8,3.3,9.3,4.8,15.6,13.7,18.7,23.5,4,12.8,5,27.8-1.5,40-2.9,5.5-7.1,9.8-13.1,11.7-.5,0-1,.2-1.5.2-.5,0-1,.1-1.5.1-.5,0-1,0-1.5,0-.5,0-1,0-1.5,0-.5,0-1,0-1.5-.2-.5,0-1-.2-1.5-.3s-1-.2-1.4-.4c-.5-.1-.9-.3-1.4-.5,2.3-3.4,4.1-6.4,5.3-10.3,4.2-13.2,2.5-29.2-3.9-41.4-4-7.7-9.9-14.7-18.3-17.4,2.4-3.4,6.4-7.6,10.6-8.5ZM187.4,110.8s0,0,0,0c0,0,0,0,0,0,2.2.8,4.3,1.8,6.2,3.1,9.6,6.8,14.9,19.3,16.7,30.5,1.7,10.3.1,24.1-6.1,32.7l-1,1.1s0,0,0,0h0c-2.3-1.3-4.5-2.8-6.4-4.7-6.4-6-11-15.1-13.2-23.6-3.3-12.9-3.2-27.4,3.8-39.2Z"/>
  <path d="M225.9,113.2c8.7,10.7,11.8,26.5,10.3,39.9-1,8.8-5,19.1-12.2,24.7-3.9,3.1-8.9,3.6-13.7,3.7,3.6,1.2,9.3,0,12.6-1.6,6.6-3.2,10.3-9.4,12.5-16.1,4.6-13.8,3.7-30.4-2.9-43.5-4.4-8.7-11.4-17-21-20.1-2.3-.8-5.1-1.1-7.5-.9-1,.1-2,.2-2.9.4,10.2,1.1,18.2,5.4,24.7,13.4Z"/>
  <path class="st0" d="M225.9,113.2c8.7,10.7,11.8,26.5,10.3,39.9-1,8.8-5,19.1-12.2,24.7-3.9,3.1-8.9,3.6-13.7,3.7,3.6,1.2,9.3,0,12.6-1.6,6.6-3.2,10.3-9.4,12.5-16.1,4.6-13.8,3.7-30.4-2.9-43.5-4.4-8.7-11.4-17-21-20.1-2.3-.8-5.1-1.1-7.5-.9-1,.1-2,.2-2.9.4,10.2,1.1,18.2,5.4,24.7,13.4Z"/>
  <path class="st5" d="M196.9,173.6c1.9,1.8,4.1,3.3,6.4,4.7h0c-2.2-1.4-4.4-2.9-6.3-4.7-6.4-6-11-15.1-13.2-23.6-3.3-12.9-3.2-27.4,3.7-39.2,0,0,0,0,0,0-6.9,11.7-7.1,26.2-3.8,39.2,2.2,8.5,6.8,17.6,13.2,23.6Z"/>
  <path class="st3" d="M206.6,126.9c6.4,12.3,8.1,28.2,3.9,41.4-1.2,3.9-3,6.9-5.3,10.3.5.2.9.3,1.4.5.5.1,1,.3,1.4.4s1,.2,1.5.3c.5,0,1,.1,1.5.2.5,0,1,0,1.5,0,.5,0,1,0,1.5,0,.5,0,1,0,1.5-.1.5,0,1-.1,1.5-.2,6-1.9,10.2-6.2,13.1-11.7,6.4-12.2,5.5-27.2,1.5-40-3.1-9.8-9.5-18.7-18.7-23.5-4.1-2.1-9.2-3.4-13.8-3.3-4.2.8-8.2,5.1-10.6,8.5,8.5,2.7,14.3,9.7,18.3,17.4Z"/>
</svg>