<?xml version="1.0" encoding="utf-8"?>
<svg xmlns="http://www.w3.org/2000/svg" height="256" width="256" viewBox="0 0 256 256">
  <g>
    <path id="path1" transform="rotate(0,128,128) translate(59,62.234375) scale(4.3125,4.3125)  " fill="#FFFFFF" d="M22.056,13.420013L26.33902,13.420013 26.35202,13.420013 30.636017,13.420013C30.636017,13.420013,31.233002,13.535004,31.069,14.96701L30.968018,20.028015C30.968018,20.028015,32.785004,21.692993,30.869995,22.757996L26.856018,30.5 26.856018,24.223022 26.856018,22.959015C26.856018,22.959015,29.20401,21.410004,26.373016,20.496002L26.35202,20.507019 26.33902,20.501007C23.488007,21.410004,25.835022,22.959015,25.835022,22.959015L25.835022,24.223022 25.835022,30.5 21.822021,22.757996C19.908997,21.692993,21.723999,20.028015,21.723999,20.028015L21.624023,14.96701C21.468018,13.623993,21.984009,13.440002,22.050018,13.421997L22.052002,13.421021 22.053009,13.421021C22.055023,13.420013,22.056,13.420013,22.056,13.420013z M21.675995,10.739014L31.001007,10.739014C31.550995,10.739014 32,11.184998 32,11.737 32,12.289001 31.550995,12.736023 31.001007,12.736023L21.675995,12.736023C21.128021,12.736023 20.679016,12.289001 20.679016,11.737 20.679016,11.184998 21.128021,10.739014 21.675995,10.739014z M0,5.5930176L4.5810242,5.5930176 4.5810242,9.3220215 4.5810242,12.270996 4.5810242,22.819C4.5810242,24.046997 3.5570068,24.542023 2.2920227,24.542023 1.026001,24.542023 0,23.546997 0,22.317017L0,12.270996 0,9.3220215z M10.388,5.105011C9.8160095,5.105011 9.3529968,5.5429993 9.3529968,6.0830078 9.3529968,6.6239929 9.8160095,7.0610046 10.388,7.0610046L19.82901,7.0610046C20.055023,7.0610046,20.263,6.9920044,20.434021,6.8760071L20.649017,6.678009C20.783997,6.5130005 20.864014,6.3080139 20.864014,6.0830078 20.864014,5.5429993 20.401001,5.105011 19.82901,5.105011z M7.4179993,0L27.871002,0 27.871002,9.0220032 27.871002,9.4440002 21.542023,9.4440002C21.294006,9.4440002 21.057007,9.4930115 20.833008,9.5679932 20.770996,9.098999 20.404022,8.7330017 19.94101,8.7330017L10.52002,8.7330017C10.015015,8.7330017 9.6040039,9.1650085 9.6040039,9.697998 9.6040039,10.231018 10.015015,10.662018 10.52002,10.662018L10.563019,10.662018C10.585022,10.662994,10.602997,10.674011,10.626007,10.674011L15.070007,10.674011 15.070007,10.662018 19.531006,10.662018C19.358002,10.984009 19.251007,11.347015 19.251007,11.737 19.251007,12.531006 19.656006,13.230011 20.272003,13.641998 20.175995,14.015015 20.137024,14.473999 20.197998,15.050995L20.286011,19.541016C19.89502,20.036011 19.421021,20.856995 19.535004,21.822021 19.597015,22.348999 19.856018,23.069 20.701996,23.665009L20.938995,24.123993 18.057007,24.123993 15.070007,24.123993 7.4179993,24.123993z" />
  </g>
</svg>

